<?xml version="1.0" encoding="iso-8859-1"?>
<!-- Generator: Adobe Illustrator 19.0.0, SVG Export Plug-In . SVG Version: 6.00 Build 0)  -->
<svg version="1.1" id="Capa_1" xmlns="http://www.w3.org/2000/svg" xmlns:xlink="http://www.w3.org/1999/xlink" x="0px" y="0px"
	 viewBox="0 0 512 512" style="enable-background:new 0 0 512 512;" xml:space="preserve">
<path style="fill:#B6E892;" d="M421.164,321.334c-8.284,0-15,6.715-15,15v88.367c0,31.595-25.704,57.299-57.299,57.299
	c-31.596,0-57.301-25.704-57.301-57.299V63.2c0-34.849-28.351-63.2-63.199-63.2c-34.849,0-63.199,28.352-63.199,63.2v385.601
	c0,18.307-14.894,33.199-33.199,33.199c-18.308,0-33.201-14.893-33.201-33.199V63.2l0,0v-0.001C98.763,28.352,70.411,0,35.544,0
	L14.98,0.028C6.695,0.04-0.012,6.765,0,15.05c0.012,8.277,6.725,14.98,15,14.978c0.006,0,0.014,0,0.02,0L35.565,30
	c18.306,0,33.2,14.895,33.201,33.201v385.6c0,34.848,28.352,63.199,63.201,63.199c34.848,0,63.199-28.352,63.199-63.199V63.2
	c0-18.307,14.894-33.2,33.199-33.2c18.306,0,33.199,14.894,33.199,33.2v361.501c0,48.137,39.163,87.299,87.301,87.299
	c48.137,0,87.299-39.162,87.299-87.299v-88.367C436.164,328.049,429.448,321.334,421.164,321.334z"/>
<path style="fill:#91DC5A;" d="M421.164,321.334c-8.284,0-15,6.715-15,15v88.367c0,31.595-25.704,57.299-57.299,57.299
	c-31.596,0-57.301-25.704-57.301-57.299V63.2c0-34.849-28.351-63.2-63.199-63.2v30c18.306,0,33.199,14.894,33.199,33.2v361.501
	c0,48.137,39.163,87.299,87.301,87.299c48.137,0,87.299-39.162,87.299-87.299v-88.367
	C436.164,328.049,429.448,321.334,421.164,321.334z"/>
<path style="fill:#C7FDFF;" d="M373.419,0.004c-3.95,0-7.811,1.6-10.61,4.39c-2.79,2.79-4.39,6.66-4.39,10.61
	c0,3.949,1.6,7.81,4.39,10.6c2.8,2.8,6.66,4.4,10.61,4.4c3.95,0,7.81-1.601,10.61-4.4c2.79-2.79,4.39-6.66,4.39-10.6
	c0-3.95-1.6-7.82-4.39-10.61C381.229,1.604,377.369,0.004,373.419,0.004z"/>
<path style="fill:#8DF3F7;" d="M480.429,4.394c-2.79-2.79-6.66-4.39-10.609-4.39c-3.95,0-7.82,1.6-10.61,4.39
	c-2.79,2.79-4.39,6.66-4.39,10.61c0,3.939,1.6,7.81,4.39,10.6c2.8,2.79,6.66,4.4,10.61,4.4c3.949,0,7.81-1.61,10.609-4.4
	c2.79-2.79,4.391-6.66,4.391-10.6C484.819,11.054,483.219,7.184,480.429,4.394z"/>
<path style="fill:#C7FDFF;" d="M421.619,96.403c-3.95,0-7.811,1.601-10.61,4.39c-2.79,2.79-4.39,6.66-4.39,10.61
	s1.6,7.811,4.39,10.601c2.8,2.789,6.66,4.399,10.61,4.399s7.819-1.61,10.609-4.399c2.79-2.79,4.391-6.65,4.391-10.601
	c0-3.95-1.601-7.82-4.391-10.61C429.429,98.004,425.569,96.403,421.619,96.403z"/>
<g>
	<path style="fill:#8DF3F7;" d="M497,321.334h-13.521L472.706,206.4c-0.723-7.709-7.193-13.601-14.936-13.6l-72.301,0.002
		c-7.741,0.001-14.211,5.893-14.934,13.601L359.76,321.334h-14.433c-8.284,0-15,6.715-15,15c0,8.283,6.716,15,15,15h28.092h96.4H497
		c8.284,0,15-6.717,15-15C512,328.049,505.284,321.334,497,321.334z"/>
	<path style="fill:#8DF3F7;" d="M432.228,122.004c2.79-2.79,4.391-6.65,4.391-10.601c0-3.95-1.601-7.82-4.391-10.61
		c-2.8-2.789-6.659-4.39-10.609-4.39c-0.152,0-0.304,0.018-0.455,0.022v29.954c0.151,0.005,0.303,0.023,0.455,0.023
		C425.569,126.403,429.439,124.793,432.228,122.004z"/>
</g>
<path style="fill:#5AE1E6;" d="M497,321.334h-13.521L472.706,206.4c-0.723-7.709-7.193-13.601-14.936-13.6l-36.606,0.001v158.532
	h48.656H497c8.284,0,15-6.717,15-15C512,328.049,505.284,321.334,497,321.334z"/>
<g>
</g>
<g>
</g>
<g>
</g>
<g>
</g>
<g>
</g>
<g>
</g>
<g>
</g>
<g>
</g>
<g>
</g>
<g>
</g>
<g>
</g>
<g>
</g>
<g>
</g>
<g>
</g>
<g>
</g>
</svg>
