<?xml version="1.0" encoding="iso-8859-1"?>
<!-- Generator: Adobe Illustrator 19.0.0, SVG Export Plug-In . SVG Version: 6.00 Build 0)  -->
<svg xmlns="http://www.w3.org/2000/svg" xmlns:xlink="http://www.w3.org/1999/xlink" version="1.1" id="Layer_1" x="0px" y="0px" viewBox="0 0 512 512" style="enable-background:new 0 0 512 512;" xml:space="preserve" width="512px" height="512px">
<g>
	<g>
		<path d="M341.297,122.649c-2.328,1.867-31.953,26.992-31.203,53.367c0.219,19.258,13.906,31.609,31.203,31.977    c17.313-0.367,31.016-12.719,31.234-31.977C373.265,149.641,343.64,124.516,341.297,122.649z M351.188,175.578v0.18    c-0.047,3.922-1.406,10.492-9.891,10.898c-8.469-0.406-9.828-6.977-9.875-10.898v-0.18l-0.016-0.172    c-0.141-5.703,3.313-13.461,9.734-21.852c0.047-0.078,0.109-0.141,0.156-0.219c0.078,0.078,0.125,0.141,0.172,0.219    c6.438,8.391,9.891,16.149,9.72,21.852V175.578z" fill="#fc9703"/>
	</g>
</g>
<g>
	<g>
		<path d="M480,400H184h-35.422H74.625c-5.891,0-10.656-4.781-10.656-10.656c0-5.906,4.766-10.672,10.656-10.672h73.953H184h253.328    C478.578,378.672,512,345.25,512,304c0-41.242-33.422-74.672-74.672-74.672H117.344C87.891,229.328,64,205.445,64,175.984    c0-29.453,23.891-53.336,53.344-53.336h117.297c0,5.891,4.781,10.664,10.672,10.664s10.656-4.773,10.656-10.664H256v-2.133    l85.297-8.531V69.313L256,60.781v-2.133h-0.031c0-5.891-4.766-10.664-10.656-10.664s-10.672,4.773-10.672,10.664H117.344    C52.547,58.648,0,111.188,0,175.984c0,64.82,52.547,117.344,117.344,117.344h246.078h73.922c5.891,0,10.656,4.781,10.656,10.672    c0,5.906-4.766,10.672-10.656,10.672h-73.922H74.672C33.438,314.672,0,348.094,0,389.344c0,41.219,33.438,74.672,74.672,74.672    H480c17.672,0,32-14.328,32-32.016C512,414.344,497.672,400,480,400z M256,82.227l63.969,6.398v4.047L256,99.078V82.227z     M480,442.672H74.672c-29.406,0-53.344-23.922-53.344-53.328S45.266,336,74.672,336h288.75h73.922    c17.625,0,31.984-14.344,31.984-32c0-17.641-14.359-32-31.984-32h-73.922H117.344c-25.641,0-49.75-9.992-67.891-28.125    c-18.125-18.133-28.125-42.242-28.125-67.891c0-25.641,10-49.75,28.125-67.883c18.141-18.133,42.25-28.125,67.891-28.125h117.313    v21.344H117.344c-19.953,0-38.703,7.773-52.797,21.867c-14.109,14.102-21.891,32.852-21.891,52.797    c0,19.953,7.781,38.703,21.891,52.805c14.094,14.109,32.844,21.875,52.797,21.875h319.984c29.422,0,53.328,23.93,53.328,53.336    s-23.906,53.344-53.328,53.344H184h-35.422H74.625c-17.625,0-31.984,14.344-31.984,32c0,17.641,14.359,32,31.984,32h73.953H184    h296c5.891,0,10.656,4.781,10.656,10.656S485.891,442.672,480,442.672z" fill="#fc9703"/>
	</g>
</g>
<g>
</g>
<g>
</g>
<g>
</g>
<g>
</g>
<g>
</g>
<g>
</g>
<g>
</g>
<g>
</g>
<g>
</g>
<g>
</g>
<g>
</g>
<g>
</g>
<g>
</g>
<g>
</g>
<g>
</g>
</svg>
