<svg xmlns="http://www.w3.org/2000/svg" viewBox="0 0 404.09 500.41"><defs><style>.cls-1{fill:#fff;stroke:#95a5a5;stroke-miterlimit:10;stroke-width:3px;}.cls-2{fill:#f49a23;}.cls-3{fill:#35486d;}.cls-4{fill:#42607a;}.cls-5{fill:#f8be39;}</style></defs><title>fuel_tanksn_v_wp</title><g id="Layer_2" data-name="Layer 2"><g id="Layer_1-2" data-name="Layer 1"><path class="cls-1" d="M57.66,498.91c-28.52,0-51.73-22.15-51.73-49.37V155c0-20.07,12.56-38,32-45.64l85.53-33.67V50.87c0-27.22,23.21-49.37,51.73-49.37H350.86c28.53,0,51.73,22.15,51.73,49.37V449.54c0,27.22-23.2,49.37-51.73,49.37ZM279.3,74.76c20.31,0,51.22-9.86,55.42-25.92,1.54-7.35,2.8-16.57,2.18-18.37a6.52,6.52,0,0,0-6-3.82H186.14c-22.57,0-33.55,13.54-33.55,41.4v6.71Z"/><polygon class="cls-2" points="105.28 83.29 41.99 108.29 35.61 93.58 98.91 68.58 105.28 83.29"/><path class="cls-3" d="M112.88,63l-91.27,36L8.48,68.77a10.2,10.2,0,0,1,5.88-13.53L85.56,27.12a11,11,0,0,1,14.18,5.61Z"/><polygon class="cls-4" points="118.96 54.53 11.02 97.16 0 71.76 107.95 29.12 118.96 54.53"/><polygon class="cls-3" points="19.91 93.65 15.19 95.51 4.17 70.11 8.9 68.24 19.91 93.65"/><polygon class="cls-3" points="30.45 89.48 25.73 91.35 14.71 65.95 19.44 64.08 30.45 89.48"/><polygon class="cls-3" points="41 85.32 36.27 87.19 25.26 61.78 29.98 59.92 41 85.32"/><polygon class="cls-3" points="51.54 81.16 46.81 83.02 35.8 57.62 40.52 55.75 51.54 81.16"/><polygon class="cls-3" points="62.08 76.99 57.35 78.86 46.34 53.46 51.07 51.59 62.08 76.99"/><polygon class="cls-3" points="72.62 72.83 67.9 74.7 56.88 49.29 61.61 47.42 72.62 72.83"/><polygon class="cls-3" points="83.17 68.67 78.44 70.53 67.42 45.13 72.15 43.26 83.17 68.67"/><polygon class="cls-3" points="93.71 64.5 88.98 66.37 77.97 40.97 82.69 39.1 93.71 64.5"/><polygon class="cls-3" points="104.25 60.34 99.52 62.21 88.51 36.8 93.24 34.94 104.25 60.34"/><polygon class="cls-3" points="114.79 56.17 110.07 58.04 99.05 32.64 103.78 30.77 114.79 56.17"/><path class="cls-5" d="M126.39,78.22h0L39,112.56c-18.27,7.18-30.19,24.15-30.19,43V449.61c0,25.68,21.85,46.5,48.79,46.5h293.2c26.95,0,48.79-20.82,48.79-46.5V78.22m-120.35,0H149.65"/><path class="cls-1" d="M257.88,307.6V254.16c0-.33,0-.64-.05-1L364.14,119,364,119c-13.73-9.82-33.19-7.21-43.55,5.85l-78.77,99.3a39.84,39.84,0,0,0-22.67-7H191.57L63,134c-9.65,13.61-5.92,32.11,8.34,41.32l87.27,56.38a35.78,35.78,0,0,0-8,22.43V307.6c0,.55.06,1.09.09,1.63L49.26,443.06l1.27.8c13.9,8.72,32.47,5.5,42.29-7.32l75.1-98.12a39.93,39.93,0,0,0,21.56,6.26H216.7L355.16,445.4l1-1.41c9.33-13,6.38-30.68-6.7-40.32L249.75,330.2A35.79,35.79,0,0,0,257.88,307.6Zm-68.4,9a9.26,9.26,0,0,1-9.47-9V254.16a9.26,9.26,0,0,1,9.47-9H219a9.26,9.26,0,0,1,9.47,9V307.6a9.26,9.26,0,0,1-9.47,9Z"/></g></g></svg>