<?xml version="1.0" encoding="utf-8"?>
<!-- Generator: Adobe Illustrator 21.0.2, SVG Export Plug-In . SVG Version: 6.00 Build 0)  -->
<svg version="1.1" id="Layer_1" xmlns="http://www.w3.org/2000/svg" xmlns:xlink="http://www.w3.org/1999/xlink" x="0px" y="0px"
	 viewBox="0 0 490.9 490.9" style="enable-background:new 0 0 490.9 490.9;" xml:space="preserve">
<style type="text/css">
	.st0{fill:#D3D0CD;}
	.st1{fill:#BABABA;}
	.st2{fill:#36C9B4;}
	.st3{fill:#DDDCDB;}
	.st4{fill:#E56A05;}
	.st5{fill:#606060;}
	.st6{fill:#DADFE1;}
	.st7{fill:#FC880B;}
	.st8{fill:#FFFFFF;}
	.st9{fill:#F9AA0D;}
	.st10{font-family:'FontAwesome';}
	.st11{font-size:154.3819px;}
</style>
<path class="st0" d="M102.6,111.9c0,9.6-8,16.8-16.8,16.8l0,0c-9.6,0-16.8-8-16.8-16.8V58.3c0-9.6,8-16.8,16.8-16.8l0,0
	c9.6,0,16.8,8,16.8,16.8C102.6,58.3,102.6,111.9,102.6,111.9z"/>
<path class="st1" d="M85,40.7L85,40.7c9.6,0,16.8,8,16.8,16.8v54.4c0,9.6-8,16.8-16.8,16.8l0,0"/>
<path class="st2" d="M121.8,159.9c0,5.6-4.8,9.6-9.6,9.6H58.6c-5.6,0-9.6-4.8-9.6-9.6v-50.4c0-5.6,4.8-9.6,9.6-9.6h52.8
	c5.6,0,9.6,4.8,9.6,9.6v50.4H121.8z"/>
<g>
	<path class="st1" d="M99.4,57.5c0,0.8-0.8,1.6-1.6,1.6H72.2c-0.8,0-1.6-0.8-1.6-1.6l0,0c0-0.8,0.8-1.6,1.6-1.6h25.6
		C98.6,56.7,99.4,56.7,99.4,57.5L99.4,57.5z"/>
	<path class="st1" d="M99.4,67.1c0,0.8-0.8,1.6-1.6,1.6H72.2c-0.8,0-1.6-0.8-1.6-1.6l0,0c0-0.8,0.8-1.6,1.6-1.6h25.6
		C98.6,65.5,99.4,66.3,99.4,67.1L99.4,67.1z"/>
	<path class="st1" d="M99.4,75.9c0,0.8-0.8,1.6-1.6,1.6H72.2c-0.8,0-1.6-0.8-1.6-1.6l0,0c0-0.8,0.8-1.6,1.6-1.6h25.6
		C98.6,74.3,99.4,75.1,99.4,75.9L99.4,75.9z"/>
	<path class="st1" d="M99.4,84.7c0,0.8-0.8,1.6-1.6,1.6H72.2c-0.8,0-1.6-0.8-1.6-1.6l0,0c0-0.8,0.8-1.6,1.6-1.6h25.6
		C98.6,83.9,99.4,83.9,99.4,84.7L99.4,84.7z"/>
	<path class="st1" d="M99.4,93.5c0,0.8-0.8,1.6-1.6,1.6H72.2c-0.8,0-1.6-0.8-1.6-1.6l0,0c0-0.8,0.8-1.6,1.6-1.6h25.6
		C98.6,92.7,99.4,92.7,99.4,93.5L99.4,93.5z"/>
</g>
<ellipse transform="matrix(0.7799 -0.626 0.626 0.7799 -13.7734 59.5704)" class="st3" cx="77.8" cy="49.4" rx="6.4" ry="3.2"/>
<path class="st0" d="M423.4,111.9c0,9.6-8,16.8-16.8,16.8l0,0c-9.6,0-16.8-8-16.8-16.8V58.3c0-9.6,8-16.8,16.8-16.8l0,0
	c9.6,0,16.8,8,16.8,16.8V111.9z"/>
<path class="st1" d="M406.6,40.7L406.6,40.7c9.6,0,16.8,8,16.8,16.8v54.4c0,9.6-8,16.8-16.8,16.8l0,0"/>
<path class="st2" d="M442.6,159.9c0,5.6-4.8,9.6-9.6,9.6h-52.8c-5.6,0-9.6-4.8-9.6-9.6v-50.4c0-5.6,4.8-9.6,9.6-9.6H433
	c5.6,0,9.6,4.8,9.6,9.6V159.9z"/>
<g>
	<path class="st1" d="M421,57.5c0,0.8-0.8,1.6-1.6,1.6h-25.6c-0.8,0-1.6-0.8-1.6-1.6l0,0c0-0.8,0.8-1.6,1.6-1.6h25.6
		C420.2,56.7,421,56.7,421,57.5L421,57.5z"/>
	<path class="st1" d="M421,67.1c0,0.8-0.8,1.6-1.6,1.6h-25.6c-0.8,0-1.6-0.8-1.6-1.6l0,0c0-0.8,0.8-1.6,1.6-1.6h25.6
		C420.2,65.5,421,66.3,421,67.1L421,67.1z"/>
	<path class="st1" d="M421,75.9c0,0.8-0.8,1.6-1.6,1.6h-25.6c-0.8,0-1.6-0.8-1.6-1.6l0,0c0-0.8,0.8-1.6,1.6-1.6h25.6
		C420.2,74.3,421,75.1,421,75.9L421,75.9z"/>
	<path class="st1" d="M421,84.7c0,0.8-0.8,1.6-1.6,1.6h-25.6c-0.8,0-1.6-0.8-1.6-1.6l0,0c0-0.8,0.8-1.6,1.6-1.6h25.6
		C420.2,83.9,421,83.9,421,84.7L421,84.7z"/>
	<path class="st1" d="M421,93.5c0,0.8-0.8,1.6-1.6,1.6h-25.6c-0.8,0-1.6-0.8-1.6-1.6l0,0c0-0.8,0.8-1.6,1.6-1.6h25.6
		C420.2,92.7,421,92.7,421,93.5L421,93.5z"/>
</g>
<ellipse transform="matrix(0.7799 -0.626 0.626 0.7799 56.6889 260.5226)" class="st3" cx="398.7" cy="49.7" rx="6.4" ry="3.2"/>
<path class="st4" d="M477.8,432.7c0,9.6-8,17.6-17.6,17.6H31.4c-9.6,0-17.6-8-17.6-17.6V155.9c0-9.6,8-17.6,17.6-17.6H461
	c9.6,0,17.6,8,17.6,17.6v276.8H477.8z"/>
<g>
	
		<rect x="6.3" y="241.2" transform="matrix(0.7071 -0.7071 0.7071 0.7071 -175.0066 90.2967)" class="st5" width="30.4" height="30.4"/>
	
		<rect x="454.2" y="241.4" transform="matrix(0.7071 -0.7071 0.7071 0.7071 -43.9477 407.0853)" class="st5" width="30.4" height="30.4"/>
</g>
<path class="st6" d="M477.8,419.1c0,9.6-8,17.6-17.6,17.6H31.4c-9.6,0-17.6-7.2-17.6-17.6V142.3c0-9.6,8-17.6,17.6-17.6H461
	c9.6,0,17.6,8,17.6,17.6v276.8H477.8z"/>
<rect x="1" y="165" class="st7" width="489.6" height="90.9"/>
<g>
	<rect x="51.4" y="187.9" class="st8" width="19.2" height="44"/>
	<rect x="39.4" y="200.7" class="st8" width="44" height="19.2"/>
	<rect x="408.2" y="200.7" class="st8" width="44" height="19.2"/>
</g>
<path class="st4" d="M397.8,416.7L397.8,416.7"/>
<path class="st4" d="M405.8,408.7"/>
<path class="st4" d="M405.8,279.1"/>
<path class="st4" d="M397.8,271.1L397.8,271.1"/>
<path class="st9" d="M465,131.9c0,2.4-2.4,4.8-4.8,4.8H31.4c-2.4,0-4.8-2.4-4.8-4.8l0,0c0-2.4,2.4-4.8,4.8-4.8h428.8
	C462.6,127.1,465,128.7,465,131.9L465,131.9z"/>
<text transform="matrix(0.9927 0 0 1 215.374 394.8574)" class="st7 st10 st11"></text>
</svg>
