<svg xmlns="http://www.w3.org/2000/svg" xmlns:xlink="http://www.w3.org/1999/xlink" viewBox="0 0 250.57 478.95"><defs><style>.cls-1,.cls-18,.cls-22,.cls-27{fill:#bcbcbc;}.cls-2{fill:url(#linear-gradient);}.cls-3{fill:url(#linear-gradient-2);}.cls-4{fill:url(#linear-gradient-3);}.cls-5{fill:#2c3e50;}.cls-6{fill:url(#linear-gradient-4);}.cls-7{fill:#5a4b43;}.cls-8{fill:#cfcfce;}.cls-9{fill:#c6c6c5;}.cls-10{fill:#d7d6d6;}.cls-11{fill:#595a5a;}.cls-12{fill:#9e9e9e;}.cls-13{fill:url(#linear-gradient-5);}.cls-14{fill:url(#linear-gradient-6);}.cls-15{fill:url(#linear-gradient-7);}.cls-16{fill:#fdb515;}.cls-17,.cls-21,.cls-25,.cls-26{fill:#f5ab34;stroke:#ec9531;}.cls-17,.cls-18,.cls-21,.cls-22,.cls-25,.cls-26,.cls-27{stroke-miterlimit:10;}.cls-17{stroke-width:0.88px;}.cls-18,.cls-22,.cls-27{stroke:#95a5a5;}.cls-19{fill:url(#linear-gradient-8);}.cls-20{fill:url(#linear-gradient-9);}.cls-21{stroke-width:0.8px;}.cls-22{stroke-width:0.95px;}.cls-23{fill:url(#linear-gradient-10);}.cls-24{fill:url(#linear-gradient-11);}.cls-25{stroke-width:0.75px;}.cls-26{stroke-width:0.89px;}.cls-27{stroke-width:1.01px;}</style><linearGradient id="linear-gradient" x1="74.53" y1="15.04" x2="181.41" y2="15.04" gradientUnits="userSpaceOnUse"><stop offset="0" stop-color="#373c3a"/><stop offset="1" stop-color="#1b1c1c"/></linearGradient><linearGradient id="linear-gradient-2" x1="49.72" y1="203.92" x2="206.23" y2="203.92" gradientUnits="userSpaceOnUse"><stop offset="0" stop-color="#010101"/><stop offset="1" stop-color="#1b1c1c"/></linearGradient><linearGradient id="linear-gradient-3" x1="37.36" y1="128.45" x2="218.58" y2="128.45" xlink:href="#linear-gradient-2"/><linearGradient id="linear-gradient-4" x1="44.26" y1="407.72" x2="211.69" y2="407.72" xlink:href="#linear-gradient-2"/><linearGradient id="linear-gradient-5" x1="93.57" y1="477.19" x2="162.3" y2="477.19" xlink:href="#linear-gradient"/><linearGradient id="linear-gradient-6" x1="70.01" y1="195.77" x2="115.72" y2="265.86" xlink:href="#linear-gradient"/><linearGradient id="linear-gradient-7" x1="76.66" y1="205.97" x2="117.12" y2="268.01" gradientUnits="userSpaceOnUse"><stop offset="0" stop-color="#1b1c1c"/><stop offset="1" stop-color="#373c3a"/></linearGradient><linearGradient id="linear-gradient-8" x1="21.87" y1="187.93" x2="38.1" y2="223.57" gradientTransform="matrix(1, -0.01, 0.01, 1, 3.02, -38.03)" xlink:href="#linear-gradient"/><linearGradient id="linear-gradient-9" x1="-5.03" y1="198" x2="20.53" y2="198" gradientTransform="matrix(1, -0.01, 0.01, 1, 3.02, -38.03)" xlink:href="#linear-gradient"/><linearGradient id="linear-gradient-10" x1="222.64" y1="157.23" x2="241.25" y2="193.27" gradientTransform="matrix(0.91, 0.01, -0.01, 0.96, 18.48, -7.93)" xlink:href="#linear-gradient"/><linearGradient id="linear-gradient-11" x1="230.05" y1="171.24" x2="255.6" y2="171.24" gradientTransform="matrix(0.91, 0.01, -0.01, 0.96, 18.48, -7.93)" xlink:href="#linear-gradient"/></defs><title>car-doorssn_v_wp</title><g id="Layer_2" data-name="Layer 2"><g id="Layer_1-2" data-name="Layer 1"><path class="cls-1" d="M238.81,77c-2.54-21.14-6.6-32.06-13.82-40.84a11.42,11.42,0,0,1-8.93-1.84L190,16A11.56,11.56,0,0,1,185.21,8c-1.23-.42-2.51-.82-3.8-1.2V30.07H74.53V6.84c-1.29.38-2.56.78-3.79,1.2A11.55,11.55,0,0,1,65.94,16L39.89,34.32A11.41,11.41,0,0,1,31,36.16C23.74,44.95,19.69,55.87,17.14,77c-3.44,28.59-3.51,49.87-1.4,73.38,0,0,3.78,42.14,5.79,92,4.41,109.34-13.15,153,5.48,210,1.51,4.62,5.28,8.43,10.49,11.59a10,10,0,0,1,4.13-.81c9.29,0,13.81,5.82,24.09,4.15,6.78-1.1,9.08,4.29,9.86,8.09,6.09.92,12.2,1.6,18,2.11a5.28,5.28,0,0,1,4.24-2.11h60.24a5.28,5.28,0,0,1,4.25,2.11c4.33-.37,8.84-.85,13.38-1.45.65-3.8,2.81-9.92,10-8.75,10.27,1.67,14.8-4.15,24.09-4.15a8.71,8.71,0,0,1,6.23,2.2c6.5-3.4,11.21-7.65,12.95-13,8-24.33,7-94.6,5.48-210C234.14,220.76,245.54,132.91,238.81,77Z"/><path class="cls-2" d="M181.41,30.07V6.84C150.93-2.28,105-2.28,74.53,6.84V30.07Z"/><path class="cls-3" d="M85.47,196.49a148.68,148.68,0,0,0-35.74,9.2l1.4,7.68s14.11-7,36.17-10.09c19-2.69,62.31-2.69,81.36,0,22.06,3.12,36.17,10.09,36.17,10.09l1.4-7.68a148.6,148.6,0,0,0-35.74-9.2C150.58,193.8,105.37,193.8,85.47,196.49Z"/><path class="cls-4" d="M44.15,138.75A201.45,201.45,0,0,1,82.42,127c27.37-5.73,63.73-5.73,91.1,0a201.29,201.29,0,0,1,38.27,11.78c3.07,1.28,5,2.33,6,3.39l0-.24s1.3-5.55.46-7c-.72-1.29-2.81-2.51-6.51-4.05A201.25,201.25,0,0,0,173.52,119c-27.37-5.72-63.73-5.72-91.1,0a201.41,201.41,0,0,0-38.27,11.78c-3.7,1.54-5.78,2.76-6.51,4.05-.83,1.49.46,7,.46,7l0,.24C39.14,141.08,41.09,140,44.15,138.75Z"/><path class="cls-5" d="M85.47,196.49c19.9-2.69,65.11-2.69,85,0a148.6,148.6,0,0,1,35.74,9.2l11.57-63.54c-1-1.06-2.94-2.12-6-3.39A201.29,201.29,0,0,0,173.52,127c-27.37-5.73-63.73-5.73-91.1,0a201.45,201.45,0,0,0-38.27,11.78c-3.06,1.28-5,2.33-6,3.39l11.57,63.54A148.68,148.68,0,0,1,85.47,196.49Z"/><path class="cls-6" d="M207.8,380.1c-.65-2.75-1.4-5.52-2.27-8.27,0,0-1.12.5-3.38,1.3-8.31,2.91-32.19,9.7-74.17,9.7-38.46,0-65.08-7.06-74.13-9.87-2.24-.69-3.42-1.13-3.42-1.13-.84,2.66-1.57,5.33-2.21,8C42,406,45,430.9,45,430.9a218.48,218.48,0,0,0,41,10.49c18.57,3,65.31,3,83.88,0a218.4,218.4,0,0,0,41-10.49S214,406.13,207.8,380.1Zm-2.64,44.16A192.25,192.25,0,0,1,167,434.75c-17.28,3-60.74,3-78,0a192.25,192.25,0,0,1-38.18-10.49,177.34,177.34,0,0,1,1.53-43.45c14.17,3.26,40.53,7.89,75.65,7.89,37.71,0,62.47-4.31,75.71-7.54A177.18,177.18,0,0,1,205.16,424.26Z"/><path class="cls-5" d="M52.33,380.81a177.34,177.34,0,0,0-1.53,43.45A192.25,192.25,0,0,0,89,434.75c17.27,3,60.74,3,78,0a192.25,192.25,0,0,0,38.18-10.49,177.18,177.18,0,0,0-1.47-43.1c-13.24,3.22-38,7.54-75.71,7.54C92.86,388.7,66.5,384.06,52.33,380.81Z"/><path class="cls-7" d="M65.72,467.35c-10.28,1.67-14.8-4.15-24.09-4.15a10,10,0,0,0-4.13.81c9.45,5.71,23.68,9.24,38.08,11.43C74.8,471.64,72.5,466.25,65.72,467.35Z"/><path class="cls-7" d="M185.68,467.35c-7.19-1.17-9.34,5-10,8.75,14.75-1.95,29.85-5.22,40.32-10.71a8.71,8.71,0,0,0-6.23-2.2C200.47,463.2,196,469,185.68,467.35Z"/><path class="cls-8" d="M55.55,114.74s17.63-30.94,20-42.44c1.84-8.79-1-35.9-1-35.9s-1.9,25.84-3.79,34.25C68.18,82,55.55,114.74,55.55,114.74Z"/><path class="cls-8" d="M200.59,114.74S183,83.8,180.56,72.31c-1.84-8.79,1-35.9,1-35.9s1.91,25.84,3.79,34.25C188,82,200.59,114.74,200.59,114.74Z"/><path class="cls-8" d="M223.14,127.16s-28.89-40.75-32.83-55.89C187.31,59.7,192,24,192,24s3.12,34,6.22,45.11C202.44,84.08,223.14,127.16,223.14,127.16Z"/><path class="cls-8" d="M32.81,127.16S61.7,86.41,65.64,71.27C68.64,59.7,63.92,24,63.92,24S60.8,58,57.71,69.09C53.51,84.08,32.81,127.16,32.81,127.16Z"/><path class="cls-9" d="M128,208.32c-55.8-1.22-74.53,8.54-74.53,8.54s.68,130.07,4.94,143c2.89,8.76,38,12.64,60.37,14.23h18.43c22.33-1.59,57.49-5.47,60.37-14.23,4.26-12.92,4.94-143,4.94-143S183.77,207.1,128,208.32Z"/><path class="cls-10" d="M65.87,20.14S32.28,36.46,28.7,72.73c-3.65,37.06-3.11,55.72-3.11,55.72S37.1,39.81,65.87,20.14Z"/><path class="cls-10" d="M190.27,20.14s33.6,16.32,37.17,52.59c3.65,37.06,3.11,55.72,3.11,55.72S219,39.81,190.27,20.14Z"/><path class="cls-11" d="M20.62,331.5a2.28,2.28,0,0,0-2.32,2.23V352.2a2.28,2.28,0,0,0,2.32,2.23Z"/><path class="cls-11" d="M234.17,239.07a2.27,2.27,0,0,1,2.32,2.23v18.47a2.28,2.28,0,0,1-2.32,2.23Z"/><path class="cls-11" d="M235.32,331.5a2.28,2.28,0,0,1,2.32,2.23V352.2a2.28,2.28,0,0,1-2.32,2.23Z"/><path class="cls-12" d="M77.53,108c3.73-.29,5.59-2.32,9.32-2.6a.57.57,0,0,0,.55-.54.51.51,0,0,0-.55-.51c-3.72.28-5.59,2.31-9.32,2.59a.57.57,0,0,0-.55.55A.51.51,0,0,0,77.53,108Z"/><path class="cls-12" d="M86.85,106.51c-3.73.28-5.59,2.31-9.31,2.59a.57.57,0,0,0-.55.55.51.51,0,0,0,.55.51c3.73-.28,5.59-2.31,9.32-2.6a.57.57,0,0,0,.55-.55A.51.51,0,0,0,86.85,106.51Z"/><path class="cls-12" d="M86.85,108.62c-3.73.28-5.59,2.31-9.32,2.59a.57.57,0,0,0-.55.55.51.51,0,0,0,.55.51c3.73-.28,5.59-2.31,9.32-2.59a.58.58,0,0,0,.55-.55A.51.51,0,0,0,86.85,108.62Z"/><path class="cls-12" d="M178.33,108c-3.73-.29-5.59-2.32-9.32-2.6a.57.57,0,0,1-.55-.54.51.51,0,0,1,.55-.51c3.73.28,5.59,2.31,9.32,2.59a.57.57,0,0,1,.55.55A.51.51,0,0,1,178.33,108Z"/><path class="cls-12" d="M169,106.51c3.73.28,5.59,2.31,9.31,2.59a.57.57,0,0,1,.55.55.51.51,0,0,1-.55.51c-3.73-.28-5.59-2.31-9.31-2.6a.57.57,0,0,1-.55-.55A.51.51,0,0,1,169,106.51Z"/><path class="cls-12" d="M169,108.62c3.72.28,5.59,2.31,9.31,2.59a.57.57,0,0,1,.55.55.51.51,0,0,1-.55.51c-3.73-.28-5.59-2.31-9.32-2.59a.58.58,0,0,1-.55-.55A.51.51,0,0,1,169,108.62Z"/><path class="cls-13" d="M158.05,475.44H97.81a5.28,5.28,0,0,0-4.24,2.11c18.9,1.64,34.4,1.39,34.4,1.39s15.46.26,34.33-1.38A5.28,5.28,0,0,0,158.05,475.44Z"/><path class="cls-14" d="M181.2,304.63c0,6.44-8.77,11.65-19.58,11.65H94.25c-10.82,0-19.58-5.22-19.58-11.65V264.55c0-6.44,8.77-11.65,19.58-11.65h67.36c10.82,0,19.58,5.22,19.58,11.65Z"/><path class="cls-15" d="M176.07,301.91c0,5.56-7.92,10.07-17.7,10.07H97.5c-9.78,0-17.7-4.51-17.7-10.07V267.27c0-5.56,7.92-10.07,17.7-10.07h60.87c9.78,0,17.7,4.51,17.7,10.07Z"/><path class="cls-16" d="M31,36.16a11.41,11.41,0,0,0,8.93-1.84l4.05-2.85-1.42-6.4A81.37,81.37,0,0,0,31,36.16Z"/><path class="cls-10" d="M42.52,25.07l1.42,6.4L65.94,16A11.55,11.55,0,0,0,70.74,8C63.31,10.56,57,13.67,52.22,17.38,48.65,20.17,45.43,22.68,42.52,25.07Z"/><path class="cls-16" d="M212.94,24.67l-.54,7.08,3.66,2.58A11.42,11.42,0,0,0,225,36.16,83.08,83.08,0,0,0,212.94,24.67Z"/><path class="cls-10" d="M203.73,17.38C199,13.67,192.64,10.56,185.21,8A11.56,11.56,0,0,0,190,16L212.4,31.74l.54-7.08C210.16,22.4,207.1,20,203.73,17.38Z"/><path class="cls-1" d="M1.88,149.43"/><path class="cls-17" d="M29.85,147.12,31,145.84a2.68,2.68,0,0,1,.68-.44c1.46-.91,1.54.58,1.7,1.81L43.13,213v0l2.18,65c0,.1-.06.17-.13.14L29,270.93a3.4,3.4,0,0,1-1.64-3.05L24,162.09c0-.09,0-.46,0-.45l-.1-3.47s0,0,0,0h0c.17-.28-.24.14,0,0l-.21-4.57h0l4.21-1.87c.05,0,.07-.1.06-.17C27.85,150.66,29.43,147.58,29.85,147.12Z"/><g id="door4"><path class="cls-18" d="M25.29,145.33,27,144a4.49,4.49,0,0,1,1-.47c2.18-1,4.56-1.59,4.81-.31l13.08,70.43v0l4,67.56a.15.15,0,0,1-.19.15l-24.32-7.28a3.49,3.49,0,0,1-2.49-3.15L16.61,161c0-.09.06-.48,0-.46l-.18-3.6s0,0,0,0h0c.25-.29-.35.15,0,0L16,152.18h0l6.3-2a.15.15,0,0,0,.09-.18C22.33,149,24.67,145.82,25.29,145.33Z"/><path class="cls-5" d="M35.12,277l14.08,4.44a.56.56,0,0,0,.73-.56l-3.24-64.82a.56.56,0,0,0,0-.08L32.32,143.06a.56.56,0,0,0-1.11.08c-.22,7.57-.43,23.5.67,43.77,1,18.09,3.48,43,3.61,59,.11,14.85-.34,25.05-.75,30.49A.55.55,0,0,0,35.12,277Z"/><path class="cls-19" d="M31.22,143s-9.25,1.75-9.39,8.93,9.49,21.64,9.61,12.43S32.09,145.75,31.22,143Z"/><path class="cls-10" d="M20.2,150.8S2.72,156.23.82,158.73a4.62,4.62,0,0,0-.51,4.34l25-7.66C25,152.85,23.78,149.63,20.2,150.8Z"/><path class="cls-20" d="M.31,163.06a6.93,6.93,0,0,0,.56,1.29l24.64-6.16a16.48,16.48,0,0,0-.18-2.79Z"/></g><path class="cls-21" d="M221.85,149.88l-9.24,69.37a.91.91,0,0,0,0,.1l-1,56.18c0,.43.28.75.56.61l8.74-4.17,7.28-3.74a.66.66,0,0,0,.29-.59l.3-43,1.53-40.73.3-7.9a.89.89,0,0,0,0-.29l-8.34-28.49C222.09,146.69,221.93,149.27,221.85,149.88Z"/><g id="door1"><g id="d1"><path class="cls-22" d="M221.52,143.78,207,219.37a.73.73,0,0,0,0,.11l-2,61.31a.65.65,0,0,0,.83.68l13.1-4.43,10.93-4a.68.68,0,0,0,.44-.64l.9-46.9,2.71-44.43.53-8.62a.73.73,0,0,0-.05-.32l-12.17-31.22C221.92,140.31,221.65,143.12,221.52,143.78Z"/><path class="cls-5" d="M219.12,276.31l-14,4.72,2.23-61.6,14.79-78.5s1,19.52-.45,47.47c-.9,17.67-3.19,42-3.31,57.69C218.3,261,218.64,271.25,219.12,276.31Z"/></g><path class="cls-23" d="M222.27,141.66s7.95,1.66,8.07,8.53-8.16,20.71-8.26,11.9S221.52,144.29,222.27,141.66Z"/><path class="cls-10" d="M249.82,157c-1.73-2.39-17.72-7.56-17.72-7.56-3.15-1.08-4.26,1.74-4.65,4.13l22.92,7.26A4.44,4.44,0,0,0,249.82,157Z"/><path class="cls-24" d="M227.45,153.54a16.69,16.69,0,0,0-.21,2.93l22.52,5.87a7.24,7.24,0,0,0,.6-1.54Z"/></g><path class="cls-11" d="M21.33,237.13a2.28,2.28,0,0,0-2.23,2.32l.75,18.45A2.28,2.28,0,0,0,22.25,260Z"/><path class="cls-25" d="M29.6,289.58l16.78,3.06L47.63,338l-2.79,9.74-8,16.73L35,367.17l-8,4.34L24.92,293.1C24.86,290.85,27.14,289.13,29.6,289.58Z"/><g id="door3"><path class="cls-18" d="M25.82,284.1,49.27,287a.74.74,0,0,1,.65.71l1.76,54.17a.74.74,0,0,1,0,.26l-3.83,11.61a.74.74,0,0,1-.06.13L36.57,374l-.06.09-2.36,3.06a.74.74,0,0,1-.27.22l-10,4.67a.74.74,0,0,1-1.05-.69L25,284.82A.74.74,0,0,1,25.82,284.1Z"/><path class="cls-5" d="M33.72,285.17l15.13,1.93a.75.75,0,0,1,.66.73l1.76,54.28h0c0,.09-1.41,6.9-7.26,18.08C37.86,372,34.35,376,33.81,376.54a0,0,0,0,1-.08,0c-.07-3-1.74-71.14-.06-91.31A0,0,0,0,1,33.72,285.17Z"/></g><path class="cls-5" d="M206.93,290.94"/><polygon class="cls-26" points="209.48 289.16 231.47 280.51 230.88 371.84 221.81 364.99 206.88 337.02 209.48 289.16"/><g id="door2"><path class="cls-27" d="M205.93,286.43l26.46-6.82a.47.47,0,0,1,.65.44l-.64,105a.47.47,0,0,1-.76.37l-9.49-7.35a.47.47,0,0,1-.13-.16l-16.9-32.46a.47.47,0,0,1-.05-.24l.57-58.37A.47.47,0,0,1,205.93,286.43Z"/><path class="cls-5" d="M223.2,282.36,206,286.9l-.08,3.08L205.43,345h0s2.43,4.65,8.31,15.9c6.72,12.83,8.75,16.75,8.75,16.75s2.43-73.43.69-94Z"/></g></g></g></svg>