<svg xmlns="http://www.w3.org/2000/svg" viewBox="0 0 512 329.76"><defs><style>.cls-1{fill:#ffcb0c;}.cls-2{fill:#f15b2a;}.cls-3{fill:#a4a4a5;}.cls-4{fill:#586e7f;}.cls-5{fill:#36495c;}</style></defs><title>engine-bskp</title><g id="Layer_2" data-name="Layer 2"><g id="Layer_1-2" data-name="Layer 1"><path class="cls-1" d="M512,329.76H488.37a17.93,17.93,0,0,1-16-9.91l-21.08-42.16H416.54l-26,52.07h-243l-34.71-52.07H43.39V138.85h69.43v-9.41a25.3,25.3,0,0,1,25.3-25.3h209v34.71h43.39l26,43.39h34.71l23.45-70.35a11.34,11.34,0,0,1,10.76-7.76H512Z"/><path class="cls-1" d="M43.39,208.27H8.68a8.68,8.68,0,0,1,0-17.36H43.39a8.68,8.68,0,0,1,0,17.36"/><path class="cls-1" d="M8.68,243A8.67,8.67,0,0,1,0,234.3V164.88a8.68,8.68,0,0,1,17.36,0v69.42A8.67,8.67,0,0,1,8.68,243"/><polygon class="cls-2" points="156.2 52.07 312.4 52.07 312.4 0 156.2 0 156.2 52.07"/><polygon class="cls-2" points="190.91 104.14 277.69 104.14 277.69 52.07 190.91 52.07 190.91 104.14"/><polygon class="cls-2" points="43.38 277.69 112.81 277.69 112.81 138.85 43.38 138.85 43.38 277.69"/><polygon class="cls-2" points="416.54 277.69 451.25 277.69 451.25 182.24 416.54 182.24 416.54 277.69"/><path class="cls-3" d="M167.34,260.59a3.37,3.37,0,0,1-2.5-.62,3.32,3.32,0,0,1-.69-4.67l72.34-96.59a3.38,3.38,0,0,1,4.71-.7,3.32,3.32,0,0,1,.69,4.67l-72.34,96.59a3.37,3.37,0,0,1-2.21,1.32"/><path class="cls-3" d="M347,291.43a3.35,3.35,0,0,1-3.82-2.81L325.58,169.73a3.37,3.37,0,0,1,6.66-1L349.8,287.64a3.35,3.35,0,0,1-2.84,3.79"/><path class="cls-3" d="M329.91,314.2a3.06,3.06,0,0,1-.49,0L190,314.58a3.34,3.34,0,1,1,0-6.67l139.44-.35a3.34,3.34,0,0,1,.49,6.64"/><path class="cls-4" d="M332.24,168.75A50.49,50.49,0,1,1,275,126.58a50.28,50.28,0,0,1,57.26,42.16"/><path class="cls-5" d="M276.93,139.79a36.72,36.72,0,1,0,42,30.92,36.87,36.87,0,0,0-42-30.92"/><path class="cls-4" d="M349.8,287.64A23.56,23.56,0,1,1,323.08,268a23.47,23.47,0,0,1,26.72,19.68"/><path class="cls-5" d="M327,294.38a3.34,3.34,0,1,1,2.84-3.79,3.35,3.35,0,0,1-2.84,3.79"/><path class="cls-4" d="M279.37,156.31a3.34,3.34,0,1,1,2.84-3.79,3.35,3.35,0,0,1-2.84,3.79"/><path class="cls-4" d="M286.2,202.54a3.34,3.34,0,1,1,2.84-3.79,3.35,3.35,0,0,1-2.84,3.79"/><path class="cls-4" d="M180.71,248.5a33.38,33.38,0,1,0,38.17,28.11,33.52,33.52,0,0,0-38.17-28.11"/><path class="cls-4" d="M302.28,173.17a3.37,3.37,0,1,1,3.82,2.81,3.35,3.35,0,0,1-3.82-2.81"/><path class="cls-4" d="M255.66,180.06a3.37,3.37,0,1,1,3.82,2.81,3.35,3.35,0,0,1-3.82-2.81"/><path class="cls-4" d="M266.54,161.58a3.37,3.37,0,1,1-3.82-2.81,3.35,3.35,0,0,1,3.82,2.81"/><path class="cls-4" d="M304.72,189.69a3.37,3.37,0,1,1-3.82-2.81,3.35,3.35,0,0,1,3.82,2.81"/><path class="cls-4" d="M293.18,157.64a3.37,3.37,0,1,1,3.82,2.81,3.35,3.35,0,0,1-3.82-2.81"/><path class="cls-4" d="M268.58,198.4a3.34,3.34,0,1,1,2.84-3.79,3.35,3.35,0,0,1-2.84,3.79"/><path class="cls-4" d="M283.76,186a10,10,0,1,1,8.53-11.38A10.06,10.06,0,0,1,283.76,186"/><path class="cls-5" d="M187.54,294.73a13.35,13.35,0,1,1,11.37-15.18,13.41,13.41,0,0,1-11.37,15.18"/></g></g></svg>