<svg xmlns="http://www.w3.org/2000/svg" viewBox="0 0 503.94 432.55"><defs><style>.cls-1{fill:#ffcb0c;}.cls-2{fill:#a4a4a5;}.cls-3{fill:#f15b2a;}</style></defs><title>wiper-bskp</title><g id="Layer_2" data-name="Layer 2"><g id="Layer_1-2" data-name="Layer 1"><path class="cls-1" d="M373.66,31.51,357.9,0,345.27,25.26c-7.15,14.3-14.4,28.73-24.19,41.37a33.25,33.25,0,0,0-7.21,18.65c-1.54,21.45,13.57,41.81,34.63,46.15A44.18,44.18,0,0,0,402,88.28a33.63,33.63,0,0,0-5.41-18.41c-8-12.63-16.3-25-23-38.36"/><path class="cls-2" d="M416.32,71.87q-10.65-2.5-21.38-4.67l-.06.1a34.37,34.37,0,0,1,7.16,21,44.18,44.18,0,0,1-53.54,43.16c-20.8-4.29-35.71-24-34.68-45.21a33.32,33.32,0,0,1,7.27-19.6c2.42-3.12,4.67-6.35,6.82-9.66A726.81,726.81,0,0,0,87.62,71.87L19.44,90.67a26.5,26.5,0,0,0-19,30.41L48.94,379.63a603.71,603.71,0,0,1,406.07,0l48.48-258.55a26.5,26.5,0,0,0-19-30.41Z"/><path class="cls-3" d="M278.45,406.06A26.48,26.48,0,1,1,252,379.58a26.48,26.48,0,0,1,26.48,26.48"/><path class="cls-3" d="M243.58,389.77a8.84,8.84,0,0,1-8.4-6.13L155.29,135.1a8.83,8.83,0,0,1,16.81-5.39L252,378.24a8.82,8.82,0,0,1-5.7,11.11,9,9,0,0,1-2.7.42"/></g></g></svg>