<?xml version="1.0" encoding="iso-8859-1"?>
<!-- Generator: Adobe Illustrator 16.0.0, SVG Export Plug-In . SVG Version: 6.00 Build 0)  -->
<!DOCTYPE svg PUBLIC "-//W3C//DTD SVG 1.1//EN" "http://www.w3.org/Graphics/SVG/1.1/DTD/svg11.dtd">
<svg xmlns="http://www.w3.org/2000/svg" xmlns:xlink="http://www.w3.org/1999/xlink" version="1.1" id="Capa_1" x="0px" y="0px" width="512px" height="512px" viewBox="0 0 79.536 79.536" style="enable-background:new 0 0 79.536 79.536;" xml:space="preserve">
<g>
	<path d="M6.703,37.536l-4.391,4.453L0,38.983l7.063-6.442h3.593v25.614H6.703V37.536z M15.68,55.618   c0-0.776,0.259-1.439,0.774-1.988c0.521-0.549,1.139-0.828,1.867-0.828c0.704,0,1.315,0.279,1.846,0.797   c0.528,0.523,0.795,1.182,0.795,1.947c0,0.771-0.262,1.439-0.774,1.988c-0.52,0.555-1.142,0.839-1.867,0.839   c-0.35,0-0.694-0.077-1.002-0.217c-0.323-0.146-0.605-0.342-0.854-0.58c-0.238-0.249-0.435-0.539-0.567-0.87   C15.755,56.379,15.68,56.001,15.68,55.618z M25.971,51.6l12.963-13.761c0.373-0.415,0.769-0.85,1.184-1.315   c0.403-0.466,0.773-0.966,1.107-1.466c0.324-0.533,0.601-1.063,0.818-1.641c0.218-0.554,0.329-1.158,0.329-1.776   c0-0.759-0.124-1.435-0.404-2.012c-0.254-0.588-0.605-1.093-1.051-1.499c-0.436-0.415-0.953-0.738-1.53-0.966   c-0.585-0.212-1.204-0.329-1.867-0.329c-1.411,0-2.568,0.445-3.479,1.352c-0.921,0.886-1.458,2.1-1.659,3.612l-5.935-0.521   c0.125-1.685,0.5-3.187,1.108-4.479c0.611-1.279,1.411-2.356,2.377-3.226c0.986-0.846,2.11-1.509,3.41-1.955   c1.276-0.445,2.677-0.673,4.178-0.673c1.51,0,2.921,0.217,4.226,0.639c1.305,0.435,2.444,1.077,3.407,1.911   c1,0.847,1.75,1.924,2.325,3.229c0.554,1.315,0.834,2.838,0.834,4.599c0,2.312-0.477,4.3-1.435,5.965   c-0.958,1.686-2.19,3.28-3.702,4.792L32.858,52.574h15.455v5.592H25.971V51.6z M53.345,55.618c0-0.776,0.26-1.439,0.777-1.988   c0.508-0.549,1.139-0.828,1.854-0.828s1.326,0.279,1.869,0.797c0.528,0.523,0.771,1.182,0.771,1.947   c0,0.771-0.248,1.439-0.766,1.988c-0.519,0.555-1.14,0.829-1.875,0.829c-0.342,0-0.699-0.078-0.999-0.218   c-0.326-0.135-0.601-0.331-0.85-0.569c-0.238-0.249-0.435-0.539-0.564-0.87C53.418,56.379,53.345,56.001,53.345,55.618z    M69.449,42.849h1.025c0.569,0,1.118-0.031,1.657-0.114c0.533-0.072,1.01-0.228,1.434-0.477c0.436-0.225,0.771-0.582,1.041-1.038   c0.265-0.461,0.383-1.066,0.383-1.849c0-0.989-0.311-1.794-0.921-2.423c-0.611-0.632-1.409-0.94-2.403-0.94   c-0.771,0-1.501,0.249-2.107,0.749c-0.626,0.497-1.082,1.194-1.361,2.084l-4.194-1.23c0.27-0.945,0.642-1.761,1.118-2.467   c0.487-0.694,1.057-1.261,1.72-1.706c0.662-0.456,1.388-0.774,2.175-0.997c0.781-0.218,1.615-0.329,2.475-0.329   c1,0,1.968,0.143,2.869,0.436c0.911,0.295,1.683,0.72,2.382,1.281c0.684,0.567,1.212,1.274,1.626,2.133   c0.414,0.857,0.61,1.854,0.61,2.98c0,1.377-0.352,2.597-1.056,3.674c-0.704,1.062-1.678,1.781-2.932,2.098v0.093   c1.477,0.238,2.631,0.942,3.397,2.103c0.767,1.139,1.149,2.527,1.149,4.121c0,1.232-0.207,2.32-0.643,3.252   c-0.424,0.943-1.004,1.72-1.729,2.361c-0.726,0.643-1.564,1.119-2.517,1.445c-0.964,0.326-1.958,0.502-2.993,0.502   c-0.963,0-1.875-0.113-2.744-0.331c-0.85-0.228-1.626-0.591-2.32-1.077c-0.709-0.477-1.284-1.098-1.817-1.864   c-0.492-0.756-0.875-1.667-1.145-2.734l4.226-1.222c0.243,1.066,0.668,1.874,1.289,2.465c0.605,0.564,1.445,0.87,2.512,0.87   c0.528,0,1.02-0.114,1.496-0.306c0.481-0.191,0.891-0.467,1.253-0.803c0.357-0.353,0.647-0.777,0.854-1.264   c0.207-0.497,0.316-1.046,0.316-1.656c0-0.809-0.15-1.481-0.477-2.01c-0.326-0.518-0.73-0.911-1.217-1.191   c-0.497-0.279-1.046-0.466-1.657-0.559c-0.611-0.094-1.212-0.135-1.822-0.135h-0.953V42.849L69.449,42.849z" fill="#fc9703"/>
</g>
<g>
</g>
<g>
</g>
<g>
</g>
<g>
</g>
<g>
</g>
<g>
</g>
<g>
</g>
<g>
</g>
<g>
</g>
<g>
</g>
<g>
</g>
<g>
</g>
<g>
</g>
<g>
</g>
<g>
</g>
</svg>
