<?xml version="1.0" encoding="iso-8859-1"?>
<!-- Generator: Adobe Illustrator 19.0.0, SVG Export Plug-In . SVG Version: 6.00 Build 0)  -->
<svg version="1.1" id="Capa_1" xmlns="http://www.w3.org/2000/svg" xmlns:xlink="http://www.w3.org/1999/xlink" x="0px" y="0px"
	 viewBox="0 0 512 512" style="enable-background:new 0 0 512 512;" xml:space="preserve">
<g>
	<rect x="225.67" y="258.67" style="fill:#FF8220;" width="15" height="35.833"/>
	<rect x="271.33" y="258.67" style="fill:#FF8220;" width="15" height="35.833"/>
</g>
<g>
	<rect x="31.2" y="149.47" style="fill:#2D5872;" width="15" height="27.17"/>
	<rect x="465.8" y="149.47" style="fill:#2D5872;" width="15" height="27.17"/>
</g>
<path style="fill:#FFB124;" d="M292.162,350.495h-72.324c-3.592,0-6.505-2.912-6.505-6.505v-48.324c0-3.592,2.912-6.505,6.505-6.505
	h72.324c3.592,0,6.505,2.912,6.505,6.505v48.324C298.667,347.583,295.754,350.495,292.162,350.495z"/>
<path style="fill:#FF901E;" d="M292.162,289.161H256v61.333h36.162c3.593,0,6.505-2.912,6.505-6.505v-48.324
	C298.667,292.074,295.754,289.161,292.162,289.161z"/>
<circle style="fill:#FFFCFD;" cx="256" cy="319.83" r="13.5"/>
<path style="fill:#2D5872;" d="M290.582,263.171h-69.163c-7.963,0-14.418-6.455-14.418-14.418v-14.937h98v14.937
	C305,256.716,298.545,263.171,290.582,263.171z"/>
<path style="fill:#1D4859;" d="M266.957,263.171h23.625c7.852,0,14.224-6.279,14.402-14.088L305,233.878l-38.004-0.062
	L266.957,263.171z"/>
<path style="fill:#AF8A83;" d="M486.098,174.15h-55.771l-121.835-40.403c-4.521-1.499-9.254-2.264-14.017-2.264h-76.951
	c-4.763,0-9.496,0.764-14.017,2.264L81.673,174.15H25.902c-7.971,0-14.433,6.462-14.433,14.433v11.226
	c0,9.947,8.063,18.01,18.01,18.01h126.296c6.809,0,12.926,4.165,15.422,10.5l0,0c2.496,6.335,8.612,10.5,15.422,10.5h138.763
	c6.809,0,12.926-4.165,15.422-10.5l0,0c2.496-6.335,8.612-10.5,15.422-10.5h126.296c9.947,0,18.01-8.063,18.01-18.01v-11.226
	C500.531,180.611,494.069,174.15,486.098,174.15z"/>
<path style="fill:#927167;" d="M486.098,174.15h-23.633v43.669h20.056c9.947,0,18.01-8.063,18.01-18.01v-11.226
	C500.531,180.611,494.069,174.15,486.098,174.15z"/>
<g>
	<path style="fill:#55A2EF;" d="M130.891,380.517h-6.406c-5.264,0-9.531-4.267-9.531-9.531V217.819h28.752l-9.505,159.579
		C134.097,379.15,132.645,380.517,130.891,380.517z"/>
	<path style="fill:#55A2EF;" d="M381.109,380.517h6.406c5.264,0,9.531-4.267,9.531-9.531V217.819h-28.752l9.505,159.579
		C377.904,379.15,379.355,380.517,381.109,380.517z"/>
</g>
<g>
	<path style="fill:#FF4C4C;" d="M66.907,154.108H10.5c-5.799,0-10.5-4.701-10.5-10.5l0,0c0-5.799,4.701-10.5,10.5-10.5h56.407
		c5.799,0,10.5,4.701,10.5,10.5l0,0C77.407,149.407,72.706,154.108,66.907,154.108z"/>
	<path style="fill:#FF4C4C;" d="M501.5,154.108h-56.407c-5.799,0-10.5-4.701-10.5-10.5l0,0c0-5.799,4.701-10.5,10.5-10.5H501.5
		c5.799,0,10.5,4.701,10.5,10.5l0,0C512,149.407,507.299,154.108,501.5,154.108z"/>
</g>
<g>
	<path style="fill:#775146;" d="M333.96,178.489c-2.387-3.239-6.95-3.929-10.189-1.544c-3.24,2.388-3.931,6.95-1.544,10.189
		l9.068,12.305c1.429,1.938,3.636,2.965,5.872,2.965c1.501,0,3.016-0.463,4.317-1.421c3.24-2.388,3.931-6.95,1.544-10.189
		L333.96,178.489z"/>
	<path style="fill:#775146;" d="M358.488,178.489c-2.387-3.239-6.947-3.929-10.189-1.544c-3.239,2.387-3.931,6.949-1.544,10.189
		l9.067,12.305c1.429,1.938,3.636,2.965,5.872,2.965c1.501,0,3.015-0.463,4.317-1.421c3.239-2.387,3.931-6.949,1.544-10.189
		L358.488,178.489z"/>
	<path style="fill:#775146;" d="M307.742,178.489c-2.388-3.239-6.95-3.929-10.189-1.544c-3.24,2.388-3.931,6.95-1.544,10.189
		l9.068,12.305c1.429,1.938,3.636,2.965,5.872,2.965c1.501,0,3.016-0.463,4.317-1.421c3.24-2.388,3.931-6.95,1.544-10.189
		L307.742,178.489z"/>
	<path style="fill:#775146;" d="M188.229,176.945c-3.238-2.385-7.8-1.695-10.189,1.544l-9.068,12.306
		c-2.387,3.239-1.696,7.801,1.544,10.189c1.301,0.958,2.816,1.421,4.317,1.421c2.236,0,4.443-1.027,5.872-2.965l9.068-12.305
		C192.159,183.895,191.469,179.333,188.229,176.945z"/>
	<path style="fill:#775146;" d="M163.701,176.945c-3.24-2.385-7.801-1.695-10.189,1.544l-9.067,12.306
		c-2.387,3.24-1.695,7.802,1.544,10.189c1.302,0.958,2.816,1.421,4.317,1.421c2.236,0,4.443-1.027,5.872-2.965l9.067-12.305
		C167.632,183.894,166.94,179.332,163.701,176.945z"/>
	<path style="fill:#775146;" d="M214.447,176.945c-3.238-2.385-7.801-1.695-10.189,1.544l-9.068,12.306
		c-2.387,3.239-1.696,7.801,1.544,10.189c1.301,0.958,2.816,1.421,4.317,1.421c2.236,0,4.443-1.027,5.872-2.965l9.068-12.305
		C218.378,183.895,217.687,179.333,214.447,176.945z"/>
</g>
<g>
</g>
<g>
</g>
<g>
</g>
<g>
</g>
<g>
</g>
<g>
</g>
<g>
</g>
<g>
</g>
<g>
</g>
<g>
</g>
<g>
</g>
<g>
</g>
<g>
</g>
<g>
</g>
<g>
</g>
</svg>
