<?xml version="1.0" encoding="utf-8"?>
<!-- Generator: Adobe Illustrator 21.0.2, SVG Export Plug-In . SVG Version: 6.00 Build 0)  -->
<svg version="1.1" id="Layer_1" xmlns="http://www.w3.org/2000/svg" xmlns:xlink="http://www.w3.org/1999/xlink" x="0px" y="0px"
	 viewBox="0 0 512 512" style="enable-background:new 0 0 512 512;" xml:space="preserve">
<style type="text/css">
	.st0{fill:#FFDEB3;}
	.st1{fill:#FF9F19;}
	.st2{fill:#EE8700;}
	.st3{fill:#997B57;}
	.st4{fill:#FFFFFF;}
	.st5{font-family:'MyriadPro-Regular';}
	.st6{font-size:25.9245px;}
</style>
<path class="st0" d="M435.3,421.9c26.8-106,26.8-226,0.1-332c16.6-21.9,23-48.2,20.8-74.2c-0.7-8.1-7.1-14.6-15.3-15.3
	c-27.6-2.3-55.2,5.2-77.8,23.4c-72.2-11.2-144.7-10.6-214.3,0C126.2,5.5,98.9-1.9,71.1,0.4c-8.1,0.7-14.6,7.1-15.3,15.3
	c-2.2,26,4.4,52.5,20.8,74.2c-26.6,106-26.6,226,0.1,332c-16.4,21.6-23.2,47.2-21,74.4c0.7,8.1,7.1,14.6,15.3,15.3
	c28.4,2.4,55.5-5.2,78.6-24c66.7,10.2,139.4,11,212.7,0c22.3,18.4,50.8,26.6,78.6,24c8.1-0.7,14.6-7.1,15.3-15.3
	C458.5,469.4,451.6,443.2,435.3,421.9z"/>
<g>
	<path class="st1" d="M283,277.4c-0.7,6-3.6,11.7-8.3,16.1c-5.6,5.1-13.5,7.7-18,7.7c-1.4,0-2.7-0.5-3.7-1.4c-1.1-1-1.7-2.5-1.5-4
		c0.7-5.9,3.6-11.6,8.3-16c4.7-4.4,11-7,17.4-7.7c1.6-0.2,3.2,0.4,4.3,1.4C282.6,274.5,283.1,275.9,283,277.4z"/>
	<path class="st2" d="M283,277.4c-0.7,6-3.6,11.7-8.3,16.1c-5.6,5.1-13.5,7.7-18,7.7c-1.4,0-2.7-0.5-3.7-1.4l28.5-26.2
		C282.6,274.5,283.1,275.9,283,277.4z"/>
</g>
<path class="st3" d="M337.6,109.5H170.4c-12.3,0-22.3-10-22.3-22.3l0,0c0-12.3,10-22.3,22.3-22.3h167.2c12.3,0,22.3,10,22.3,22.3
	l0,0C359.9,99.5,349.9,109.5,337.6,109.5z"/>
<g>
	<path class="st1" d="M257.4,247.3c-4.1,4.4-9.8,7.4-16.1,8.2c-7.5,0.9-15.4-1.6-19.1-4.3c-1.1-0.8-1.9-2-2.2-3.3
		c-0.3-1.5,0.1-3,1.1-4.1c4-4.3,9.7-7.3,16.1-8.1c6.4-0.8,13,0.7,18.6,4c1.4,0.8,2.4,2.2,2.7,3.7
		C258.7,244.7,258.4,246.2,257.4,247.3z"/>
	<path class="st2" d="M257.4,247.3c-4.1,4.4-9.8,7.4-16.1,8.2c-7.5,0.9-15.4-1.6-19.1-4.3c-1.1-0.8-1.9-2-2.2-3.3l38.5-4.6
		C258.7,244.7,258.4,246.2,257.4,247.3z"/>
</g>
<g>
	<path class="st1" d="M208.3,203.8c-5,3.3-11.3,4.7-17.7,3.9c-7.5-1-14.5-5.4-17.4-8.9c-0.9-1.1-1.4-2.4-1.3-3.8
		c0.1-1.5,0.9-2.9,2.1-3.7c5-3.2,11.2-4.7,17.6-3.9c6.4,0.8,12.4,4,17,8.5c1.2,1.1,1.8,2.7,1.7,4.2
		C210.3,201.6,209.6,203,208.3,203.8z"/>
	<path class="st2" d="M208.3,203.8c-5,3.3-11.3,4.7-17.7,3.9c-7.5-1-14.5-5.4-17.4-8.9c-0.9-1.1-1.4-2.4-1.3-3.8l38.4,5.1
		C210.3,201.6,209.6,203,208.3,203.8z"/>
</g>
<g>
	<path class="st1" d="M204.4,248.7c-3.4,5-8.7,8.7-14.8,10.4c-7.3,1.9-15.5,0.5-19.5-1.5c-1.2-0.6-2.2-1.7-2.6-3
		c-0.5-1.4-0.3-3,0.5-4.2c3.4-4.9,8.5-8.6,14.8-10.3c6.2-1.7,13-1.1,19,1.3c1.5,0.6,2.7,1.8,3.2,3.2
		C205.4,246,205.3,247.5,204.4,248.7z"/>
	<path class="st2" d="M204.4,248.7c-3.4,5-8.7,8.7-14.8,10.4c-7.3,1.9-15.5,0.5-19.5-1.5c-1.2-0.6-2.2-1.7-2.6-3l37.5-10
		C205.4,246,205.3,247.5,204.4,248.7z"/>
</g>
<g>
	<path class="st1" d="M248.6,180.6c5.4,2.6,9.9,7.2,12.5,13.1c3,6.9,2.9,15.2,1.4,19.5c-0.4,1.3-1.4,2.4-2.6,3.1
		c-1.3,0.7-2.9,0.8-4.3,0.1c-5.3-2.6-9.8-7.1-12.4-13c-2.6-5.9-3.1-12.7-1.6-19c0.4-1.6,1.4-2.9,2.7-3.6
		C245.7,180.1,247.3,180,248.6,180.6z"/>
	<path class="st2" d="M248.6,180.6c5.4,2.6,9.9,7.2,12.5,13.1c3,6.9,2.9,15.2,1.4,19.5c-0.4,1.3-1.4,2.4-2.6,3.1l-15.6-35.5
		C245.7,180.1,247.3,180,248.6,180.6z"/>
</g>
<g>
	<path class="st1" d="M340,297.4c-0.7,6-3.6,11.7-8.3,16.1c-5.6,5.1-13.5,7.7-18,7.7c-1.4,0-2.7-0.5-3.7-1.4c-1.1-1-1.7-2.5-1.5-4
		c0.7-5.9,3.6-11.6,8.3-16c4.7-4.4,11-7,17.4-7.7c1.6-0.2,3.2,0.4,4.3,1.4C339.6,294.5,340.1,295.9,340,297.4z"/>
	<path class="st2" d="M340,297.4c-0.7,6-3.6,11.7-8.3,16.1c-5.6,5.1-13.5,7.7-18,7.7c-1.4,0-2.7-0.5-3.7-1.4l28.5-26.2
		C339.6,294.5,340.1,295.9,340,297.4z"/>
</g>
<text transform="matrix(1.1515 0 0 1 187.001 95.6992)" class="st4 st5 st6">FERTILIZER</text>
<g>
	<path class="st1" d="M313.1,248.4c-6,0.9-12.3-0.5-17.7-3.9c-6.4-4.1-10.9-11-12.1-15.4c-0.4-1.3-0.2-2.8,0.4-4
		c0.7-1.4,2-2.3,3.5-2.5c5.9-0.8,12.1,0.4,17.6,3.9c5.5,3.4,9.6,8.8,11.9,14.8c0.6,1.5,0.5,3.2-0.2,4.5
		C315.9,247.3,314.6,248.2,313.1,248.4z"/>
	<path class="st2" d="M313.1,248.4c-6,0.9-12.3-0.5-17.7-3.9c-6.4-4.1-10.9-11-12.1-15.4c-0.4-1.3-0.2-2.8,0.4-4l32.7,20.7
		C315.9,247.3,314.6,248.2,313.1,248.4z"/>
</g>
<g>
	<path class="st1" d="M222.2,291.6c4.1,4.4,6.7,10.3,7,16.7c0.3,7.6-2.7,15.3-5.6,18.7c-0.9,1.1-2.2,1.8-3.5,2c-1.5,0.2-3-0.3-4-1.4
		c-4.1-4.3-6.6-10.1-7-16.6c-0.4-6.4,1.7-13,5.3-18.3c0.9-1.3,2.3-2.2,3.8-2.4S221.2,290.5,222.2,291.6z"/>
	<path class="st2" d="M222.2,291.6c4.1,4.4,6.7,10.3,7,16.7c0.3,7.6-2.7,15.3-5.6,18.7c-0.9,1.1-2.2,1.8-3.5,2l-1.9-38.7
		C219.8,290,221.2,290.5,222.2,291.6z"/>
</g>
<g>
	<path class="st1" d="M320.1,184.8c-0.7,6-3.6,11.7-8.3,16.1c-5.6,5.1-13.5,7.7-18,7.7c-1.4,0-2.7-0.5-3.7-1.4c-1.1-1-1.7-2.5-1.5-4
		c0.7-5.9,3.6-11.6,8.3-16c4.7-4.4,11-7,17.4-7.7c1.6-0.2,3.2,0.4,4.3,1.4C319.7,181.9,320.3,183.4,320.1,184.8z"/>
	<path class="st2" d="M320.1,184.8c-0.7,6-3.6,11.7-8.3,16.1c-5.6,5.1-13.5,7.7-18,7.7c-1.4,0-2.7-0.5-3.7-1.4l28.5-26.2
		C319.7,181.9,320.3,183.4,320.1,184.8z"/>
</g>
<g>
	<path class="st1" d="M288.5,339.8c-4.1,4.4-9.8,7.4-16.1,8.2c-7.5,0.9-15.4-1.6-19.1-4.3c-1.1-0.8-1.9-2-2.2-3.3
		c-0.3-1.5,0.1-3,1.1-4.1c4-4.3,9.7-7.3,16.1-8.1c6.4-0.8,13,0.7,18.6,4c1.4,0.8,2.4,2.2,2.7,3.7
		C289.9,337.2,289.5,338.7,288.5,339.8z"/>
	<path class="st2" d="M288.5,339.8c-4.1,4.4-9.8,7.4-16.1,8.2c-7.5,0.9-15.4-1.6-19.1-4.3c-1.1-0.8-1.9-2-2.2-3.3l38.5-4.6
		C289.9,337.2,289.5,338.7,288.5,339.8z"/>
</g>
<g>
	<path class="st1" d="M196.3,298.9c-6,0.9-12.3-0.5-17.7-3.9c-6.4-4.1-10.9-11-12.1-15.4c-0.4-1.3-0.2-2.8,0.4-4
		c0.7-1.4,2-2.3,3.5-2.5c5.9-0.8,12.1,0.4,17.6,3.9c5.5,3.4,9.6,8.8,11.9,14.8c0.6,1.5,0.5,3.2-0.2,4.5
		C199,297.7,197.7,298.6,196.3,298.9z"/>
	<path class="st2" d="M196.3,298.9c-6,0.9-12.3-0.5-17.7-3.9c-6.4-4.1-10.9-11-12.1-15.4c-0.4-1.3-0.2-2.8,0.4-4l32.7,20.7
		C199,297.7,197.7,298.6,196.3,298.9z"/>
</g>
<g>
	<path class="st1" d="M334,262.4c-0.7,6-3.6,11.7-8.3,16.1c-5.6,5.1-13.5,7.7-18,7.7c-1.4,0-2.7-0.5-3.7-1.4c-1.1-1-1.7-2.5-1.5-4
		c0.7-5.9,3.6-11.6,8.3-16c4.7-4.4,11-7,17.4-7.7c1.6-0.2,3.2,0.4,4.3,1.4C333.6,259.5,334.1,260.9,334,262.4z"/>
	<path class="st2" d="M334,262.4c-0.7,6-3.6,11.7-8.3,16.1c-5.6,5.1-13.5,7.7-18,7.7c-1.4,0-2.7-0.5-3.7-1.4l28.5-26.2
		C333.6,259.5,334.1,260.9,334,262.4z"/>
</g>
</svg>
