<svg xmlns="http://www.w3.org/2000/svg" viewBox="0 0 467.52 487.93"><defs><style>.cls-1{fill:none;stroke:#231f20;stroke-miterlimit:10;stroke-width:14.53px;}.cls-2{fill:#721213;}.cls-3{fill:#424143;}.cls-4{fill:#231f20;}.cls-5{fill:#bf2328;}.cls-6{fill:#fff;}.cls-7{fill:#faac19;}</style></defs><title>fire-alarm-bskp</title><g id="Layer_2" data-name="Layer 2"><g id="Layer_1-2" data-name="Layer 1"><path class="cls-1" d="M40.67,209c36.42,93,97.72,125.65,148.71,139.85"/><rect class="cls-2" x="182.09" y="312.61" width="121.55" height="54.82"/><path class="cls-3" d="M378.75,437.2a50.86,50.86,0,0,1-51,50.74H162.06a50.86,50.86,0,0,1-51-50.74v-37.6c0-28-7.17-50.74,21-50.74H350.77c28.16,0,28,22.71,28,50.74Z"/><path class="cls-4" d="M66.76,187.27A33.38,33.38,0,1,1,33.38,154,33.29,33.29,0,0,1,66.76,187.27Z"/><g id="bell-top"><path class="cls-5" d="M416.38,169.14c0,93.42-76.09,169.13-170,169.13S76.47,262.56,76.47,169.14,152.56,0,246.42,0,416.38,75.73,416.38,169.14Z"/><path class="cls-2" d="M289.17,169.14a42.75,42.75,0,1,1-42.74-42.54A42.65,42.65,0,0,1,289.17,169.14Z"/><path class="cls-4" d="M261.85,169.14a15.43,15.43,0,1,1-15.42-15.36A15.38,15.38,0,0,1,261.85,169.14Z"/><path class="cls-6" d="M104.8,170.94h-.51a10.27,10.27,0,0,1-9.93-10.64c4.29-86.48,79.36-119.46,82.55-120.82a10.56,10.56,0,0,1,13.76,5.23,10.06,10.06,0,0,1-5.35,13.38c-2.78,1.2-66.45,29.59-70.1,103.19A10.32,10.32,0,0,1,104.8,170.94Z"/><ellipse class="cls-6" cx="106.94" cy="195.41" rx="9.72" ry="9.46"/><path class="cls-5" d="M105.32,22.26a2.82,2.82,0,0,1-.84,2.88A204.74,204.74,0,0,0,72.72,63.22a190.71,190.71,0,0,0-21,43.65,3.34,3.34,0,0,1-3.9,2.09,2.7,2.7,0,0,1-2.06-3.49,196.7,196.7,0,0,1,21.6-45,211.11,211.11,0,0,1,32.74-39.25,3.31,3.31,0,0,1,4.41-.15A2.64,2.64,0,0,1,105.32,22.26Z"/><path class="cls-5" d="M89.59,5.61a3.32,3.32,0,0,1-1,3.38A237.34,237.34,0,0,0,51.95,53.58a222.9,222.9,0,0,0-24.11,51.15,3.84,3.84,0,0,1-4.52,2.45,3.19,3.19,0,0,1-2.41-4.1A229.91,229.91,0,0,1,45.76,50.35a244.73,244.73,0,0,1,37.82-46,3.81,3.81,0,0,1,5.12-.17A3.12,3.12,0,0,1,89.59,5.61Z"/><path class="cls-5" d="M375.8,317.81a2.82,2.82,0,0,1,1.1-2.8A204.74,204.74,0,0,0,412,280a190.71,190.71,0,0,0,24.87-41.55,3.34,3.34,0,0,1,4.07-1.73,2.7,2.7,0,0,1,1.73,3.67,196.7,196.7,0,0,1-25.64,42.83,211.11,211.11,0,0,1-36.2,36.08,3.31,3.31,0,0,1-4.4-.25A2.64,2.64,0,0,1,375.8,317.81Z"/><path class="cls-5" d="M389.94,335.83a3.32,3.32,0,0,1,1.26-3.28,237.34,237.34,0,0,0,40.62-41,222.9,222.9,0,0,0,28.69-48.72,3.84,3.84,0,0,1,4.72-2,3.19,3.19,0,0,1,2,4.3,229.91,229.91,0,0,1-29.58,50.23,244.73,244.73,0,0,1-41.87,42.3,3.81,3.81,0,0,1-5.11-.3A3.12,3.12,0,0,1,389.94,335.83Z"/></g><path class="cls-6" d="M355,432c0,21.75-15.52,39.39-34.68,39.39H167.72C148.56,471.38,133,453.74,133,432V402.8c0-21.78-1.48-39.42,17.69-39.42H339.36C358.51,363.38,355,381,355,402.8Z"/><path class="cls-7" d="M280,417a1.13,1.13,0,0,0-1.14.57,30,30,0,0,1-8.06,8.94,20.76,20.76,0,0,0-.26-10.39c-1.36-5-4.39-9.52-5.59-14.63-.26-1.1-2.24-1.17-2.45,0-1.11,6.28-6.59,13.35-12.53,17.39,2-4.7,4.39-9.23,5-14.35.56-4.51-1.78-8.94-3.19-13.15-2.45-7.34-4.68-14.74-6.9-22.15a1.29,1.29,0,0,0-2.49.32c-1.08,8.56-7,13.66-12.9,19.78a30.5,30.5,0,0,0-9,19,44.07,44.07,0,0,0,.37,11.34c.3,1.8,4.12,11.64-1,7.82-3.72-2.8-5.1-7.48-8.57-10.39a1.32,1.32,0,0,0-2.12.52c-.09.22-.16.46-.24.69,2.06,9.29,3.81,20.4,9.35,28.41,4.72,6.83,12.73,11,20.13,14.26-4.15-8.77-7.94-18.67-5.87-28.33a81.27,81.27,0,0,1,4.18-13.09c4.26,7.52,8.12,17.21,5.42,25.33a1.22,1.22,0,0,0,1.22,1.51c6.9-.55,12.15-5.85,15.61-11.35a32.91,32.91,0,0,1-.07,11.58c-1.22,5.88-6.66,9.64-10,14.35a1.14,1.14,0,0,0-.13.24C268.66,456.63,278.07,435.48,280,417Z"/></g></g></svg>