<svg xmlns="http://www.w3.org/2000/svg" viewBox="0 0 409.52 409.53"><defs><style>.cls-1{fill:#f15b2a;}</style></defs><title>flight-bskp</title><g id="Layer_2" data-name="Layer 2"><g id="Layer_1-2" data-name="Layer 1"><path class="cls-1" d="M0,272c4.27-4.69,8.08-10,13-13.83,2.79-2.18,7.47-3,11.19-2.77,15.69,1,31.33,2.65,47,4.09,9.82.9,19.63,1.92,29.46,2.68a5.3,5.3,0,0,0,4-1.57c23.39-30,48.6-58.4,74.67-86.06.27-.28.46-.64,2-2.29-1.58-1-3.53-1.62-4.69-3-16.87-19.33-37.12-33.89-60-45.56-23.83-12.16-46.84-25.9-70.21-39C36.9,79.46,36,72.79,43.75,65c4.43-4.44,9-8.71,13.25-13.33,5-5.53,10.81-6.55,17.75-4.39C89.1,51.79,103.55,56,117.92,60.4c2.43.75,4.13.66,5.94-1.39,2.91-3.29,6.11-6.33,9.3-9.36,5-4.76,11-4.76,16.06,0,2.24,2.1,4.25,4.43,6.54,6.46,5.13,4.55,6.74,9.75,3.29,16,5.66,3.24,6,3.2,10.2-1,3-3,6-6.09,9.06-9,5.16-5,11.08-5,16.35-.12,1.86,1.72,3.6,3.57,5.38,5.36,7.33,7.35,7.75,9.44,3.63,18.79,13.63,4.11,27.36,7.84,40.78,12.47,5.75,2,8.91.54,12.89-3.6C275.15,76.31,293,57.81,311.53,39.92,325.18,26.71,340.7,15.7,358.3,8.27c8.14-3.43,16.92-5.4,25.48-7.78a24.66,24.66,0,0,1,7.16-.44c11.71.32,18.26,6.74,18.57,18.49.29,11.31-3.24,21.78-7.73,32A161.4,161.4,0,0,1,369.71,98c-18.83,19.42-38.42,38.11-57.79,57-2.08,2-2.66,3.64-1.76,6.54,4.61,14.72,8.92,29.54,13.47,44.78,7.69-5.69,13.58-2.63,18.92,3.39,1.77,2,3.83,3.72,5.6,5.71,4.3,4.84,4.26,10.73-.18,15.46-3,3.21-6.19,6.25-9.3,9.36-4.28,4.28-4.28,4.28-1.27,10.35,6.4-3.59,11.69-1.77,16.3,3.45,1.76,2,3.77,3.77,5.64,5.67,5.53,5.66,5.59,11.61.13,17.23-2.88,3-5.72,6-8.8,8.73-2,1.76-2.31,3.4-1.53,5.91,4.4,14.24,8.47,28.59,13,42.79,2.36,7.43,1.21,13.45-4.73,18.74-4.77,4.25-9.09,9-13.64,13.51-6.81,6.72-13.78,5.75-18.48-2.64q-27.81-49.68-55.61-99.36a38.34,38.34,0,0,0-6-7.92c-8.94-9.14-18.07-18.11-27.34-27.36-1,.79-1.89,1.48-2.72,2.27-27.11,25.49-54.93,50.15-84.27,73.07a5.67,5.67,0,0,0-1.92,4.22c2.12,24.56,4.28,49.12,6.77,73.65.76,7.47-.6,13.71-6.54,18.63-1.74,1.44-3.17,3.24-4.84,4.77-6.36,5.81-13.45,4.54-17.26-3.22-4.11-8.36-8-16.82-12-25.24q-6.69-14.07-13.4-28.12a23.08,23.08,0,0,0-2.4-4.13c-2.58-3.35-5.09-5.75-10.28-3.94-3.46,1.21-8,.8-11.64-.33-6.89-2.16-9.48-8.87-7.91-17.9.38-2.18,1.87-5.16,1-6.38a23.28,23.28,0,0,0-8.07-6.88c-14.55-7.21-29.29-14-44-21-2.28-1.08-4.53-2.28-6.87-3.22-4.15-1.67-7.66-4-10-8Z"/></g></g></svg>