<?xml version="1.0" encoding="iso-8859-1"?>
<!-- Generator: Adobe Illustrator 19.0.0, SVG Export Plug-In . SVG Version: 6.00 Build 0)  -->
<svg version="1.1" id="Layer_1" xmlns="http://www.w3.org/2000/svg" xmlns:xlink="http://www.w3.org/1999/xlink" x="0px" y="0px"
	 viewBox="0 0 512 512" style="enable-background:new 0 0 512 512;" xml:space="preserve">
<g>
	<path style="fill:#ECF0F1;" d="M494.345,512H17.655C7.91,512,0,504.09,0,494.345V70.621h512v423.724
		C512,504.09,504.09,512,494.345,512"/>
	<path style="fill:#35495E;" d="M512,70.621H0V17.655C0,7.91,7.91,0,17.655,0h476.69C504.09,0,512,7.91,512,17.655V70.621z"/>
	<path style="fill:#E64C3C;" d="M44.138,35.31c0,4.882-3.955,8.828-8.828,8.828s-8.828-3.946-8.828-8.828s3.955-8.828,8.828-8.828
		S44.138,30.429,44.138,35.31"/>
	<path style="fill:#F0C419;" d="M79.448,35.31c0,4.882-3.955,8.828-8.828,8.828s-8.828-3.946-8.828-8.828s3.955-8.828,8.828-8.828
		S79.448,30.429,79.448,35.31"/>
	<path style="fill:#24AE5F;" d="M114.759,35.31c0,4.882-3.955,8.828-8.828,8.828c-4.873,0-8.828-3.946-8.828-8.828
		s3.955-8.828,8.828-8.828C110.804,26.483,114.759,30.429,114.759,35.31"/>
	<polygon style="fill:#F0C419;" points="44.138,238.345 167.724,238.345 167.724,114.759 44.138,114.759 	"/>
	<polygon style="fill:#E64C3C;" points="150.069,476.69 361.931,476.69 361.931,317.793 150.069,317.793 	"/>
	<g>
		<path style="fill:#FFFFFF;" d="M211.871,441.379c-2.684,0-5.332-1.218-7.071-3.531l-26.483-35.31
			c-2.357-3.143-2.357-7.45,0-10.593l26.483-35.31c2.922-3.902,8.457-4.679,12.359-1.766c3.902,2.922,4.687,8.457,1.766,12.359
			l-22.51,30.014l22.51,30.014c2.922,3.902,2.136,9.437-1.766,12.359C215.57,440.806,213.707,441.379,211.871,441.379"/>
		<path style="fill:#FFFFFF;" d="M300.129,441.379c-1.836,0-3.699-0.574-5.288-1.766c-3.902-2.922-4.687-8.457-1.766-12.359
			l22.51-30.014l-22.51-30.014c-2.922-3.902-2.136-9.437,1.766-12.359c3.919-2.913,9.445-2.136,12.359,1.766l26.483,35.31
			c2.357,3.143,2.357,7.45,0,10.593l-26.483,35.31C305.461,440.161,302.813,441.379,300.129,441.379"/>
		<path style="fill:#FFFFFF;" d="M238.34,450.207c-1.095,0-2.198-0.194-3.275-0.627c-4.529-1.81-6.727-6.947-4.917-11.476
			l35.31-88.276c1.81-4.537,6.93-6.753,11.476-4.926c4.529,1.81,6.727,6.947,4.917,11.476l-35.31,88.276
			C245.155,448.115,241.845,450.207,238.34,450.207"/>
	</g>
	<path style="fill:#FF5364;" d="M467.862,132.414H238.345c-4.873,0-8.828-3.946-8.828-8.828s3.955-8.828,8.828-8.828h229.517
		c4.882,0,8.828,3.946,8.828,8.828S472.744,132.414,467.862,132.414"/>
	<path style="fill:#0096E6;" d="M467.862,185.379H238.345c-4.873,0-8.828-3.946-8.828-8.828s3.955-8.828,8.828-8.828h229.517
		c4.882,0,8.828,3.946,8.828,8.828S472.744,185.379,467.862,185.379"/>
	<path style="fill:#24AE5F;" d="M467.862,238.345H238.345c-4.873,0-8.828-3.946-8.828-8.828s3.955-8.828,8.828-8.828h229.517
		c4.882,0,8.828,3.946,8.828,8.828S472.744,238.345,467.862,238.345"/>
</g>
<g>
</g>
<g>
</g>
<g>
</g>
<g>
</g>
<g>
</g>
<g>
</g>
<g>
</g>
<g>
</g>
<g>
</g>
<g>
</g>
<g>
</g>
<g>
</g>
<g>
</g>
<g>
</g>
<g>
</g>
</svg>
