<?xml version="1.0" encoding="iso-8859-1"?>
<!-- Generator: Adobe Illustrator 19.0.0, SVG Export Plug-In . SVG Version: 6.00 Build 0)  -->
<svg version="1.1" id="Layer_1" xmlns="http://www.w3.org/2000/svg" xmlns:xlink="http://www.w3.org/1999/xlink" x="0px" y="0px"
	 viewBox="0 0 512 512" style="enable-background:new 0 0 512 512;" xml:space="preserve">
<path style="fill:#415E72;" d="M216.473,486.839C223.426,501.7,238.506,512,256.001,512c17.496,0,32.575-10.3,39.528-25.161"/>
<path style="fill:#CFDCE5;" d="M327.196,433.215c14.655,0,26.537,11.881,26.537,26.537v1.785c0,14.655-11.881,26.537-26.537,26.537
	H184.803c-14.655,0-26.537-11.881-26.537-26.537v-1.785c0-14.655,11.881-26.537,26.537-26.537H327.196z"/>
<path style="fill:#BAC6CC;" d="M196.177,461.537v-1.785c0-14.655,11.881-26.537,26.537-26.537h-37.909
	c-14.655,0-26.537,11.881-26.537,26.537v1.785c0,14.655,11.881,26.537,26.537,26.537h37.909
	C208.058,488.073,196.177,476.193,196.177,461.537z"/>
<path style="fill:#CFDCE5;" d="M341.139,379.591c14.655,0,26.537,11.881,26.537,26.537v1.785c0,14.655-11.881,26.537-26.537,26.537
	H240.52h-31.592H170.86c-14.655,0-26.537-11.881-26.537-26.537v-1.785c0-14.655,11.881-26.537,26.537-26.537"/>
<path style="fill:#BAC6CC;" d="M182.234,407.913v-1.785c0-14.655,11.881-26.537,26.537-26.537h-37.909
	c-14.655,0-26.537,11.881-26.537,26.537v1.785c0,14.655,11.881,26.537,26.537,26.537h37.909
	C194.115,434.449,182.234,422.568,182.234,407.913z"/>
<path style="fill:#FCD577;" d="M356.527,332.139c6.978-33.393,19.428-65.584,36.593-95.445
	c13.315-23.16,20.929-50.013,20.929-78.645c0-89.332-74.115-161.356-164.21-157.933C166.677,3.278,99.728,71.459,97.986,154.661
	c-0.631,30.111,7.163,58.354,21.185,82.537c17.184,29.639,29.497,61.692,36.38,94.941H356.527z"/>
<path style="fill:#EAC36E;" d="M164.66,237.199c-14.021-24.184-21.815-52.427-21.185-82.537
	c1.625-77.608,59.984-142.137,135.313-153.03c-9.407-1.359-19.082-1.889-28.95-1.514C166.677,3.278,99.727,71.459,97.986,154.661
	c-0.631,30.111,7.163,58.354,21.185,82.537c17.184,29.639,29.497,61.692,36.38,94.941h45.49
	C194.157,298.89,181.845,266.838,164.66,237.199z"/>
<path style="fill:#415E72;" d="M288.283,258.696h-64.567c-10.518,0-19.045,8.527-19.045,19.045v54.398H307.33v-54.398
	C307.33,267.223,298.803,258.696,288.283,258.696z"/>
<g>
	<path style="fill:#FF6F52;" d="M246.301,209.764v96.048c0,5.111-4.136,9.259-9.259,9.259c-5.111,0-9.259-4.148-9.259-9.259v-93.505
		l-35.358-59.74c-2.593-4.407-1.148-10.086,3.259-12.691c4.395-2.605,10.074-1.148,12.679,3.259l36.654,61.913
		C245.856,206.48,246.301,208.11,246.301,209.764z"/>
	<path style="fill:#FF6F52;" d="M319.571,152.567l-35.358,59.74v93.505c0,5.111-4.148,9.259-9.259,9.259
		c-5.111,0-9.259-4.148-9.259-9.259v-96.048c0-1.654,0.444-3.284,1.296-4.716l36.642-61.913c2.605-4.407,8.284-5.864,12.679-3.259
		C320.72,142.481,322.176,148.16,319.571,152.567z"/>
</g>
<g>
	<path style="fill:#FC8C7A;" d="M227.782,258.69h18.518v47.123c0,5.111-4.136,9.259-9.259,9.259c-5.111,0-9.259-4.148-9.259-9.259
		V258.69z"/>
	<path style="fill:#FC8C7A;" d="M284.214,258.69v47.123c0,5.111-4.148,9.259-9.259,9.259s-9.259-4.148-9.259-9.259V258.69H284.214z"
		/>
</g>
<path style="fill:#CFDCE5;" d="M274.64,380.825H170.86c-14.655,0-26.537-11.881-26.537-26.537v-1.785
	c0-14.655,11.881-26.537,26.537-26.537h170.279c14.655,0,26.537,11.881,26.537,26.537v1.785c0,14.655-11.881,26.537-26.537,26.537
	h-36.172"/>
<path style="fill:#BAC6CC;" d="M182.234,354.288v-1.785c0-14.655,11.881-26.537,26.537-26.537h-37.909
	c-14.655,0-26.537,11.881-26.537,26.537v1.785c0,14.655,11.881,26.537,26.537,26.537h37.909
	C194.115,380.825,182.234,368.944,182.234,354.288z"/>
<g>
</g>
<g>
</g>
<g>
</g>
<g>
</g>
<g>
</g>
<g>
</g>
<g>
</g>
<g>
</g>
<g>
</g>
<g>
</g>
<g>
</g>
<g>
</g>
<g>
</g>
<g>
</g>
<g>
</g>
</svg>
