<?xml version="1.0" encoding="iso-8859-1"?>
<!-- Generator: Adobe Illustrator 19.0.0, SVG Export Plug-In . SVG Version: 6.00 Build 0)  -->
<svg version="1.1" id="Layer_1" xmlns="http://www.w3.org/2000/svg" xmlns:xlink="http://www.w3.org/1999/xlink" x="0px" y="0px"
	 viewBox="0 0 512.004 512.004" style="enable-background:new 0 0 512.004 512.004;" xml:space="preserve">
<circle style="fill:#BAC6CC;" cx="256.001" cy="303.534" r="160.94"/>
<circle style="fill:#CFDCE5;" cx="256.001" cy="303.535" r="121.706"/>
<rect x="246.817" y="47.529" style="fill:#314A5F;" width="18.368" height="53.539"/>
<rect x="182.453" y="82.555" transform="matrix(-0.2588 -0.9659 0.9659 -0.2588 162.2063 307.9435)" style="fill:#415E72;" width="33.596" height="18.367"/>
<rect x="114.618" y="95.829" transform="matrix(-0.5 -0.866 0.866 -0.5 121.1397 279.9639)" style="fill:#314A5F;" width="53.538" height="18.368"/>
<rect x="89.976" y="141.715" transform="matrix(-0.7071 -0.7071 0.7071 -0.7071 69.7617 330.6933)" style="fill:#415E72;" width="26.786" height="18.368"/>
<g>
	
		<rect x="427.744" y="408.957" transform="matrix(-0.866 -0.5 0.5 -0.866 639.0536 1007.5198)" style="fill:#314A5F;" width="53.537" height="18.368"/>
	
		<rect x="30.712" y="179.729" transform="matrix(-0.866 -0.5 0.5 -0.866 12.8003 381.2561)" style="fill:#314A5F;" width="53.537" height="18.368"/>
</g>
<g>
	
		<rect x="450.98" y="351.108" transform="matrix(-0.9659 -0.2588 0.2588 -0.9659 826.6572 829.4106)" style="fill:#415E72;" width="33.885" height="18.367"/>
	
		<rect x="27.544" y="237.61" transform="matrix(-0.9659 -0.2588 0.2588 -0.9659 23.1761 496.6394)" style="fill:#415E72;" width="33.469" height="18.367"/>
</g>
<g>
	<rect x="458.465" y="294.351" style="fill:#314A5F;" width="53.539" height="18.368"/>
	<rect y="294.351" style="fill:#314A5F;" width="53.538" height="18.368"/>
</g>
<g>
	
		<rect x="458.826" y="229.645" transform="matrix(-0.2588 -0.9659 0.9659 -0.2588 350.8478 762.6018)" style="fill:#415E72;" width="18.367" height="34.094"/>
	
		<rect x="37.6" y="345.43" transform="matrix(-0.2588 -0.9659 0.9659 -0.2588 -288.424 497.8155)" style="fill:#415E72;" width="18.367" height="28.274"/>
</g>
<g>
	
		<rect x="445.342" y="162.14" transform="matrix(-0.5 -0.866 0.866 -0.5 518.1948 676.9928)" style="fill:#314A5F;" width="18.368" height="53.537"/>
	
		<rect x="48.305" y="391.383" transform="matrix(-0.5 -0.866 0.866 -0.5 -275.8923 677.0179)" style="fill:#314A5F;" width="18.368" height="53.537"/>
</g>
<rect x="400.213" y="135.621" transform="matrix(-0.7071 -0.7071 0.7071 -0.7071 592.7351 545.7548)" style="fill:#415E72;" width="18.368" height="28.993"/>
<rect x="361.427" y="78.24" transform="matrix(-0.866 -0.5 0.5 -0.866 639.0607 381.2572)" style="fill:#314A5F;" width="18.368" height="53.537"/>
<g>
	
		<rect x="303.368" y="76.329" transform="matrix(-0.9659 -0.2588 0.2588 -0.9659 590.5344 262.5793)" style="fill:#415E72;" width="18.366" height="32.18"/>
	<circle style="fill:#415E72;" cx="329.779" cy="249.9" r="15.001"/>
</g>
<g>
</g>
<g>
</g>
<g>
</g>
<g>
</g>
<g>
</g>
<g>
</g>
<g>
</g>
<g>
</g>
<g>
</g>
<g>
</g>
<g>
</g>
<g>
</g>
<g>
</g>
<g>
</g>
<g>
</g>
</svg>
