<?xml version="1.0" encoding="utf-8"?>
<!-- Generator: Adobe Illustrator 21.0.2, SVG Export Plug-In . SVG Version: 6.00 Build 0)  -->
<svg version="1.1" id="Layer_1" xmlns="http://www.w3.org/2000/svg" xmlns:xlink="http://www.w3.org/1999/xlink" x="0px" y="0px"
	 viewBox="0 0 175.5 266.8" style="enable-background:new 0 0 175.5 266.8;" xml:space="preserve">
<style type="text/css">
	.st0{fill:#564F4F;}
	.st1{fill:#03C9A9;}
	.st2{fill:none;stroke:#000000;stroke-width:1.01;stroke-miterlimit:10;}
	.st3{fill:#7F7373;stroke:#8E7575;stroke-width:1.03;stroke-miterlimit:10;}
	.st4{fill:#F72121;}
</style>
<title>pesticide-barrel_1-bskp</title>
<g id="Layer_2">
	<g id="Layer_2-2">
		<path class="st0" d="M7,240.3c0,0-10.8,6.9,2.1,14.6c0,0,27.3,11.9,77.3,11.9c0,0,56.5,0.3,81.8-14.2c0,0,10.9-6.3-0.2-14"/>
		<path class="st0" d="M7,240.1c0,0-10.1,5.5,2.9,12.6c0,0,15.9,10.6,76,12.1c0,0,64.1-0.5,81.9-14.6c0,0,9.8-6.5,0.1-11.6"/>
		<path id="fertilizer-liquid" class="st1" d="M7.7,22.1v54.8c0,0,6.3,3.4,0,9.1c0,0-7.4,4.5,2.2,11.3c0,0,3.3,3-3,5.3v58.2
			c0,0,7.1,0.4,1.1,6.8c0,0-7.4,5.7,1.1,12.5c0,0,5.2,2.6-2.2,6.8v53.3c0,0,9.3,16.2,84.5,15.5c0,0,76.7-4.5,76.4-17v-50.3
			c0,0-5.6-5.7,1.1-9.8c0,0,9.3-7.2-0.8-9.8c0,0-7.4-2.6,0-7.2v-57.4c0,0-4.8-6.4,1.9-9.4c0,0,5.2-6.8-1.5-9.1c0,0-6.3-4.5,0-7.6
			V21.4"/>
		<path id="fertlizer-barrel-stroke" class="st2" d="M7.7,22.1v54.8c0,0,6.3,3.4,0,9.1c0,0-7.4,4.5,2.2,11.3c0,0,3.3,3-3,5.3v58.2
			c0,0,7.1,0.4,1.1,6.8c0,0-7.4,5.7,1.1,12.5c0,0,5.2,2.6-2.2,6.8v53.3c0,0,9.3,16.2,84.5,15.5c0,0,76.7-4.5,76.4-17v-50.3
			c0,0-5.6-5.7,1.1-9.8c0,0,9.3-7.2-0.8-9.8c0,0-7.4-2.6,0-7.2v-57.4c0,0-4.8-6.4,1.9-9.4c0,0,5.2-6.8-1.5-9.1c0,0-6.3-4.5,0-7.6
			V21.4"/>
		<path class="st3" d="M175,15.3c0.8,14.4-39,21-87,21S-1,29.7,0.6,16.5c1.2-9.8,39.4-16,87.4-16S174.5,5.5,175,15.3z"/>
		<path class="st0" d="M174.1,89.9c1.5-2.8,1.3-6.1-5.7-8c0,0-16.8,12.1-80.3,13.1c0,0-42,0.5-80.6-11.6c0,0-5.3,3.4-4.2,7.9
			C15.4,95.6,90.3,118.8,174.1,89.9z"/>
		<path class="st0" d="M3.3,91.4c0.5,1.9,2.1,4,5.8,6.2c0,0,17.1,9.1,77.2,10.6c0,0,65.8,0.5,83.7-13.6c1.6-1.3,3-2.9,4.1-4.6
			C90.3,118.8,15.4,95.6,3.3,91.4z"/>
		<path class="st0" d="M173.6,175.1c1.5-2.8,1.3-6.1-5.7-8c0,0-16.8,12.1-80.3,13.1c0,0-42,0.5-80.6-11.6c0,0-5.3,3.4-4.2,7.9
			C14.9,180.8,89.8,204,173.6,175.1z"/>
		<path class="st0" d="M2.8,176.6c0.5,1.9,2.1,4,5.8,6.2c0,0,17.1,9.1,77.2,10.6c0,0,65.8,0.5,83.7-13.6c1.6-1.3,3-2.9,4.1-4.6
			C89.8,204,14.9,180.8,2.8,176.6z"/>
		<path class="st0" d="M98.7,139.7c1.3-0.3,3.5-1,4.2-1.6c0.6-0.5,0.7-1.3,0.4-2c-0.7-1.2-2.1-1.7-3.4-1.5c-2,0.4-3.9,0.8-5.8,1.4
			c-2,0.6-4.4,1.3-5.7,1.5v-0.7c0-0.1,0-0.2,0-0.3l2.5-1.4c0.9-0.5,1.5-1.5,1.5-2.6v-2.3l4.7-7.5c0.2-0.3,0.1-0.8-0.2-1
			c0,0,0,0-0.1,0c-0.3-0.2-0.8-0.1-1,0.3l-4.8,7.6c-0.1,0.1-0.1,0.2-0.1,0.4v2.5c0,0.6-0.3,1.1-0.8,1.4l-2.4,1.4
			c-0.2-0.2-0.5-0.4-0.9-0.5v-6.3c0-0.4-0.3-0.7-0.7-0.7c-0.4,0-0.7,0.3-0.7,0.7v6.3c-0.3,0.1-0.6,0.3-0.9,0.5l-2.4-1.4
			c-0.5-0.3-0.8-0.8-0.8-1.4v-2.5c0-0.1,0-0.3-0.1-0.4l-4.8-7.6c-0.2-0.3-0.7-0.4-1-0.3c-0.3,0.2-0.5,0.6-0.3,0.9c0,0,0,0,0,0.1
			l4.7,7.5v2.3c0,1,0.6,2,1.5,2.6l2.5,1.4c0,0.1,0,0.2,0,0.3v0.7c-1.3-0.2-3.7-0.9-5.7-1.5c-1.9-0.6-3.8-1.1-5.8-1.5
			c-1.3-0.3-2.7,0.3-3.5,1.5c-0.3,0.7-0.2,1.5,0.4,2c0.7,0.7,2.9,1.3,4.2,1.6c1.7,0.5,3.5,0.8,5.3,0.9c1,0,2-0.1,3-0.3l-1.6,1.4
			c-0.7,0.5-1.2,1.2-1.4,2.1l-2,5.7l-6.2,7.6c-0.2,0.3-0.2,0.7,0.1,1c0,0,0,0,0,0c0.3,0.2,0.7,0.2,1-0.1l6.3-7.6
			c0.1-0.1,0.2-0.2,0.2-0.3l2-5.9c0.2-0.6,0.5-1,1-1.4l2.7-2.1v0.5l-2.2,2.6c-0.7,0.8-1,1.8-1,2.8v5.4l-6.3,12.8
			c-0.2,0.3-0.1,0.8,0.3,1c0,0,0.1,0,0.1,0c0.1,0,0.2,0.1,0.3,0.1c0.3,0,0.5-0.2,0.7-0.4l6.3-13c0-0.1,0.1-0.2,0.1-0.3v-5.5
			c0-0.7,0.3-1.4,0.7-1.9l1-1.2v2.5c0,2.1,1,3.8,2.3,3.8s2.3-1.6,2.3-3.8v-2.5l1,1.2c0.5,0.5,0.7,1.2,0.7,1.9v5.5
			c0,0.1,0,0.2,0.1,0.3l6.3,13c0.1,0.3,0.4,0.4,0.7,0.4c0.1,0,0.2,0,0.3-0.1c0.4-0.1,0.5-0.6,0.4-0.9c0,0,0-0.1,0-0.1l-6.3-12.8
			v-5.4c0-1-0.3-2-1-2.8l-2.1-2.6v-0.5l2.6,2.1c0.5,0.4,0.8,0.8,1,1.4l2,5.8c0,0.1,0.1,0.2,0.1,0.2l6.3,7.6c0.3,0.3,0.7,0.3,1,0.1
			c0.3-0.2,0.4-0.7,0.1-1c0,0,0,0,0,0l-6.3-7.5l-2-5.7c-0.3-0.8-0.8-1.5-1.4-2.1l-1.7-1.3c1,0.2,2,0.2,3,0.3
			C95.1,140.5,96.9,140.2,98.7,139.7z M94.5,137.4c1.8-0.6,3.7-1,5.5-1.4c1-0.1,1.7,0.3,1.9,0.7c0.1,0.1,0.1,0.3,0,0.4
			c-0.6,0.6-5.8,2.1-8.5,2.1c-1.3,0-2.6-0.2-3.8-0.4C90.7,138.4,92.4,138,94.5,137.4L94.5,137.4z M85.1,140.7v-1.8
			c0.5,0.2,1.1,0.2,1.7,0v1.8H85.1z M86.8,142.1v1.6h-1.7v-1.6H86.8z M86,136c0.4,0,0.8,0.4,0.8,0.8c0,0.4-0.4,0.8-0.8,0.8
			c-0.4,0-0.8-0.4-0.8-0.8C85.2,136.4,85.5,136,86,136z M70.1,137c-0.1-0.1-0.1-0.3,0-0.4c0.4-0.5,0.9-0.8,1.6-0.7H72
			c1.9,0.4,3.7,0.8,5.5,1.4c2.1,0.6,3.8,1.1,5,1.4c-1.3,0.2-2.6,0.4-3.8,0.4C75.9,139.1,70.7,137.6,70.1,137z M86,148.3
			c-0.2,0-0.8-0.8-0.8-2.3v-0.8h1.7v0.8C86.8,147.5,86.2,148.3,86,148.3z"/>
		<path class="st4" d="M85.8,114c-17.2,0-29.2,12-29.2,29.2s12,29.2,29.2,29.2s29.2-12,29.2-29.2S103,114,85.8,114z M85.8,168.7
			c-6.3,0.2-12.4-2-17.3-6.1l37.3-37.2l-2.4-2.3L66,160c-3.8-4.8-5.9-10.7-5.7-16.8c0-15,10.5-25.5,25.5-25.5s25.5,10.5,25.5,25.5
			S100.9,168.7,85.8,168.7L85.8,168.7z"/>
		<path class="st0" d="M175,15.3c0.8,14.4-38.4,18.2-86.5,18.2s-89.5-3.8-88-17c1.2-9.8,39.4-16,87.4-16S174.5,5.5,175,15.3z"/>
	</g>
</g>
</svg>
