<?xml version="1.0" encoding="utf-8"?>
<!-- Generator: Adobe Illustrator 21.0.2, SVG Export Plug-In . SVG Version: 6.00 Build 0)  -->
<svg version="1.1" id="Layer_1" xmlns="http://www.w3.org/2000/svg" xmlns:xlink="http://www.w3.org/1999/xlink" x="0px" y="0px"
	 viewBox="0 0 511.8 511.8" style="enable-background:new 0 0 511.8 511.8;" xml:space="preserve">
<style type="text/css">
	.st0{fill:#8AC054;}
	.st1{fill:#79AA41;}
	.st2{fill:#9ED36A;}
	.st3{fill:#FC9703;}
	.st4{fill:#D87805;}
</style>
<path class="st0" d="M123.5,46c0,0-5.8,91.8,37.2,135.8c26.4,27,69.6,27.5,96.6,1.2l0,0c27-26.4,27.4-69.7,1.1-96.7
	C215.3,42.4,123.5,46,123.5,46z"/>
<path class="st1" d="M249.3,172.2c-4.2-6.2-10.3-14.3-18.2-24c-13.2-16.3-26.8-31.5-27.3-32.1l0,0c-1.8-2-4.4-3.4-7.4-3.5
	c-5.9-0.3-10.9,4.2-11.2,10.1c-0.2,2.9,0.9,5.7,2.7,7.7l0,0c0.1,0.1,11.6,13,23.4,27.3c22.2,27,24.6,33.7,24.8,34.4
	c-0.2-0.8-0.4-3.5,1.4-6.2l17.7,12C260.3,190.1,255.1,180.9,249.3,172.2z"/>
<path class="st2" d="M395.8,0c0,0-117.9,9.2-166.1,72c-29.6,38.5-22.4,93.6,16,123.3l0,0c38.5,29.5,93.7,22.3,123.2-16.2
	C417.2,116.3,395.8,0,395.8,0z"/>
<path class="st0" d="M330,92.2c-1-5.8-6.5-9.7-12.3-8.8c-1.6,0.3-3.1,0.9-4.3,1.8l0,0c-1.2,0.8-29.3,20.7-53.6,57.3
	c-14.4,21.6-24.5,44.6-30,68.4c-7,29.8-17.1,35.7-9.7,67h24c-11.9-50.8,3.9-78.8,33.1-123c22.1-33.5,48.2-52.1,48.5-52.3v0
	C328.9,100.4,330.7,96.4,330,92.2z"/>
<path class="st3" d="M324.9,490.9c-2.1,11.6-13.4,21-25.1,21h-128c-11.7,0-23-9.4-25.1-21l-35-192.6c-2.1-11.5,5.8-21,17.5-21h213.3
	c11.7,0,19.6,9.4,17.5,21L324.9,490.9z"/>
<polygon class="st4" points="119.5,341.2 352.1,341.2 356,319.9 115.6,319.9 "/>
</svg>
