<?xml version="1.0" encoding="iso-8859-1"?>
<!-- Generator: Adobe Illustrator 19.0.0, SVG Export Plug-In . SVG Version: 6.00 Build 0)  -->
<svg xmlns="http://www.w3.org/2000/svg" xmlns:xlink="http://www.w3.org/1999/xlink" version="1.1" id="Layer_1" x="0px" y="0px" viewBox="0 0 512 512" style="enable-background:new 0 0 512 512;" xml:space="preserve" width="512px" height="512px">
<g>
	<g>
		<path d="M256,59.733l-51.2,51.2h17.067c9.426,0,17.067,7.641,17.067,17.067v68.267h34.133V128c0-9.426,7.641-17.067,17.067-17.067    H307.2L256,59.733z" fill="#fc9703"/>
	</g>
</g>
<g>
	<g>
		<path d="M503.979,263.339l-131.669-82.517C379.989,164.27,383.978,146.246,384,128C384,57.308,326.692,0,256,0S128,57.308,128,128    c0.022,18.246,4.011,36.27,11.691,52.821L8.021,263.339C3.047,266.448,0.018,271.894,0,277.76v20.907    c0,9.426,7.641,17.067,17.067,17.067H25.6v179.2c0,9.426,7.641,17.067,17.067,17.067h17.067c9.426,0,17.067-7.641,17.067-17.067    V460.8h34.133c4.713,0,8.533-3.821,8.533-8.533c0-4.713-3.82-8.533-8.533-8.533H76.8v-17.067h34.133    c4.713,0,8.533-3.82,8.533-8.533s-3.82-8.533-8.533-8.533H76.8v-17.067h34.133c4.713,0,8.533-3.82,8.533-8.533    s-3.82-8.533-8.533-8.533H76.8V358.4h34.133c4.713,0,8.533-3.82,8.533-8.533s-3.82-8.533-8.533-8.533H76.8v-17.067h34.133    c4.713,0,8.533-3.82,8.533-8.533s-3.82-8.533-8.533-8.533H76.8v-17.067h358.4V307.2H145.067c-4.713,0-8.533,3.82-8.533,8.533    s3.82,8.533,8.533,8.533H435.2v17.067H145.067c-4.713,0-8.533,3.82-8.533,8.533s3.82,8.533,8.533,8.533H435.2v17.067H145.067    c-4.713,0-8.533,3.82-8.533,8.533s3.82,8.533,8.533,8.533H435.2V409.6H145.067c-4.713,0-8.533,3.82-8.533,8.533    s3.82,8.533,8.533,8.533H435.2v17.067H145.067c-4.713,0-8.533,3.821-8.533,8.533c0,4.713,3.82,8.533,8.533,8.533H435.2v34.133    c0,9.426,7.641,17.067,17.067,17.067h17.067c9.426,0,17.067-7.641,17.067-17.067v-179.2h8.533c9.426,0,17.067-7.641,17.067-17.067    V277.76C511.982,271.894,508.953,266.448,503.979,263.339z M322.987,117.504c-2.657,6.368-8.887,10.51-15.787,10.496h-17.067    v68.267c0,9.426-7.641,17.067-17.067,17.067h-34.133c-9.426,0-17.067-7.641-17.067-17.067V128H204.8    c-9.426-0.04-17.034-7.713-16.995-17.138c0.019-4.484,1.802-8.78,4.963-11.96l51.2-51.2c6.661-6.669,17.467-6.675,24.136-0.013    c0.004,0.004,0.009,0.009,0.013,0.013l51.2,51.2C324.189,103.79,325.638,111.132,322.987,117.504z" fill="#fc9703"/>
	</g>
</g>
<g>
</g>
<g>
</g>
<g>
</g>
<g>
</g>
<g>
</g>
<g>
</g>
<g>
</g>
<g>
</g>
<g>
</g>
<g>
</g>
<g>
</g>
<g>
</g>
<g>
</g>
<g>
</g>
<g>
</g>
</svg>
