<?xml version="1.0" encoding="iso-8859-1"?>
<!-- Generator: Adobe Illustrator 19.0.0, SVG Export Plug-In . SVG Version: 6.00 Build 0)  -->
<svg version="1.1" id="Layer_1" xmlns="http://www.w3.org/2000/svg" xmlns:xlink="http://www.w3.org/1999/xlink" x="0px" y="0px"
	 viewBox="0 0 512 512" style="enable-background:new 0 0 512 512;" xml:space="preserve">
<path d="M485.468,14.995h0.01H485.468z"/>
<g>
	<path style="fill:#57565C;" d="M157.939,512H78.645c-2.844,0-5.149-2.305-5.149-5.149v-22.775h89.592v22.775
		C163.088,509.695,160.783,512,157.939,512z"/>
	<path style="fill:#57565C;" d="M433.35,512h-79.294c-2.844,0-5.149-2.305-5.149-5.149v-22.775h89.592v22.775
		C438.499,509.695,436.194,512,433.35,512z"/>
</g>
<path id="SVGCleanerId_0" style="fill:#EBEBEC;" d="M498.908,483.911H26.444c-3.161,0-5.723-2.562-5.723-5.723V5.723
	C20.72,2.562,23.283,0,26.444,0h472.465c3.161,0,5.723,2.562,5.723,5.723v472.465C504.632,481.349,502.069,483.911,498.908,483.911z
	"/>
<g>
	<path id="SVGCleanerId_0_1_" style="fill:#EBEBEC;" d="M498.908,483.911H26.444c-3.161,0-5.723-2.562-5.723-5.723V5.723
		C20.72,2.562,23.283,0,26.444,0h472.465c3.161,0,5.723,2.562,5.723,5.723v472.465C504.632,481.349,502.069,483.911,498.908,483.911
		z"/>
</g>
<path style="fill:#D7D8D9;" d="M504.636,5.724v472.462c0,3.16-2.563,5.724-5.724,5.724h-159.54c3.161,0,5.724-2.563,5.724-5.724
	V5.724c0-3.16-2.563-5.724-5.724-5.724h159.54C502.073,0,504.636,2.563,504.636,5.724z"/>
<g>
	<path style="fill:#FDDD85;" d="M51.631,203.865h-39.12c-2.843,0-5.147-2.305-5.147-5.147V83.415c0-2.843,2.305-5.147,5.147-5.147
		h39.12V203.865z"/>
	<path style="fill:#FDDD85;" d="M51.631,405.644h-39.12c-2.843,0-5.147-2.305-5.147-5.147V285.194c0-2.843,2.305-5.147,5.147-5.147
		h39.12V405.644z"/>
</g>
<path id="SVGCleanerId_1" style="fill:#F07B52;" d="M468.63,452.898H56.723c-2.756,0-4.99-2.234-4.99-4.99V36.002
	c0-2.756,2.234-4.99,4.99-4.99H468.63c2.756,0,4.99,2.234,4.99,4.99v411.907C473.62,450.664,471.386,452.898,468.63,452.898z"/>
<g>
	<path id="SVGCleanerId_1_1_" style="fill:#F07B52;" d="M468.63,452.898H56.723c-2.756,0-4.99-2.234-4.99-4.99V36.002
		c0-2.756,2.234-4.99,4.99-4.99H468.63c2.756,0,4.99,2.234,4.99,4.99v411.907C473.62,450.664,471.386,452.898,468.63,452.898z"/>
</g>
<circle style="fill:#EBEBEC;" cx="262.673" cy="241.952" r="115.991"/>
<path style="fill:#D7D8D9;" d="M378.668,241.952c0,64.065-51.927,115.999-115.991,115.999c-7.073,0-13.997-0.635-20.727-1.852
	c54.176-9.77,95.272-57.156,95.272-114.146c0-56.984-41.096-104.369-95.272-114.139c6.73-1.218,13.654-1.852,20.727-1.852
	C326.74,125.96,378.668,177.895,378.668,241.952z"/>
<path style="fill:#FDDD85;" d="M250.589,250.43l-5.281,17.857c-0.845,2.858,2.447,5.138,4.825,3.341l14.914-11.268
	c0.985-0.744,2.154-1.19,3.38-1.34c4.629-0.566,8.993-3.109,11.727-7.385c4.473-7,2.853-16.447-3.706-21.545
	c-7.425-5.772-18.065-4.065-23.347,3.562c-2.734,3.948-3.474,8.681-2.443,13.012C250.955,247.908,250.951,249.203,250.589,250.43z"
	/>
<path style="fill:#FDD042;" d="M280.349,251.318c-2.704,4.444-7.133,7.096-11.846,7.693c-1.255,0.157-2.45,0.59-3.451,1.352
	l-14.914,11.264c-2.378,1.796-5.67-0.484-4.825-3.342l3-10.14l13.377-10.106c1.001-0.762,2.196-1.195,3.451-1.352
	c4.713-0.598,9.142-3.249,11.846-7.693c1.18-1.935,1.897-4.048,2.189-6.192C283.284,238.008,283.912,245.47,280.349,251.318z"/>
<path style="fill:#DD6140;" d="M473.618,36.001v411.907c0,2.759-2.234,4.993-4.993,4.993h-67.936c2.749,0,4.983-2.234,4.983-4.993
	V36.001c0-2.759-2.234-4.993-4.983-4.993h67.936C471.384,31.008,473.618,33.242,473.618,36.001z"/>
<g>
	<path style="fill:#57565C;" d="M262.486,182.559c-4.141,0-7.497-3.357-7.497-7.497v-23.438c0-4.141,3.356-7.497,7.497-7.497
		c4.141,0,7.497,3.357,7.497,7.497v23.438C269.983,179.202,266.627,182.559,262.486,182.559z"/>
	<path style="fill:#57565C;" d="M262.486,344.654c-4.141,0-7.497-3.357-7.497-7.497v-23.438c0-4.141,3.356-7.497,7.497-7.497
		c4.141,0,7.497,3.357,7.497,7.497v23.438C269.983,341.297,266.627,344.654,262.486,344.654z"/>
	<path style="fill:#57565C;" d="M227.828,191.848c-2.591,0-5.111-1.345-6.5-3.75l-11.72-20.298
		c-2.071-3.586-0.842-8.171,2.744-10.242c3.585-2.07,8.17-0.842,10.242,2.744l11.72,20.298c2.071,3.586,0.842,8.171-2.744,10.242
		C230.389,191.524,229.1,191.848,227.828,191.848z"/>
	<path style="fill:#57565C;" d="M308.876,332.227c-2.591,0-5.111-1.345-6.5-3.75l-11.72-20.298
		c-2.071-3.586-0.842-8.171,2.744-10.242c3.585-2.069,8.17-0.842,10.242,2.744l11.72,20.298c2.071,3.586,0.841,8.171-2.744,10.242
		C311.437,331.903,310.148,332.227,308.876,332.227z"/>
	<path style="fill:#57565C;" d="M202.438,217.224c-1.272,0-2.562-0.324-3.742-1.006l-20.298-11.719
		c-3.586-2.071-4.815-6.656-2.744-10.242c2.07-3.587,6.657-4.815,10.242-2.744l20.298,11.719c3.586,2.071,4.815,6.656,2.744,10.242
		C207.549,215.88,205.029,217.224,202.438,217.224z"/>
	<path style="fill:#57565C;" d="M342.816,298.273c-1.272,0-2.562-0.324-3.742-1.006l-20.298-11.719
		c-3.586-2.071-4.815-6.656-2.744-10.242c2.07-3.587,6.657-4.816,10.242-2.744l20.298,11.719c3.586,2.071,4.815,6.656,2.744,10.242
		C347.928,296.928,345.407,298.273,342.816,298.273z"/>
	<path style="fill:#57565C;" d="M193.156,251.887h-23.437c-4.141,0-7.497-3.357-7.497-7.497c0-4.141,3.356-7.497,7.497-7.497h23.437
		c4.141,0,7.497,3.357,7.497,7.497C200.653,248.53,197.297,251.887,193.156,251.887z"/>
	<path style="fill:#57565C;" d="M355.251,251.887h-23.437c-4.141,0-7.497-3.357-7.497-7.497c0-4.141,3.356-7.497,7.497-7.497h23.437
		c4.141,0,7.497,3.357,7.497,7.497C362.75,248.53,359.393,251.887,355.251,251.887z"/>
	<path style="fill:#57565C;" d="M182.154,298.273c-2.591,0-5.111-1.345-6.5-3.75c-2.071-3.586-0.841-8.171,2.744-10.242
		l20.298-11.719c3.585-2.072,8.17-0.842,10.242,2.744c2.071,3.586,0.842,8.171-2.744,10.242l-20.298,11.719
		C184.716,297.948,183.426,298.273,182.154,298.273z"/>
	<path style="fill:#57565C;" d="M322.532,217.224c-2.591,0-5.111-1.345-6.5-3.75c-2.071-3.586-0.841-8.171,2.744-10.242
		l20.298-11.719c3.585-2.07,8.17-0.842,10.242,2.744c2.071,3.586,0.841,8.171-2.744,10.242l-20.298,11.719
		C325.094,216.9,323.804,217.224,322.532,217.224z"/>
	<path style="fill:#57565C;" d="M216.094,332.227c-1.272,0-2.562-0.324-3.742-1.006c-3.586-2.071-4.815-6.656-2.744-10.242
		l11.72-20.298c2.071-3.587,6.657-4.815,10.242-2.744c3.586,2.071,4.815,6.656,2.744,10.242l-11.72,20.298
		C221.205,330.882,218.685,332.227,216.094,332.227z"/>
	<path style="fill:#57565C;" d="M297.142,191.848c-1.272,0-2.562-0.324-3.742-1.006c-3.586-2.071-4.815-6.656-2.744-10.242
		l11.72-20.298c2.071-3.587,6.657-4.816,10.242-2.744c3.586,2.071,4.815,6.656,2.744,10.242l-11.72,20.298
		C302.253,190.504,299.733,191.848,297.142,191.848z"/>
</g>
<g>
</g>
<g>
</g>
<g>
</g>
<g>
</g>
<g>
</g>
<g>
</g>
<g>
</g>
<g>
</g>
<g>
</g>
<g>
</g>
<g>
</g>
<g>
</g>
<g>
</g>
<g>
</g>
<g>
</g>
</svg>
