<svg xmlns="http://www.w3.org/2000/svg" viewBox="0 0 467.52 487.93"><defs><style>.cls-1{fill:none;stroke:#231f20;stroke-miterlimit:10;stroke-width:14.53px;}.cls-2{fill:#6c7a89;}.cls-3{fill:#424143;}.cls-4{fill:#231f20;}.cls-5{fill:#f29c1f;}.cls-6{fill:#35495e;}.cls-7{fill:#fff;}.cls-8{fill:#e7e9ed;}</style></defs><title>smoke-alarm-bskp</title><g id="Layer_2" data-name="Layer 2"><g id="smoke-alarm"><path class="cls-1" d="M40.67,209c36.42,93,97.72,125.65,148.71,139.85"/><rect class="cls-2" x="182.09" y="312.61" width="121.55" height="54.82"/><path class="cls-3" d="M378.75,437.2a50.86,50.86,0,0,1-51,50.74H162.06a50.86,50.86,0,0,1-51-50.74v-37.6c0-28-7.17-50.74,21-50.74H350.77c28.16,0,28,22.71,28,50.74Z"/><path class="cls-4" d="M66.76,187.27A33.38,33.38,0,1,1,33.38,154,33.29,33.29,0,0,1,66.76,187.27Z"/><g id="bell-top"><path class="cls-5" d="M416.38,169.14c0,93.42-76.09,169.13-170,169.13S76.47,262.56,76.47,169.14,152.56,0,246.42,0,416.38,75.73,416.38,169.14Z"/><path class="cls-6" d="M289.17,169.14a42.75,42.75,0,1,1-42.74-42.54A42.65,42.65,0,0,1,289.17,169.14Z"/><path class="cls-4" d="M261.85,169.14a15.43,15.43,0,1,1-15.42-15.36A15.38,15.38,0,0,1,261.85,169.14Z"/><path class="cls-7" d="M104.8,170.94h-.51a10.27,10.27,0,0,1-9.93-10.64c4.29-86.48,79.36-119.46,82.55-120.82a10.56,10.56,0,0,1,13.76,5.23,10.06,10.06,0,0,1-5.35,13.38c-2.78,1.2-66.45,29.59-70.1,103.19A10.32,10.32,0,0,1,104.8,170.94Z"/><ellipse class="cls-7" cx="106.94" cy="195.41" rx="9.72" ry="9.46"/><path class="cls-5" d="M105.32,22.26a2.82,2.82,0,0,1-.84,2.88A204.74,204.74,0,0,0,72.72,63.22a190.71,190.71,0,0,0-21,43.65,3.34,3.34,0,0,1-3.9,2.09,2.7,2.7,0,0,1-2.06-3.49,196.7,196.7,0,0,1,21.6-45,211.11,211.11,0,0,1,32.74-39.25,3.31,3.31,0,0,1,4.41-.15A2.64,2.64,0,0,1,105.32,22.26Z"/><path class="cls-5" d="M89.59,5.61a3.32,3.32,0,0,1-1,3.38A237.34,237.34,0,0,0,51.95,53.58a222.9,222.9,0,0,0-24.11,51.15,3.84,3.84,0,0,1-4.52,2.45,3.19,3.19,0,0,1-2.41-4.1A229.91,229.91,0,0,1,45.76,50.35a244.73,244.73,0,0,1,37.82-46,3.81,3.81,0,0,1,5.12-.17A3.12,3.12,0,0,1,89.59,5.61Z"/><path class="cls-5" d="M375.8,317.81a2.82,2.82,0,0,1,1.1-2.8A204.74,204.74,0,0,0,412,280a190.71,190.71,0,0,0,24.87-41.55,3.34,3.34,0,0,1,4.07-1.73,2.7,2.7,0,0,1,1.73,3.67,196.7,196.7,0,0,1-25.64,42.83,211.11,211.11,0,0,1-36.2,36.08,3.31,3.31,0,0,1-4.4-.25A2.64,2.64,0,0,1,375.8,317.81Z"/><path class="cls-5" d="M389.94,335.83a3.32,3.32,0,0,1,1.26-3.28,237.34,237.34,0,0,0,40.62-41,222.9,222.9,0,0,0,28.69-48.72,3.84,3.84,0,0,1,4.72-2,3.19,3.19,0,0,1,2,4.3,229.91,229.91,0,0,1-29.58,50.23,244.73,244.73,0,0,1-41.87,42.3,3.81,3.81,0,0,1-5.11-.3A3.12,3.12,0,0,1,389.94,335.83Z"/></g><path class="cls-7" d="M355,432c0,21.75-15.52,39.39-34.68,39.39H167.72C148.56,471.38,133,453.74,133,432V402.8c0-21.78-1.48-39.42,17.69-39.42H339.36C358.51,363.38,355,381,355,402.8Z"/><polygon class="cls-8" points="303.15 397.15 295.89 386.78 283.13 377.59 267.19 376.02 256.38 380.91 246.11 387.9 241.16 382.69 229.46 380.91 221.72 387.9 217.26 400.42 210.16 403.02 202.3 412.08 190.49 414.8 200.32 425.65 200.32 431.09 190.49 441.95 217.07 444.66 217.07 442.02 224.68 443.32 261.35 443.32 283.84 441.17 294.47 433.93 304.38 416.52 303.15 397.15"/><path class="cls-5" d="M272.23,373.71a32.32,32.32,0,0,0-24.69,11.84,17.32,17.32,0,0,0-13.62-6.86c-10,0-18,8.91-18,19.91,0,.16,0,.33,0,.5a22.72,22.72,0,0,0-14.65,11.27H190.49a2.73,2.73,0,0,0,0,5.43h34.42a2.73,2.73,0,0,0,0-5.43H207.4a17.32,17.32,0,0,1,9.48-5.95l4-.9-.1-4.55c0-.13,0-.25,0-.36,0-8,5.88-14.48,13.11-14.48a12.62,12.62,0,0,1,9.91,5l3.58,4.55,3.73-4.4a29,29,0,0,1,9.41-7.4,26.39,26.39,0,0,1,11.7-2.72,27.41,27.41,0,0,1,20.43,9.34,34.31,34.31,0,0,1,0,45.12,27.4,27.4,0,0,1-20.43,9.34H190.49a2.73,2.73,0,0,0,0,5.43h81.74c18.67,0,33.8-16.72,33.8-37.33S290.9,373.71,272.23,373.71Z"/><path class="cls-5" d="M200.33,425.65a2.73,2.73,0,0,0,0,5.43h34.42a2.73,2.73,0,0,0,0-5.43H200.33Z"/></g></g></svg>