<?xml version="1.0" encoding="iso-8859-1"?>
<!-- Generator: Adobe Illustrator 19.0.0, SVG Export Plug-In . SVG Version: 6.00 Build 0)  -->
<svg version="1.1" id="Layer_1" xmlns="http://www.w3.org/2000/svg" xmlns:xlink="http://www.w3.org/1999/xlink" x="0px" y="0px"
	 viewBox="0 0 511.844 511.844" style="enable-background:new 0 0 511.844 511.844;" xml:space="preserve">
<path style="fill:#8AC054;" d="M123.467,46.049c0,0-5.842,91.753,37.176,135.786c26.383,27,69.62,27.531,96.643,1.211l0,0
	c26.968-26.406,27.437-69.65,1.062-96.65C215.33,42.362,123.467,46.049,123.467,46.049z"/>
<path style="fill:#79AA41;" d="M249.289,172.19c-4.187-6.248-10.294-14.339-18.167-24.047c-13.215-16.3-26.757-31.475-27.335-32.107
	l0,0c-1.812-2.039-4.42-3.382-7.357-3.546c-5.874-0.328-10.903,4.171-11.247,10.052c-0.156,2.937,0.89,5.67,2.702,7.7l0,0
	c0.109,0.133,11.575,12.973,23.415,27.344c22.181,26.968,24.586,33.7,24.79,34.38c-0.219-0.75-0.422-3.499,1.421-6.225
	l17.651,11.988C260.347,190.06,255.099,180.905,249.289,172.19z"/>
<path style="fill:#9ED36A;" d="M395.845,0c0,0-117.87,9.224-166.144,71.986c-29.585,38.472-22.399,93.627,15.995,123.267l0,0
	c38.527,29.515,93.667,22.282,123.25-16.19C417.214,116.301,395.845,0,395.845,0z"/>
<path style="fill:#8AC054;" d="M330.005,92.214c-0.983-5.811-6.482-9.724-12.277-8.755c-1.608,0.273-3.076,0.906-4.326,1.788
	l-0.016-0.016c-1.188,0.828-29.257,20.674-53.617,57.311c-14.354,21.611-24.46,44.62-30.021,68.409
	c-6.951,29.788-6.764,60.779,0.562,92.113l20.759-4.874c-11.887-50.781-3.124-98.962,26.046-143.198
	c22.087-33.506,48.235-52.102,48.501-52.281v-0.016C328.865,100.415,330.708,96.401,330.005,92.214z"/>
<path style="fill:#EC5564;" d="M324.898,490.851c-2.093,11.56-13.402,20.993-25.148,20.993H171.781
	c-11.715,0-23.024-9.434-25.133-20.993l-35.02-192.629c-2.109-11.528,5.779-20.962,17.51-20.962h213.286
	c11.715,0,19.587,9.434,17.495,20.962L324.898,490.851z"/>
<polygon style="fill:#D94452;" points="119.453,341.24 352.109,341.24 355.982,319.902 115.564,319.902 "/>
<g>
</g>
<g>
</g>
<g>
</g>
<g>
</g>
<g>
</g>
<g>
</g>
<g>
</g>
<g>
</g>
<g>
</g>
<g>
</g>
<g>
</g>
<g>
</g>
<g>
</g>
<g>
</g>
<g>
</g>
</svg>
