<svg xmlns="http://www.w3.org/2000/svg" xmlns:xlink="http://www.w3.org/1999/xlink" viewBox="0 0 258.33 208.64"><defs><style>.cls-1{fill:#08f2c5;}.cls-2,.cls-3{fill:none;stroke:#fff;}.cls-2,.cls-3,.cls-6,.cls-7,.cls-8{stroke-miterlimit:10;}.cls-2{stroke-width:6.97px;}.cls-4{fill:#454545;}.cls-5{font-size:8.02px;fill:#231f20;font-family:MyriadPro-Regular, Myriad Pro;}.cls-6,.cls-7,.cls-8{stroke:#000;stroke-width:2px;}.cls-7{fill:#f7841c;}.cls-8{fill:#fff;}</style></defs><title>water-tank-path_1-bskp</title><g id="Layer_2" data-name="Layer 2"><g id="Layer_1-2" data-name="Layer 1"><path class="cls-1" d="M123.54,203.82l-71.58-7c-12.71,0-28.63,1.67-20.75-40.7l.12-140.3,179.3-.12c2.48,0,3,25.46-.63,30.12l2.67,138C212.65,195.46,198.62,199.32,123.54,203.82Z"/><g id="hiddenbg"><rect class="cls-2" x="28.33" y="3.49" width="185.33" height="201.67"/><rect class="cls-3" x="27.83" y="4.32" width="185.25" height="200.5" rx="15.63" ry="15.63"/><image width="512" height="512" transform="translate(0 163.49) scale(0.06 0.05)" xlink:href="tap/faucet.png"/><path class="cls-4" d="M224.65,71.8h-5.39v3h5.37v2h-5.38v3h5.37v2h-5.38v3h5.38c0,.06,0,.1,0,.15,0,.56,0,1.13,0,1.69,0,.13,0,.17-.27.17h-5.13v3h11.81v1.92H218V14.59h13.07v1.92H219.56c-.32,0-.32,0-.32.2q0,1.33,0,2.67v.18h5.39v2h-5.37v3h5.37v2h-5.38v3h5.37v2h-5.38v3h5.38v2h-5.38v3h11.81v2H219.26v3h5.38v2h-5.38v3h5.38v2h-5.39v3h5.38v2h-5.38v3h5.38v2h-5.38v3h11.81v2H219.26v3h5.07c.31,0,.32,0,.32.19q0,.82,0,1.64Z"/><path class="cls-4" d="M224.65,147h-5.39v3h5.37v2h-5.38v3h5.37v2h-5.38v3h5.38c0,.06,0,.1,0,.15,0,.56,0,1.13,0,1.69,0,.13,0,.17-.27.17h-5.13v3h11.81v1.92H218V89.84h13.07v1.92H219.56c-.32,0-.32,0-.32.2q0,1.33,0,2.67v.18h5.39v2h-5.37v3h5.37v2h-5.38v3h5.37v2h-5.38v3h5.38v2h-5.38v3h11.81v2H219.26v3h5.38v2h-5.38v3h5.38v2h-5.39v3h5.38v2h-5.38v3h5.38v2h-5.38v3h11.81v2H219.26v3h5.07c.31,0,.32,0,.32.19q0,.82,0,1.64Z"/><path class="cls-4" d="M224.65,172.79h-5.39v3h5.37v2h-5.38v3h5.37v2h-5.38v3h5.38c0,.06,0,.1,0,.15,0,.56,0,1.13,0,1.69,0,.13,0,.17-.27.17h-5.13v3h11.81v1.92H218V115.58h13.07v1.92H219.56c-.32,0-.32,0-.32.2q0,1.33,0,2.67v.18h5.39v2h-5.37v3h5.37v2h-5.38v3h5.37v2h-5.38v3h5.38v2h-5.38v3h11.81v2H219.26v3h5.38v2h-5.38v3h5.38v2h-5.39v3h5.38v2h-5.38v3h5.38v2h-5.38v3h11.81v2H219.26v3h5.07c.31,0,.32,0,.32.19q0,.82,0,1.64Z"/><text class="cls-5" transform="translate(236.02 18.02) scale(1.09 1)">100 %</text><text class="cls-5" transform="translate(235.74 192.43) scale(1.09 1)">0 %</text></g><path class="cls-6" d="M32.87,191c2.62.84,5.8,2.29,8.41,3.16a100.68,100.68,0,0,0,17.89,4.22c7.51,1,15,2.12,22.56,2.83,7.79.73,15.62,1.18,23.44,1.47s15.36.27,23,.26c4.18,0,8.35-.28,12.53-.45,3.92-.15,7.84-.24,11.75-.51,4.68-.32,9.37-.71,14-1.21s9.58-1,14.3-1.91c5.93-1.15,11.8-2.67,17.66-4.15,3.07-.78,6.1-1.72,9.09-2.77s3.68-2.33,3.48-5.37a29.32,29.32,0,0,0-.53-3.06,8.84,8.84,0,0,0-1.11.38A75.84,75.84,0,0,1,185.52,191c-8.21,1.21-16.42,2.39-24.67,3.25-6.94.72-13.93,1.19-20.91,1.35-9,.21-18.06.14-27.09,0-8.35-.17-16.7-.57-25-1a246.55,246.55,0,0,1-29.66-3.24,128.91,128.91,0,0,1-26.75-7.74l-.71-.27c-.6,2.14,1.36,6.59,2.24,8.76-1.45-.59-4.27-3.8-4.26-5.35.08-10.5.05-21,0-31.49a2,2,0,0,1,1-1.88A22.47,22.47,0,0,0,32,151.62a3.32,3.32,0,0,0,.69-4.81c-1-1.36-2.25-2.5-3.32-3.79a2.49,2.49,0,0,1-.6-1.44q-.06-10.58,0-21.15a2.32,2.32,0,0,1,.69-1.5c.81-.76,1.8-1.34,2.65-2.07,1.41-1.21,1.73-2.62.7-4.15a37,37,0,0,0-3.3-4,2.77,2.77,0,0,1-.8-2q.05-10.64,0-21.27a2,2,0,0,1,.93-1.91A26.76,26.76,0,0,1,31.88,82a2.65,2.65,0,0,0,1-4,18.06,18.06,0,0,0-2.7-3.36,4.13,4.13,0,0,1-1.28-4.7,3.7,3.7,0,0,0,0-1.08c0-6.09,0-12.18,0-18.27A2.5,2.5,0,0,1,30,48.36c.58-.43,1.17-.84,1.75-1.28,2.28-1.76,2.48-4.26.45-6.31-.82-.82-1.79-1.5-2.59-2.33A2.28,2.28,0,0,1,29,37c0-6.69,0-13.38-.05-20.07a1.32,1.32,0,0,1,1-1.44,29.54,29.54,0,0,1,10.74-1.79q15.08,0,30.16,0h1.56c.08-1.73.16-3.36.22-5s.48-2.35,2.23-2.51c2.72-.24,5.45-.33,8.18-.44,4.9-.19,9.8-.45,14.7-.47,11.89-.07,23.78-.1,35.67,0,9.16.09,18.32.44,27.48.7a54.88,54.88,0,0,1,5.64.42c1.61.21,2.18.88,2.44,2.51s.41,3.24.63,5H171c8.33,0,16.66,0,25,0,3.37,0,6.74.19,10.1.5a19.94,19.94,0,0,1,4.51,1.21,2.52,2.52,0,0,1,1.82,2.55q0,9.37,0,18.74a5,5,0,0,1-1.55,3.14,29.45,29.45,0,0,0-2.25,3.33,2.16,2.16,0,0,0,.28,2.35,2.9,2.9,0,0,0,.66.85c2.51,1.85,2.73,4.45,2.67,7.29-.12,5.64-.09,11.29,0,16.93a6.5,6.5,0,0,1-2,4.72c-2.58,2.75-2.54,4.64.2,7.28A5.41,5.41,0,0,1,212.25,87c-.06,6.49-.05,13,0,19.46a5.57,5.57,0,0,1-1.58,3.89c-.21.24-.44.46-.65.71-2.25,2.59-2.17,4.54.34,6.84a5.5,5.5,0,0,1,1.92,4.33c-.05,6.21,0,12.41,0,18.62,0,1.74-.94,3-2,4.24a8.91,8.91,0,0,0-1.47,2.16,3.8,3.8,0,0,0,1,4.5,7.42,7.42,0,0,1,2.48,6.19c-.13,5,0,10,0,15,0,4.71-.09,9.42-.16,14.14a5.2,5.2,0,0,1-3.94,5.39c-6.63,2.27-13.2,4.76-20.13,6-7.11,1.23-14.24,2.36-21.41,3.17-7.5.84-15,1.33-22.57,1.8-3.95.25-7.92.17-11.87.18-7.92,0-15.85.15-23.77-.08-8.47-.25-16.93-.81-25.39-1.35a230.23,230.23,0,0,1-26.85-3.43,102,102,0,0,1-19.25-5.07c-1.24-.49-3-.64-3.58-1.82C33.34,191.81,32.83,191.09,32.87,191Zm-2.63-33.6c0,.49-.05.84-.05,1.19,0,6.57,0,13.14,0,19.71a5,5,0,0,0,3.52,5.18c5.37,1.83,10.72,3.83,16.22,5.17,12.94,3.16,26.16,4.51,39.43,5.28,7.82.46,15.66.72,23.49.89s16,.12,24,.13c1.85,0,3.69-.16,5.54-.22,9.72-.32,19.39-1.2,29-2.38a160,160,0,0,0,27.53-5.61c2.72-.83,5.44-1.65,8.12-2.57a5.51,5.51,0,0,0,4-4.41,20.56,20.56,0,0,0,.23-3.32c0-5.73,0-11.45,0-17.18,0-.43,0-.86,0-1.42-.45.13-.76.19-1,.3a60.91,60.91,0,0,1-13.26,3.77c-7.77,1.15-15.48,2.72-23.28,3.62-8.33,1-16.72,1.53-25.09,1.95-8.55.42-17.11.55-25.67.62-5.25,0-10.5-.24-15.75-.45-7.67-.31-15.34-.53-23-1.07-9-.64-18.09-1.39-27.1-2.42a102.77,102.77,0,0,1-25.59-6.36C31.08,157.66,30.71,157.56,30.25,157.41Zm.34-104.73c0,3,0,5.91,0,8.82a40.5,40.5,0,0,1-.26,7.18,6.12,6.12,0,0,0,4.35,7.47,44.11,44.11,0,0,0,4.66,1.14c7.46,1.49,14.88,3.3,22.41,4.33,8.78,1.2,17.64,1.92,26.49,2.44,9.94.58,19.91.86,29.87,1,7.79.09,15.6-.14,23.38-.46,8.27-.34,16.52-.92,24.78-1.45,3.72-.24,7.45-.43,11.13-1,7.45-1.13,14.87-2.45,22.28-3.79,2.6-.47,5.16-1.15,7.7-1.86A4.69,4.69,0,0,0,211,72.41a22.63,22.63,0,0,0,.24-3.11c0-4.85,0-9.69,0-14.54V53.38c-.57.15-1,.23-1.33.34-3.5,1-7,2-10.51,3a119,119,0,0,1-19.15,3.41c-6,.6-12.06,1.21-18.11,1.67-3.94.31-7.91.38-11.86.54-5,.21-10,.56-15,.6-9,.07-18,.07-27-.12q-11.92-.26-23.83-1-12.85-.84-25.67-2.17a105.06,105.06,0,0,1-22.36-4.95C34.39,54,32.48,53.34,30.58,52.68Zm180.63,36.2-3.72.94c-9.05,2.35-18.1,4.7-27.5,5.37-7.08.51-14.13,1.49-21.22,1.92-9.34.57-18.69,1-28,1.14-8.68.13-17.36-.13-26-.32-6.5-.15-13-.34-19.51-.74-7.41-.45-14.82-1-22.2-1.77A112.42,112.42,0,0,1,38.09,90.3c-2.56-.88-5.16-1.67-7.83-2.53,0,.43-.06.78-.06,1.12q0,8.11,0,16.21a6.57,6.57,0,0,0,.17,1.66c.69,2.64,2.72,3.88,5.14,4.54,6,1.64,12,3.4,18.25,4.17,4.21.52,8.38,1.36,12.6,1.79,6.79.7,13.59,1.32,20.4,1.73,8.66.52,17.33,1,26,1.12,9.68.11,19.37-.2,29.05-.41,3.93-.08,7.87-.31,11.79-.58q8.47-.58,16.93-1.34c4.76-.43,9.54-.76,14.24-1.55,6.11-1,12.16-2.39,18.2-3.78a34.18,34.18,0,0,0,6.27-2.29A3.28,3.28,0,0,0,211,106.9c0-3.68.15-7.36.2-11C211.24,93.59,211.21,91.32,211.21,88.88Zm-181,34.54c0,.58,0,1,0,1.36q0,7.57,0,15.13c0,2.83,1.13,4.66,3.8,5.43a136.48,136.48,0,0,0,14.87,3.87c7.94,1.35,16,2.32,24,3.12,8.94.9,17.91,1.48,26.87,2.11,3.48.24,7,.35,10.48.32,10.93-.09,21.86-.22,32.79-.46,4.86-.11,9.71-.44,14.56-.8,6-.45,11.93-.92,17.87-1.6,5.61-.64,11.23-1.36,16.77-2.43,4.91-.94,9.72-2.37,14.56-3.65,2.9-.77,4.25-2.62,4.31-5.65q.11-5.94.19-11.88c0-1.42,0-2.85,0-4.35-1.73.33-3.23.5-4.66.92A117.12,117.12,0,0,1,188,129.13c-9,1.09-18,2.24-27,3-7.16.61-14.36.91-21.54,1q-19.78.18-39.56-.11a177.38,177.38,0,0,1-23.28-1.44c-4-.58-8-.82-12-1.24a166.37,166.37,0,0,1-27.72-5.24C34.71,124.49,32.53,124,30.19,123.42ZM135.41,49.55c1.79,0,3.38,0,5,0q3.73-.08,7.47-.24c4.05-.18,8.11-.27,12.15-.61,7.12-.6,14.23-1.24,21.32-2.07a117.09,117.09,0,0,0,20.16-3.87,74.56,74.56,0,0,0,7.79-2.8c2.7-1.15,2.86-3,.55-4.77-.76-.59-1.55-1.14-2.36-1.66-5.2-3.34-10.95-5.46-16.79-7.35a159.6,159.6,0,0,0-23.5-5.45c-4.94-.8-9.91-1.59-14.9-1.9s-10.28,0-15.41-.07c-1.13,0-1.49.29-1.48,1.47.05,9.33,0,18.66,0,28ZM106,18.55c-2.22,0-4.39.07-6.55,0a116.74,116.74,0,0,0-22.31,1.63,161.38,161.38,0,0,0-25.85,5.93c-6.33,2.07-12.6,4.29-18.11,8.16a14.45,14.45,0,0,0-1.81,1.39A2,2,0,0,0,31.65,39a6.65,6.65,0,0,0,1.55.91,83.39,83.39,0,0,0,8,2.87,144.47,144.47,0,0,0,23.41,4.12c6.87.63,13.76,1.16,20.64,1.68,3.52.27,7.05.48,10.58.58,3.36.1,6.73,0,10.18,0ZM34.52,77.43c-.13,2.05-.31,4-.36,6A2.78,2.78,0,0,0,36,86.28a61.58,61.58,0,0,0,7.12,2.42,178.5,178.5,0,0,0,25.76,4c9.48.84,19,1.4,28.49,1.85,6.82.33,13.67.43,20.5.36,11.78-.11,23.56-.2,35.32-.74,10.05-.46,20.08-1.45,30.1-2.38a108.38,108.38,0,0,0,20.55-4.38,4.47,4.47,0,0,0,3.37-3.6,46.69,46.69,0,0,0,.06-6.21l-.81.18c-7.57,1.54-15.12,3.27-22.73,4.56-5,.85-10.11,1.09-15.18,1.55-3.8.35-7.6.73-11.41.9-7.31.32-14.62.69-21.93.71-13.51,0-27,0-40.53-.39-9.42-.28-18.85-1-28.22-2-7.48-.8-14.9-2.25-22.32-3.53C41,79.05,37.85,78.19,34.52,77.43ZM34.18,147a34.59,34.59,0,0,1,0,4.37c-.36,2.79.51,4.6,3.24,5.32,4.56,1.2,9.16,2.33,13.8,3.17s9.05,1.28,13.6,1.78q8.32.91,16.66,1.62c4.12.35,8.25.59,12.38.83,5.16.3,10.32.74,15.49.78,9.33.08,18.66,0,28-.18,4.74-.07,9.48-.31,14.21-.6q9-.55,17.9-1.32c5.16-.44,10.36-.72,15.45-1.58,6.27-1.05,12.46-2.58,18.66-4,1.66-.39,3.37-1.29,3.61-3.14a53.53,53.53,0,0,0,.07-6.76c-.27,0-.51.06-.73.12a215.85,215.85,0,0,1-39.82,6.51c-8.77.62-17.56,1-26.35,1.37-5,.2-10,.2-15,.13-9.2-.13-18.39.06-27.6-.45-10-.55-20.07-.83-30-2-6.4-.78-12.79-1.75-19.15-2.85C43.78,149.21,39.08,148,34.18,147Zm.05-34.53a19,19,0,0,1,0,4c-.75,3.49,1.18,5.17,3.95,5.88a95.67,95.67,0,0,0,9.59,2.23q13.9,2.08,27.84,3.8c4,.5,8,.75,12,1,7.54.39,15.09.82,22.63.95,12.34.21,24.69.21,37-.65,11.33-.79,22.65-1.76,34-2.62,7.76-.59,15.21-2.67,22.69-4.61a4.18,4.18,0,0,0,3.43-3.56,50.34,50.34,0,0,0,.05-5.85l-9.61,1.89c-1.77.35-3.54.71-5.31,1a231.93,231.93,0,0,1-29.36,3.63c-8.58.48-17.17,1.06-25.76,1.1-15.4.07-30.79-.17-46.19-.41-5-.08-10-.49-15-.92-4-.35-8-.92-12-1.45-3.73-.5-7.48-1-11.18-1.64C46.72,115,40.58,113.73,34.23,112.45ZM207.66,42.34l-.76.15c-5.84,1.24-11.65,2.6-17.51,3.71a238.74,238.74,0,0,1-31.08,3.52c-6.48.37-13,.44-19.47.5q-15.2.13-30.41,0c-5.38,0-10.77-.11-16.15-.42Q80,49.15,67.76,48.09a195.76,195.76,0,0,1-25.85-4.24c-2.29-.51-4.58-1.08-7.09-1.67-.28,1.64-.61,3.15-.8,4.67a4,4,0,0,0,2.69,4.47c.95.42,1.93.78,2.91,1.11,5.66,1.93,11.6,2.35,17.47,3.15,9.83,1.34,19.65,2.69,29.57,3.1,9.59.4,19.18.92,28.78,1.11,8,.16,16.08-.09,24.12-.16,3.28,0,6.57,0,9.84-.14,6.21-.35,12.43-.71,18.63-1.33,7.38-.74,14.76-1.58,22.09-2.7,4.38-.67,8.68-1.88,13-3,1.84-.47,3.74-1.3,4.08-3.44S207.52,44.64,207.66,42.34ZM73.85,9c0,1.62,0,3.25,0,4.88.06,2.09.58,2.6,2.66,2.67,3.89.14,7.79.24,11.68.38,7.62.26,15.23.6,22.86.77,6,.13,12,.12,18,.05,7.23-.09,14.46-.28,21.69-.47,4.62-.12,9.23-.29,13.85-.53a7.89,7.89,0,0,0,2.7-.91,1.41,1.41,0,0,0,.74-1c.07-1.9,0-3.8,0-5.86ZM120.9,49.53v0h5.43c1.85,0,3.7,0,5.55,0s2.75-.87,2.71-2.7q-.09-4.44-.11-8.88c0-3.28-.09-6.57.06-9.85.13-2.74-.5-3.61-3.22-3.69h-.84c-6.53-.08-13.07-.19-19.6-.22-2.44,0-3.79.09-3.72,3.56.12,6.16,0,12.33,0,18.49,0,2.68.56,3.28,3.32,3.29Zm41-31.08c17,3.42,34,6.41,49.1,16V17.1C194.61,17.49,178.24,16.32,161.94,18.44Zm-81,.15.08-.41a4.45,4.45,0,0,0-1.14-.36c-2.09-.08-4.17-.12-6.26-.15-4.82-.09-9.64-.18-14.46-.25Q46,17.23,32.88,17.07a2.06,2.06,0,0,0-2.22,2.23q0,7,0,13.93c0,.34,0,.68,0,1.19.55-.31.91-.53,1.29-.73,3.13-1.61,6.19-3.37,9.41-4.79C52,24.2,63.24,21.81,74.6,19.74ZM32.82,82.89l-.44-.27c-.63.8-1.63,1.53-1.8,2.42-.21,1.07,1,1.56,1.91,2l.1.07a43.44,43.44,0,0,0,12,4c7.82,1.15,15.58,2.61,23.4,3.75,4.26.62,8.57.88,12.86,1.23,3.71.3,7.42.53,11.13.72s7.52.37,11.28.45q8.55.19,17.11.24c2.65,0,5.29-.16,7.94-.21,4.82-.09,9.63-.09,14.45-.25,4.2-.14,8.39-.48,12.58-.7,3.32-.18,6.64-.3,10-.47,1.28-.07,2.55-.18,3.83-.3,2.89-.29,5.78-.62,8.68-.9,2-.2,4.12-.18,6.13-.53,4.61-.78,9.21-1.66,13.79-2.62a39.74,39.74,0,0,0,11.86-4.25c.77-.44-.91.45-1.14-.6s1.29-3,.29-3.25c-.12.61-.17,1.08-.3,1.53-.67,2.26-2.55,3.09-4.56,3.58q-4.73,1.16-9.51,2.08c-4.64.89-9.28,1.8-13.95,2.49-3.07.45-6.2.52-9.31.77-4.06.32-8.12.68-12.18,1s-8.14.55-12.22.72c-5.33.22-10.66.45-16,.47-7.67,0-15.35-.11-23-.21-3.77,0-7.54-.14-11.31-.25-1.72,0-3.44-.15-5.16-.26-3.35-.22-6.7-.47-10-.71-2.31-.17-4.63-.29-6.93-.51-2.94-.28-5.87-.61-8.79-.95-2.73-.31-5.47-.56-8.17-1-4.41-.77-8.8-1.65-13.18-2.59-2.55-.54-5.07-1.2-7.57-1.94-1.57-.46-5.53-.17-6-1.9C30.4,85.13,32.93,83.42,32.82,82.89Zm-1.41,38.59c-.54.33.36-3.07-.07-2.7-1.18,1-1.2,1.82.07,2.7a18.78,18.78,0,0,0,7.27,3.22c4.06.75,8.1,1.6,12.16,2.32,5,.88,9.94,1.73,14.92,2.46,4,.59,8,1,11.94,1.45,2.14.23,4.3.36,6.46.49,4,.25,8.06.51,12.1.68,5,.21,10.1.44,15.15.46,7.15,0,14.3-.09,21.46-.22,4.77-.09,9.54-.27,14.3-.47,4.24-.19,8.47-.43,12.7-.72s8.29-.6,12.43-1,8.2-.59,12.25-1.24c5.24-.84,10.47-1.87,15.63-3.13a64.25,64.25,0,0,0,9.05-3.24c.78-.32-1.37,0-.74-.68-.74-.57,1.17-2.45.43-3,0,0-.07,0-.17.08s0,.34-.08.52c-.36,1.55-1.08,3-2.68,3.4-3.6.93-7.24,1.71-10.9,2.43-4.32.85-8.65,1.62-13,2.34-2.63.43-5.28.75-7.93,1-2.26.24-4.54.34-6.81.52-3.82.31-7.64.66-11.46.94q-4.19.31-8.39.48c-5,.19-10,.37-15,.48-3,.07-6,0-9.05,0-8.39-.13-16.78-.23-25.17-.46-4.6-.12-9.2-.43-13.79-.75-3.21-.23-6.41-.62-9.62-.94s-6.6-.6-9.89-1c-3.12-.36-6.25-.7-9.33-1.27-5.57-1-11.12-2.21-16.68-3.29C34.84,122.6,31.89,124.94,31.41,121.48Zm1.47,31.1c-.47.3-.34,3.51-.66,3.74s-.91-2.67-1.1-2.47c-.88.86-.86,1.51.09,2.27a6.14,6.14,0,0,0,.93.54,35.49,35.49,0,0,0,12.19,3.91c6.88.95,13.7,2.29,20.57,3.27,5.08.73,10.2,1.25,15.31,1.69,4.3.37,8.63.51,12.94.73,1.8.1,3.6.16,5.4.25,4.43.24,8.86.53,13.29.7,2.61.1,5.23,0,7.84,0,5.66-.07,11.33-.12,17-.25,4.21-.09,8.41-.3,12.62-.46,2-.07,3.92-.15,5.88-.25,1.24-.06,2.47-.16,3.71-.26q3.87-.33,7.75-.68c1.75-.16,3.5-.31,5.24-.54,2.68-.35,5.35-.76,8-1.15,2.83-.42,5.66-.82,8.48-1.28,3.56-.58,7.1-1.34,10.67-1.8,3.92-.51,6.77-3.08,10.12-5.06.37-.22,1.39.6,1.67.27a1.34,1.34,0,0,0-.12-1.93c-.54-.63-1-.2-1.42.17l-.84.68c-2.22,1.83-4.34,3.84-7.31,4.37-4.06.73-8.12,1.49-12.21,2.07q-10.28,1.45-20.59,2.66c-3.89.45-7.8.7-11.7,1-2.87.21-5.75.36-8.63.48-4.65.19-9.3.49-13.94.46-10.32-.06-20.64.38-31-.41-3.44-.26-6.9-.15-10.35-.31s-7.18-.45-10.77-.7c-2.19-.15-4.38-.32-6.57-.53-2.9-.28-5.79-.61-8.68-.93-2.3-.25-4.61-.41-6.88-.78-3.84-.63-7.66-1.35-11.47-2.11s-7.62-1.53-11.4-2.44C34.28,156.84,33.17,155.41,32.88,152.58Zm0-104.7c-.61.46,1.43,3.14,1,3.52-.94.88-3.45-.69-2.33,0a31,31,0,0,0,9.6,3.85c4.24.81,8.5,1.53,12.77,2.22,5.21.83,10.43,1.68,15.67,2.34,4.39.55,8.82.87,13.23,1.22,3.75.29,7.5.52,11.25.71,4.08.2,8.16.4,12.25.46,5.83.08,11.66.05,17.5,0,3.65,0,7.3-.12,11-.23q7.09-.2,14.18-.46c3.87-.14,7.75-.23,11.61-.52,3.49-.26,7-.76,10.45-1.17,4.62-.55,9.25-1.07,13.85-1.7,4.76-.65,9.52-1.33,14.25-2.17,3.91-.7,7.19-4.72,10.7-6.51.93-.47,1.37.95.88.18a10.75,10.75,0,0,0-1.9-1.8c-.15.81-.2,1.32-.35,1.81-.71,2.3-2.57,3.33-4.68,3.83-4.28,1-8.58,2-12.92,2.68-6.12,1-12.26,1.86-18.42,2.62-3.8.47-7.63.74-11.45,1-4.34.25-8.69.33-13,.51-3.88.15-7.76.47-11.65.47-10.45,0-20.9-.09-31.35-.23-4-.05-8-.28-12-.48S85,59.5,81.09,59.21s-7.65-.55-11.46-1c-4.31-.48-8.61-1-12.88-1.71-6-1-12-2.17-18-3.36C35.87,52.6,33.44,51.35,32.87,47.88Zm129-39.73c.1-.77,0-1.16-.82-1.17-1.81,0-3.61-.15-5.42-.19-7.11-.17-14.22-.42-21.34-.46q-18.62-.12-37.24,0c-5.26,0-10.52.3-15.78.51-.38,0-.74.35-1.11.53.36.19.72.55,1.08.56,7.23.11,14.46.24,21.69.25q28.79,0,57.58,0ZM124.26,23c2.73,0,5.46,0,8.19,0,.83,0,1.26-.2,1.23-1.15a2.59,2.59,0,0,0-2.88-2.75c-3.73,0-7.47,0-11.2,0-3,0-6-.24-9-.19A3.53,3.53,0,0,0,108.26,20c-.42.47-.31,1.46-.29,2.22,0,.19.57.5.89.51q4.2.18,8.4.26C119.6,23,121.93,23,124.26,23Zm46.43-7.47v.26h36.14v-.26Zm-99.36-.08,0-.24H35.83v.24Z"/><path class="cls-7" d="M73.85,9H168c0,2.06,0,4,0,5.86a1.41,1.41,0,0,1-.74,1,7.89,7.89,0,0,1-2.7.91c-4.61.25-9.23.41-13.85.53-7.23.19-14.46.39-21.69.47-6,.07-12,.08-18-.05-7.62-.17-15.24-.51-22.86-.77-3.89-.13-7.79-.24-11.68-.38-2.08-.07-2.6-.58-2.66-2.67C73.81,12.3,73.85,10.66,73.85,9Z"/><path class="cls-8" d="M161.89,8.15h-1.36q-28.79,0-57.58,0c-7.23,0-14.46-.14-21.69-.25-.36,0-.72-.36-1.08-.56.37-.18.73-.52,1.11-.53,5.26-.2,10.52-.48,15.78-.51q18.62-.1,37.24,0c7.11,0,14.23.29,21.34.46,1.81,0,3.61.17,5.42.19C161.9,7,162,7.38,161.89,8.15Z"/><path class="cls-8" d="M170.69,15.51h36.15v.26H170.69Z"/><path class="cls-8" d="M71.33,15.43H35.84v-.24H71.37Z"/></g></g></svg>