<svg xmlns="http://www.w3.org/2000/svg" viewBox="0 0 552.41 297.18"><defs><style>.cls-1{fill:#f15b2a;}.cls-2{fill:#ffcb0c;}.cls-3{fill:#fff;}</style></defs><title>truck-bskp</title><g id="Layer_2" data-name="Layer 2"><g id="Layer_1-2" data-name="Layer 1"><path class="cls-1" d="M552.41,241.84c-2.52,3.34-5.87,4.49-10.19,4.39-10.06-.24-20.14-.19-30.21,0-3.12.06-4.68-1-6.26-3.59C496,226.62,481.3,218,461.92,218c-19.15.05-33.69,8.59-43.38,24.43-1.68,2.75-3.43,3.88-6.74,3.75-6.28-.25-12.59,0-18.88-.09-6.46-.08-8.93-2.32-8.93-8.38q-.06-80.08,0-160.16c0-5.85,2.39-8.22,8.54-8.24,30.75-.08,61.5,0,92.25,0,7.58,0,12.76,3.67,16.64,9.71q23.62,36.8,47.44,73.49a45.4,45.4,0,0,0,3.55,4.27ZM461.7,147.16H466c14.73,0,29.46.13,44.19-.06,8-.1,10.41-4.4,6.48-10.67-9.17-14.62-18.76-29-27.37-43.93-4.46-7.73-10.48-10.54-19.19-10.44-18.32.21-36.64,0-55,.06-8,0-10.33,2.18-10.36,9.78q-.08,22.52,0,45c0,8,2.32,10.19,10.56,10.22C430.8,147.19,446.25,147.16,461.7,147.16Zm85.17,77.51a52.13,52.13,0,0,0-.05-6.68c-.48-3.71-2.85-6.1-6.77-6-3.58.11-6.05,2.22-6.22,5.87-.19,4.28-.22,8.57,0,12.85.17,3.56,2.38,5.74,6.12,5.91,4.06.18,6.3-2.14,6.85-5.81A43.69,43.69,0,0,0,546.87,224.67Z"/><path class="cls-2" d="M0,193.86V0H366.53V193.86Z"/><path class="cls-1" d="M366.75,206.61c0,13.82,0,26.93,0,40,0,.83-.18,1.66-.33,3.07h-5.95q-111.69,0-223.38.09c-4.37,0-6.42-1.32-8.47-5.1-9.34-17.23-24.38-26.62-44.66-26.64-20,0-34.91,9.13-44.64,26-.78,1.35-1.46,2.74-2.28,4.29-5.68-.54-9.13-4.15-12-8-9.59-13.1-.82-31.62,15.72-33.49a43.29,43.29,0,0,1,4.85-.17H366.75Z"/><path class="cls-1" d="M44.94,261.1c.14-19.77,17.36-36.11,37.64-35.7s37,16.5,37,35.94c0,19.68-17,35.95-37.49,35.83C61.39,297.06,44.8,280.93,44.94,261.1Zm63,.4c.09-13.71-11.19-24.8-25.39-25-14.4-.17-26.28,10.93-26.4,24.68-.12,13.58,11.95,25.19,26.11,25.11S107.9,275.14,108,261.5Z"/><path class="cls-1" d="M497.66,261.47c-.1,19.86-17,35.95-37.52,35.71s-37-16.19-37.14-35.7,17-36.06,37.4-36.08S497.76,241.75,497.66,261.47ZM460.4,236.53c-14.29,0-25.7,10.89-25.79,24.58-.09,13.89,11.5,25.2,25.83,25.2s26.2-11.65,26-25.23S474.52,236.51,460.4,236.53Z"/><path class="cls-3" d="M461.7,147.16c-15.45,0-30.9,0-46.34,0-8.25,0-10.54-2.25-10.56-10.22q-.06-22.52,0-45c0-7.6,2.37-9.77,10.36-9.78,18.32,0,36.65.15,55-.06,8.71-.1,14.73,2.71,19.19,10.44,8.61,14.92,18.2,29.31,27.37,43.93,3.93,6.27,1.48,10.57-6.48,10.67-14.73.19-29.46.06-44.19.06Z"/><path class="cls-3" d="M546.86,224.67a42.6,42.6,0,0,1-.06,6.16c-.56,3.67-2.79,6-6.85,5.81-3.74-.17-5.95-2.35-6.12-5.91-.21-4.27-.19-8.57,0-12.85.16-3.65,2.64-5.76,6.22-5.87,3.92-.12,6.29,2.27,6.77,6A50.81,50.81,0,0,1,546.86,224.67Z"/><path class="cls-3" d="M108,261.5c-.09,13.64-11.57,24.73-25.69,24.81S56.07,274.79,56.2,261.21c.13-13.75,12-24.85,26.4-24.68C96.8,236.7,108.08,247.79,108,261.5Z"/><path class="cls-3" d="M460.4,236.53c14.12,0,25.81,11,26,24.55s-11.78,25.22-26,25.23S434.51,275,434.6,261.11C434.7,247.42,446.1,236.54,460.4,236.53Z"/></g></g></svg>