<svg xmlns="http://www.w3.org/2000/svg" viewBox="0 0 199.22 607.16"><defs><style>.cls-1{fill:#49a2af;}.cls-2{fill:#fff;stroke:#f15b2c;stroke-miterlimit:10;stroke-width:7.1px;}.cls-3{fill:#abd6e1;}.cls-4{fill:#ffcb0c;}.cls-5{fill:#fdb915;}</style></defs><title>bottle-bskp</title><g id="Layer_2" data-name="Layer 2"><g id="Layer_1-2" data-name="Layer 1"><path class="cls-1" d="M147.22,40.15c0,2.71-2.52,5-5.55,5H57.89c-3,0-5.55-2.26-5.55-5V33.23c0-2.71,2.52-5,5.55-5h83.78c3,0,5.55,2.26,5.55,5Z"/><path class="cls-2" d="M195.67,179.7C195.67,119.4,144.53,71,144.53,71c-5-7.82-3.7-62.11-3.7-62.11H58.39S59.57,63.16,54.69,71c0,0-51.14,48.57-51.14,108.72a242.89,242.89,0,0,0,3.2,26.77c1.68,9.92,8.08,22,8.08,34.59,0,12.78-8.08,26-8.08,38.5v49c0,24.06,8.75,91,8.75,106s-8.75,30.08-8.75,49v82.56s4.37,37.44,93,37.44h0c88.66,0,93-37.44,93-37.44V483.61c0-18.95-8.75-34-8.75-49s8.75-82,8.75-106v-49c0-12.48-8.08-25.71-8.08-38.5,0-12.63,6.39-24.66,8.08-34.59A233.19,233.19,0,0,0,195.67,179.7Z"/><path class="cls-3" d="M9.71,189.75c.48,4.33,1.11,10,2.22,16.44,1.59,9.86,7.63,21.82,7.63,34.38s-7.63,25.86-7.63,38.26v48.73c0,23.91,8.26,90.43,8.26,105.37s-8.26,29.89-8.26,48.73v82.06s4.13,37.22,87.89,37.22h0c83.75,0,87.89-37.22,87.89-37.22V481.65c0-18.83-8.26-33.78-8.26-48.73s8.26-81.46,8.26-105.37V278.83c0-12.41-7.63-25.56-7.63-38.26s6-24.51,7.63-34.38c1.11-6.73,1.75-12.7,2.22-17.19,0,0-45.93-4.33-91.7-4.19C53.42,185,9.71,189.75,9.71,189.75Z"/><path class="cls-4" d="M150.75,50.23c0,3-2.69,5.26-5.89,5.26H54.69c-3.36,0-5.89-2.41-5.89-5.26V42.71c0-3,2.69-5.26,5.89-5.26h90.17c3.36,0,5.89,2.41,5.89,5.26Z"/><path class="cls-5" d="M144.36,70.53a21,21,0,0,1-1.68-5.86H56.37a42.54,42.54,0,0,1-1.51,5.71v.15Z"/><path class="cls-5" d="M153.44,54a1.61,1.61,0,0,1-1.68,1.5H47.63A1.6,1.6,0,0,1,45.94,54V51.88a1.61,1.61,0,0,1,1.68-1.5H151.76a1.6,1.6,0,0,1,1.68,1.5Z"/><path class="cls-4" d="M133.93,0H65.46C46.78,0,48.63,12.33,48.63,12.33V31.58c0,2,.67,2.56,2.86,2.56h96.06c2.52,0,3.2-1.05,3.2-2.71V12.48S152.6,0,133.93,0Z"/></g></g></svg>