<svg xmlns="http://www.w3.org/2000/svg" viewBox="0 0 483.96 429.08"><defs><style>.cls-1{fill:#fff;}.cls-2{fill:none;}.cls-3{fill:#ffcb0c;}.cls-4{fill:#f15b2a;}</style></defs><title>tank-bskp</title><g id="Layer_2" data-name="Layer 2"><g id="Layer_1-2" data-name="Layer 1"><g id="_Group_" data-name="&lt;Group&gt;"><rect class="cls-1" x="132.22" y="7.5" width="59.87" height="29.93"/><rect class="cls-1" x="386.66" y="291.87" width="29.93" height="129.71"/><rect class="cls-1" x="67.37" y="291.87" width="29.93" height="129.71"/><path class="cls-1" d="M366.7,256.95h93.59c6.19,0,11.17,3.09,11.17,7v21c0,3.89-5,7-11.17,7H23.66c-6.19,0-11.18-3.09-11.18-7v-21c0-3.89,5-7,11.18-7h343Z"/><rect class="cls-2" x="276.9" y="37.43" width="69.84" height="219.51"/><path class="cls-3" d="M276.9,37.43V256.95H117.26C56.89,256.95,7.5,207.56,7.5,147.19A110,110,0,0,1,117.26,37.43H276.9Z"/><path class="cls-3" d="M366.7,37.43c60.37,0,109.76,49.39,109.76,109.76A110,110,0,0,1,366.7,256.95h-20V37.43Z"/><rect class="cls-1" x="87.32" y="79.82" width="149.67" height="15"/><rect class="cls-1" x="117.25" y="119.73" width="119.73" height="15"/><rect class="cls-1" x="177.12" y="159.65" width="59.87" height="15"/><path class="cls-4" d="M466.48,429.08v-15H424.09V299.37h36.2c10.65,0,18.67-6.23,18.67-14.48v-21c0-8.26-8-14.48-18.67-14.48H424A118.45,118.45,0,0,0,449.53,230,117.14,117.14,0,0,0,366.7,29.93H199.59V0H124.72V29.93h-7.47A117.23,117.23,0,0,0,59.93,249.44H23.66C13,249.44,5,255.67,5,263.93v21c0,8.26,8,14.48,18.67,14.48h36.2V414.08H17.48v15M469,147.19A102.54,102.54,0,0,1,366.7,249.44H354.24V44.93H366.7A102.37,102.37,0,0,1,469,147.19Zm-154.62-10V44.93h24.91V249.44H284.4V44.93h14.93v92.28ZM139.72,15h44.87V29.93H139.72ZM15,147.19A102.54,102.54,0,0,1,117.25,44.93H269.4V249.44H117.25A102.37,102.37,0,0,1,15,147.19Zm89.8,152.18H379.16V414.08H104.8Zm-15,114.71H74.87V299.37H89.8Zm304.35,0V299.37h14.93V414.08ZM464,283.62a8.47,8.47,0,0,1-3.67.74H23.66a8.46,8.46,0,0,1-3.67-.74V265.19a8.47,8.47,0,0,1,3.67-.74H460.29a8.47,8.47,0,0,1,3.67.74v18.43Z"/></g></g></g></svg>