<?xml version="1.0" encoding="iso-8859-1"?>
<!-- Generator: Adobe Illustrator 16.0.0, SVG Export Plug-In . SVG Version: 6.00 Build 0)  -->
<!DOCTYPE svg PUBLIC "-//W3C//DTD SVG 1.1//EN" "http://www.w3.org/Graphics/SVG/1.1/DTD/svg11.dtd">
<svg version="1.1" id="Capa_1" xmlns="http://www.w3.org/2000/svg" xmlns:xlink="http://www.w3.org/1999/xlink" x="0px" y="0px"
	 width="554.625px" height="554.625px" viewBox="0 0 554.625 554.625" style="enable-background:new 0 0 554.625 554.625;"
	 xml:space="preserve">
<g>
	<polygon points="372.938,554.625 359.388,258.188 344.652,258.188 333.091,554.625 	"/>
	<path d="M361.549,172.125c7.114,0,12.89-7.564,12.89-14.679L361.836,15.577c0-7.114-0.048-15.577-7.163-15.577h-1.721
		c-7.115,0-7.736,8.463-7.736,15.577l-12.029,141.869c0,7.115,5.766,14.679,12.89,14.679H361.549z"/>
	<path d="M531.073,324.36l0.928-1.444c3.835-5.996-2.964-11.073-8.97-14.898l-113.096-86.493
		c-5.995-3.834-15.481-3.041-19.307,2.964l-8.319,13.034c-3.834,5.996-0.564,14.927,5.441,18.762l126.35,65.742
		C520.085,325.842,527.239,330.355,531.073,324.36z"/>
	<path d="M180.961,322.906l0.927,1.444c3.834,5.995,10.978,1.482,16.983-2.353l126.35-65.742c5.996-3.834,9.266-12.766,5.432-18.762
		l-8.319-13.034c-3.835-5.996-13.312-6.789-19.307-2.964l-113.105,86.512C183.926,311.843,177.126,316.911,180.961,322.906z"/>
	<circle cx="353.019" cy="212.766" r="19.823"/>
	<path d="M27.722,80.296c-2.515-0.794-5.192,0.612-5.996,3.136c-0.784,2.525,0.612,5.202,3.136,5.996
		c3.787,1.186,59.728,18.408,111.7,18.408c33.258,0,64.882-7.057,80.172-29.874c14.172-21.143,10.691-35.668,7.363-42.438
		c-4.619-9.399-14.497-15.701-25.742-16.438c-11.771-0.708-22.596,4.513-29.003,14.124c-1.463,2.19-0.87,5.164,1.329,6.627
		c2.19,1.454,5.154,0.88,6.627-1.329c4.494-6.732,12.077-10.49,20.425-9.878c7.851,0.517,14.669,4.772,17.786,11.112
		c4.188,8.501,1.798,20.187-6.713,32.895C173.541,125.221,29.185,80.755,27.722,80.296z"/>
	<path d="M24.844,120.994c4.179,1.339,68.037,21.439,127.793,21.439c34.76,0,68.133-6.809,87.563-28.047
		c1.789-1.951,1.645-4.982-0.296-6.761c-1.96-1.788-4.982-1.645-6.76,0.296c-48.75,53.311-203.834,4.466-205.393,3.959
		c-2.505-0.775-5.202,0.593-6.015,3.098C20.933,117.495,22.329,120.182,24.844,120.994z"/>
	<path d="M26.517,157.007c1.75-0.039,172.393-7.287,192.589,59.173c0.622,2.065,2.524,3.385,4.581,3.385
		c0.459,0,0.928-0.067,1.396-0.201c2.524-0.765,3.949-3.433,3.185-5.967c-22.348-73.497-194.846-66.325-202.189-65.933
		c-2.63,0.125-4.676,2.352-4.552,4.992C21.641,155.094,23.821,157.389,26.517,157.007z"/>
	<path d="M170.576,219.746c1.606,4.208,1.224,8.53-1.138,12.823c-5.355,9.725-17.652,12.508-26.498,10.271
		c-4.169-1.071-13.856-4.982-13.856-18.131c0-2.639-2.142-4.781-4.781-4.781c-2.639,0-4.781,2.142-4.781,4.781
		c0,13.55,8.062,24.05,21.038,27.377c2.697,0.698,5.584,1.052,8.54,1.052c10.882,0,22.605-4.887,28.707-15.97
		c3.739-6.78,4.322-13.99,1.711-20.855c-3.815-9.993-14.209-18.599-28.505-23.62C111.25,178.733,29.75,178.561,26.307,178.561
		c-2.64,0-4.781,2.142-4.781,4.781s2.142,4.781,4.781,4.781c0.832,0,83.318,0.172,121.53,13.588
		C159.302,205.766,167.813,212.498,170.576,219.746z"/>
</g>
<g>
</g>
<g>
</g>
<g>
</g>
<g>
</g>
<g>
</g>
<g>
</g>
<g>
</g>
<g>
</g>
<g>
</g>
<g>
</g>
<g>
</g>
<g>
</g>
<g>
</g>
<g>
</g>
<g>
</g>
</svg>
