<svg xmlns="http://www.w3.org/2000/svg" viewBox="0 0 300 300"><defs><style>.cls-1{fill:#ef4438;}.cls-2{fill:#fec111;}.cls-3{fill:#dcdcdd;}.cls-4{fill:#e02828;}.cls-5{fill:#478fcc;}.cls-6{fill:#f4ac0c;}.cls-7{fill:#328aba;}</style></defs><title>dashboard-icon-bskp</title><g id="Layer_2" data-name="Layer 2"><g id="Layer_1-2" data-name="Layer 1"><g id="_Group_" data-name="&lt;Group&gt;"><rect id="_Path_" data-name="&lt;Path&gt;" class="cls-1" y="140" width="160" height="160"/><rect id="_Path_2" data-name="&lt;Path&gt;" class="cls-2" x="150" y="140" width="150" height="160"/><rect id="_Path_3" data-name="&lt;Path&gt;" class="cls-3" x="140" width="160" height="150"/><path id="_Path_4" data-name="&lt;Path&gt;" class="cls-4" d="M162.5,193.78A53.22,53.22,0,0,0,150,195.55V150L0,300H150V254.5a53.19,53.19,0,0,0,12.53,1.77,31.25,31.25,0,0,0,0-62.5Z"/><polygon id="_Path_5" data-name="&lt;Path&gt;" class="cls-5" points="150 0 150 150 0 130 0 0 150 0"/><path id="_Path_6" data-name="&lt;Path&gt;" class="cls-6" d="M193.78,137.5A53.23,53.23,0,0,0,195.55,150H150L300,300V150H254.5a53.15,53.15,0,0,0,1.77-12.53,31.25,31.25,0,0,0-62.5,0Z"/><path id="_Path_7" data-name="&lt;Path&gt;" class="cls-7" d="M106.22,162.5A53.23,53.23,0,0,0,104.45,150H150L0,0V150H45.5a53.15,53.15,0,0,0-1.77,12.53,31.25,31.25,0,0,0,62.5,0Z"/></g></g></g></svg>