<svg xmlns="http://www.w3.org/2000/svg" viewBox="0 0 412.47 371.56"><defs><style>.cls-1{fill:#ef4438;}.cls-2{fill:#fec111;}.cls-3{fill:#dcdcdd;}.cls-4{fill:#e02828;}.cls-5{fill:#478fcc;}.cls-6{fill:#328aba;}.cls-7{fill:#ecf0f1;}.cls-8{fill:#dadfe1;}.cls-9{fill:#f4ac0c;}</style></defs><title>multi-dashboard-bskp</title><g id="Layer_2" data-name="Layer 2"><g id="Layer_1-2" data-name="Layer 1"><g id="_Group_" data-name="&lt;Group&gt;"><rect id="_Path_" data-name="&lt;Path&gt;" class="cls-1" y="140" width="160" height="160"/><rect id="_Path_2" data-name="&lt;Path&gt;" class="cls-2" x="150" y="140" width="150" height="160"/><rect id="_Path_3" data-name="&lt;Path&gt;" class="cls-3" x="140" width="160" height="150"/><path id="_Path_4" data-name="&lt;Path&gt;" class="cls-4" d="M162.5,193.78A53.22,53.22,0,0,0,150,195.55V150L0,300H150V254.5a53.19,53.19,0,0,0,12.53,1.77,31.25,31.25,0,0,0,0-62.5Z"/><polygon id="_Path_5" data-name="&lt;Path&gt;" class="cls-5" points="150 0 150 150 0 130 0 0 150 0"/><path id="_Path_6" data-name="&lt;Path&gt;" class="cls-6" d="M106.22,162.5A53.23,53.23,0,0,0,104.45,150H150L0,0V150H45.5a53.15,53.15,0,0,0-1.77,12.53,31.25,31.25,0,0,0,62.5,0Z"/></g><rect id="_Path_7" data-name="&lt;Path&gt;" class="cls-7" x="148.87" y="1.1" width="150.14" height="150" transform="matrix(1, 0, 0, 1, -0.19, 0.56)"/><path id="_Path_8" data-name="&lt;Path&gt;" class="cls-8" d="M136.45,107.51a53.23,53.23,0,0,0,12.53-1.8l.11,45.55L298.69.88l-150,.38.12,45.5A53.15,53.15,0,0,0,136.29,45a31.25,31.25,0,0,0,.16,62.5Z"/><path id="_Path_9" data-name="&lt;Path&gt;" class="cls-9" d="M193.78,138.5A53.23,53.23,0,0,0,195.55,151H150L300,301V151H254.5a53.15,53.15,0,0,0,1.77-12.53,31.25,31.25,0,0,0-62.5,0Z"/><g id="_Group_2" data-name="&lt;Group&gt;"><rect id="_Path_10" data-name="&lt;Path&gt;" class="cls-1" x="190.1" y="28.06" width="160" height="160"/><rect id="_Path_11" data-name="&lt;Path&gt;" class="cls-2" x="50.1" y="27.92" width="150" height="160"/><rect id="_Path_12" data-name="&lt;Path&gt;" class="cls-3" x="49.97" y="177.93" width="160" height="150"/><path id="_Path_13" data-name="&lt;Path&gt;" class="cls-4" d="M187.57,134.21a53.22,53.22,0,0,0,12.53-1.76l0,45.55L350.18,28.14,200.2,28l0,45.5a53.19,53.19,0,0,0-12.53-1.78,31.25,31.25,0,0,0-.06,62.5Z"/><polygon id="_Path_14" data-name="&lt;Path&gt;" class="cls-5" points="199.89 328 200.03 178 350.02 198.14 349.89 328.14 199.89 328"/><path id="_Path_15" data-name="&lt;Path&gt;" class="cls-6" d="M243.82,165.53a53.23,53.23,0,0,0,1.76,12.53L200,178,349.89,328.14l.14-150-45.5,0a53.15,53.15,0,0,0,1.78-12.53,31.25,31.25,0,0,0-62.5-.06Z"/></g><rect id="_Path_16" data-name="&lt;Path&gt;" class="cls-7" x="50.95" y="176.83" width="150.14" height="150" transform="translate(-0.39 0.2) rotate(-0.09)"/><path id="_Path_17" data-name="&lt;Path&gt;" class="cls-8" d="M213.55,220.49A53.23,53.23,0,0,0,201,222.29l-.07-45.55L51.21,327l150-.23-.07-45.5A53.15,53.15,0,0,0,213.65,283a31.25,31.25,0,0,0-.1-62.5Z"/><path id="_Path_18" data-name="&lt;Path&gt;" class="cls-9" d="M156.25,189.46a53.23,53.23,0,0,0-1.76-12.53L200,177,50.18,26.85l-.14,150,45.5,0a53.15,53.15,0,0,0-1.78,12.53,31.25,31.25,0,0,0,62.5.06Z"/><g id="_Group_3" data-name="&lt;Group&gt;"><rect id="_Path_19" data-name="&lt;Path&gt;" class="cls-1" x="251.57" y="211.47" width="160" height="160"/><rect id="_Path_20" data-name="&lt;Path&gt;" class="cls-2" x="251.5" y="71.47" width="160" height="150"/><rect id="_Path_21" data-name="&lt;Path&gt;" class="cls-3" x="111.51" y="71.53" width="150" height="160"/><path id="_Path_22" data-name="&lt;Path&gt;" class="cls-4" d="M305.31,209a53.22,53.22,0,0,0,1.78,12.53l-45.55,0L411.6,371.43l-.06-150-45.5,0a53.19,53.19,0,0,0,1.77-12.53,31.25,31.25,0,0,0-62.5,0Z"/><polygon id="_Path_23" data-name="&lt;Path&gt;" class="cls-5" points="111.54 221.56 261.54 221.5 241.6 371.5 111.6 371.56 111.54 221.56"/><path id="_Path_24" data-name="&lt;Path&gt;" class="cls-6" d="M274.06,265.27A53.23,53.23,0,0,0,261.53,267l0-45.55L111.6,371.56l150-.06,0-45.5a53.15,53.15,0,0,0,12.53,1.77,31.25,31.25,0,0,0,0-62.5Z"/></g><rect id="_Path_25" data-name="&lt;Path&gt;" class="cls-7" x="112.6" y="72.51" width="150" height="150.14" transform="translate(-0.43 0.55) rotate(-0.17)"/><path id="_Path_26" data-name="&lt;Path&gt;" class="cls-8" d="M219.06,235.07a53.23,53.23,0,0,0-1.81-12.52l45.55-.13L112.36,72.87l.44,150,45.5-.14a53.15,53.15,0,0,0-1.74,12.54,31.25,31.25,0,0,0,62.5-.18Z"/><path id="_Path_27" data-name="&lt;Path&gt;" class="cls-9" d="M250,177.73a53.23,53.23,0,0,0,12.53-1.78l0,45.55L412.47,71.43l-150,.06,0,45.5A53.15,53.15,0,0,0,250,115.23a31.25,31.25,0,0,0,0,62.5Z"/></g></g></svg>