<svg xmlns="http://www.w3.org/2000/svg" viewBox="0 0 512 389.57"><defs><style>.cls-1{fill:#efefef;}.cls-2{fill:#1bb3f9;}.cls-3{fill:#b5b8bc;}.cls-4{fill:#478fcc;}</style></defs><title>multi-dashboard-icon-2-bskp</title><g id="Layer_2" data-name="Layer 2"><g id="Layer_1-2" data-name="Layer 1"><path class="cls-1" d="M495.3,389.57H16.7A16.7,16.7,0,0,1,0,372.87V116.51a16.7,16.7,0,0,1,16.7-16.7H495.3a16.7,16.7,0,0,1,16.7,16.7V372.87A16.7,16.7,0,0,1,495.3,389.57Z"/><path class="cls-2" d="M512,133.21H0V16.7A16.7,16.7,0,0,1,16.7,0H495.3A16.7,16.7,0,0,1,512,16.7V133.21Z"/><path class="cls-3" d="M456.47,168.8H306.54c-6.94,0-12.53,4.64-12.53,10.39v103.7c0,5.72,5.59,10.37,12.53,10.37H456.47c6.88,0,12.49-4.65,12.49-10.37V179.19C469,173.44,463.34,168.8,456.47,168.8Zm-102.71,7.79c3.43,0,6.24,2.32,6.24,5.19s-2.81,5.18-6.24,5.18-6.24-2.32-6.24-5.18S350.31,176.59,353.76,176.59Zm-19.12,0c3.43,0,6.24,2.32,6.24,5.19s-2.81,5.18-6.24,5.18-6.27-2.32-6.27-5.18S331.17,176.59,334.64,176.59Zm-18.76,0c3.46,0,6.24,2.32,6.24,5.19s-2.78,5.18-6.24,5.18-6.24-2.32-6.24-5.18S312.44,176.59,315.88,176.59Zm140.58,106.3H306.54v-88H456.47Z"/><rect class="cls-3" x="325.79" y="217.79" width="23.74" height="6.67"/><rect class="cls-3" x="361.4" y="217.79" width="75.78" height="6.67"/><rect class="cls-3" x="325.79" y="234.38" width="23.74" height="6.68"/><rect class="cls-3" x="325.79" y="250.06" width="23.74" height="6.68"/><rect class="cls-3" x="361.4" y="234.38" width="75.78" height="6.68"/><rect class="cls-3" x="361.4" y="250.06" width="75.78" height="6.68"/><path class="cls-2" d="M211.74,169.86H61.81c-6.94,0-12.53,4.64-12.53,10.39v103.7c0,5.72,5.59,10.37,12.53,10.37H211.74c6.88,0,12.49-4.65,12.49-10.37V180.25C224.23,174.5,218.61,169.86,211.74,169.86ZM109,177.65c3.43,0,6.24,2.32,6.24,5.19S112.46,188,109,188s-6.24-2.32-6.24-5.18S105.58,177.65,109,177.65Zm-19.12,0c3.43,0,6.24,2.32,6.24,5.19S93.34,188,89.91,188s-6.27-2.32-6.27-5.18S86.44,177.65,89.91,177.65Zm-18.76,0c3.46,0,6.24,2.32,6.24,5.19S74.61,188,71.15,188s-6.24-2.32-6.24-5.18S67.71,177.65,71.15,177.65Zm140.58,106.3H61.81v-88H211.74Z"/><rect class="cls-2" x="81.06" y="218.85" width="23.74" height="6.67"/><rect class="cls-2" x="116.68" y="218.85" width="75.78" height="6.67"/><rect class="cls-2" x="81.06" y="235.43" width="23.74" height="6.68"/><rect class="cls-2" x="81.06" y="251.12" width="23.74" height="6.68"/><rect class="cls-2" x="116.68" y="235.43" width="75.78" height="6.68"/><rect class="cls-2" x="116.68" y="251.12" width="75.78" height="6.68"/><path class="cls-4" d="M458.57,84.55a22.26,22.26,0,1,1,22.26-22.26A22.29,22.29,0,0,1,458.57,84.55Z"/><path class="cls-4" d="M397.93,84.55a22.26,22.26,0,1,1,22.26-22.26A22.29,22.29,0,0,1,397.93,84.55Z"/><path class="cls-4" d="M337.29,84.55a22.26,22.26,0,1,1,22.26-22.26A22.29,22.29,0,0,1,337.29,84.55Z"/></g></g></svg>