<?xml version="1.0" encoding="iso-8859-1"?>
<!-- Generator: Adobe Illustrator 19.0.0, SVG Export Plug-In . SVG Version: 6.00 Build 0)  -->
<svg version="1.1" id="Layer_1" xmlns="http://www.w3.org/2000/svg" xmlns:xlink="http://www.w3.org/1999/xlink" x="0px" y="0px"
	 viewBox="0 0 395.701 395.701" style="enable-background:new 0 0 395.701 395.701;" xml:space="preserve">
<path style="fill:#dc3446;" d="M189.156,340.008c-78.481,0-142.158-63.677-142.158-142.158S110.675,55.693,189.156,55.693
	s142.158,63.677,142.158,142.158S267.701,340.008,189.156,340.008z"/>
<path style="fill:#FFFFFF;" d="M189.156,82.844L189.156,82.844c-63.677,0-115.006,51.329-115.006,115.006l0,0
	c0,63.677,51.329,115.006,115.006,115.006l0,0c63.677,0,115.006-51.329,115.006-115.006l0,0
	C304.162,134.174,252.832,82.844,189.156,82.844z"/>
<g>
	<path style="fill:#193651;" d="M189.156,76.703c-66.78,0-121.147,54.432-121.147,121.147s54.368,121.147,121.147,121.147
		s121.147-54.368,121.147-121.147S255.935,76.703,189.156,76.703z M127.354,197.851c0-12.347,1.228-24.76,3.685-35.879h51.911
		v71.693h-51.911C128.582,222.61,127.354,210.198,127.354,197.851z M195.362,89.697c21.657,3.685,40.21,27.216,48.808,59.992
		h-48.808V89.697z M183.014,89.697v59.992h-48.808C142.804,116.849,161.358,93.382,183.014,89.697z M183.014,246.077v59.992
		c-21.657-3.685-40.21-27.216-48.808-59.992L183.014,246.077L183.014,246.077z M195.362,306.004v-59.992h48.808
		C234.925,278.853,216.954,302.319,195.362,306.004z M195.362,233.729v-71.758h51.911c2.457,11.119,3.685,23.467,3.685,35.879
		s-1.228,24.76-3.685,35.879H195.362z M259.62,161.972h31.547c3.685,11.119,6.206,23.467,6.206,35.879s-2.457,24.76-6.206,35.879
		H259.62c1.875-11.119,3.103-23.467,3.103-35.879C263.37,185.503,262.141,173.156,259.62,161.972z M286.19,149.624h-29.026
		c-5.56-21.657-14.869-39.564-25.988-52.558C255.289,107.604,275.071,126.158,286.19,149.624z M147.135,97.713
		c-11.766,12.994-20.428,30.901-25.988,52.558H92.121C103.24,126.158,123.022,107.604,147.135,97.713z M86.562,161.972h31.547
		c-1.875,11.119-3.103,23.467-3.103,35.879s1.228,24.76,3.103,35.879H86.562c-4.331-11.119-6.206-23.467-6.206-35.879
		S82.23,173.156,86.562,161.972z M91.475,246.077h29.026c5.56,21.657,14.804,39.564,25.988,52.558
		C123.022,288.097,103.24,269.543,91.475,246.077z M231.176,297.988c11.766-12.994,20.428-30.901,25.988-52.558h29.026
		C275.071,269.543,255.289,288.097,231.176,297.988z"/>
	<path style="fill:#193651;" d="M32.776,116.267l-11.119-5.56c-1.875,3.685-3.685,8.016-5.56,11.766l11.119,4.913
		C28.444,123.701,30.319,119.952,32.776,116.267z"/>
	<path style="fill:#193651;" d="M77.899,61.253l-8.016-9.891c-3.685,3.103-6.788,5.56-9.891,8.663l8.663,8.663
		C71.111,66.166,74.214,63.709,77.899,61.253z"/>
	<path style="fill:#193651;" d="M44.477,97.067l-9.891-7.434c-2.457,3.103-4.331,6.788-6.788,10.537l10.537,6.206
		C40.21,102.626,42.667,99.588,44.477,97.067z"/>
	<path style="fill:#193651;" d="M16.679,161.39l-12.347-2.457c-1.228,4.331-1.875,8.663-2.457,12.994l12.347,1.875
		C14.222,170.053,15.451,165.721,16.679,161.39z"/>
	<path style="fill:#193651;" d="M59.992,77.285l-9.244-8.663c-3.103,3.103-6.206,6.788-8.663,9.891l9.891,8.016
		C54.432,83.491,56.889,80.388,59.992,77.285z"/>
	<path style="fill:#193651;" d="M22.885,139.152l-11.766-4.331c-1.228,4.331-2.457,8.016-3.685,12.347l11.766,3.103
		C19.782,146.521,21.01,142.836,22.885,139.152z"/>
	<path style="fill:#193651;" d="M32.776,280.081l-11.119,5.56c1.875,3.685,3.685,7.434,6.206,11.119l11.119-6.206
		C36.461,286.869,34.586,283.766,32.776,280.081z"/>
	<path style="fill:#193651;" d="M12.347,197.851c0-3.685,0-8.016,0.646-12.347l-12.347-0.646C0,189.188,0,193.519,0,197.851v0.646
		h12.347V197.851z"/>
	<path style="fill:#193651;" d="M22.885,257.842l-11.766,4.331c1.228,3.685,3.103,8.016,4.913,11.766l11.119-4.913
		C25.988,265.212,24.113,261.527,22.885,257.842z"/>
	<path style="fill:#193651;" d="M12.994,210.844l-12.347,0.582c0,4.331,0.646,8.663,1.228,12.994l12.347-1.875
		C13.576,218.861,12.994,214.529,12.994,210.844z"/>
	<path style="fill:#193651;" d="M16.679,234.958l-12.347,2.457c0.646,4.331,1.875,8.016,3.103,12.347l12.347-3.103
		C18.554,242.974,17.325,238.642,16.679,234.958z"/>
	<path style="fill:#193651;" d="M355.426,138.505l11.766-4.331c-1.875-3.685-3.103-8.016-4.913-11.766l-11.119,4.913
		C352.388,131.071,354.198,134.82,355.426,138.505z"/>
	<path style="fill:#193651;" d="M44.477,299.863l-9.891,7.434c2.457,3.685,5.56,7.434,8.016,10.537l9.244-8.663L44.477,299.863z"/>
	<path style="fill:#193651;" d="M345.535,116.267l10.537-5.56c-1.875-3.685-3.685-7.434-6.206-11.119l-10.537,6.206
		C341.85,109.479,343.725,112.517,345.535,116.267z"/>
	<path style="fill:#193651;" d="M333.188,95.838l9.891-7.434c-2.457-3.685-5.56-7.434-8.016-10.537l-9.244,8.016
		C328.275,89.697,330.731,92.735,333.188,95.838z"/>
	<path style="fill:#193651;" d="M140.929,27.83l-3.103-11.766c-4.331,1.228-8.016,2.457-12.347,3.685l4.331,11.766
		C133.495,30.352,137.244,29.059,140.929,27.83z"/>
	<path style="fill:#193651;" d="M317.737,77.285l9.244-8.663l-9.244-9.244l-8.663,9.244
		C312.178,71.143,315.281,74.246,317.737,77.285z"/>
	<path style="fill:#193651;" d="M165.042,22.271l-1.875-12.347c-4.331,0.646-8.663,1.875-12.994,2.457l2.457,12.347
		C157.026,24.145,160.711,23.499,165.042,22.271z"/>
	<path style="fill:#193651;" d="M281.277,348.671l6.206,10.537c3.685-2.457,7.434-4.978,11.119-7.434l-7.434-9.891
		C288.065,344.339,284.962,346.861,281.277,348.671z"/>
	<path style="fill:#193651;" d="M300.412,335.095l8.016,9.244c3.685-3.103,6.788-5.56,9.891-8.016l-8.663-9.244
		C306.618,330.117,303.515,332.638,300.412,335.095z"/>
	<path style="fill:#193651;" d="M275.717,29.705l-5.56,11.119c3.685,1.875,6.788,4.331,10.537,6.206l6.206-11.119
		C283.152,34.036,279.402,31.58,275.717,29.705z"/>
	<path style="fill:#193651;" d="M297.956,43.281l-7.434,9.891c3.685,2.457,6.788,4.978,9.891,7.434l8.016-9.244
		C304.743,48.259,301.64,45.802,297.956,43.281z"/>
	<path style="fill:#193651;" d="M252.251,19.814l-4.331,11.766c3.685,1.228,7.434,2.457,11.119,4.331l4.978-11.119
		C260.267,22.917,256.517,21.042,252.251,19.814z"/>
	<path style="fill:#193651;" d="M259.62,359.79l4.913,11.119c4.331-1.875,8.016-3.685,11.766-4.913l-5.56-11.119
		C267.055,356.752,263.37,357.98,259.62,359.79z"/>
	<path style="fill:#193651;" d="M361.632,233.083l12.347,2.457c1.228-3.685,1.875-8.016,1.875-12.347l-12.347-1.875
		C362.861,225.067,362.279,229.398,361.632,233.083z"/>
	<path style="fill:#193651;" d="M237.382,367.871l3.103,11.766c4.331-1.228,8.016-2.457,12.994-3.685l-4.331-11.766
		C244.816,365.349,241.067,366.642,237.382,367.871z"/>
	<path style="fill:#193651;" d="M355.426,256.549l11.766,4.331c1.228-4.331,2.457-8.663,3.685-12.994l-11.766-3.103
		C357.947,249.18,356.719,252.865,355.426,256.549z"/>
	<path style="fill:#193651;" d="M346.182,278.853l11.119,5.56c1.875-3.685,3.685-7.434,4.978-11.766l-11.119-4.978
		C349.867,271.418,348.057,275.103,346.182,278.853z"/>
	<path style="fill:#193651;" d="M333.834,299.216l9.891,7.434c2.457-3.685,4.978-7.434,7.434-11.119l-10.537-6.206
		C338.166,292.428,336.291,296.113,333.834,299.216z"/>
	<path style="fill:#193651;" d="M318.384,317.77l9.244,8.663c2.457-3.103,5.56-6.206,8.663-9.891l-9.891-8.016
		C323.943,311.564,320.84,314.667,318.384,317.77z"/>
	<path style="fill:#193651;" d="M163.814,385.131c4.331,0.646,8.663,1.228,12.994,1.228l0.646-12.347
		c-3.685-0.646-8.016-0.646-11.766-1.228L163.814,385.131z"/>
	<path style="fill:#193651;" d="M139.119,380.218c3.685,1.228,8.016,2.457,12.347,3.103l2.457-11.766
		c-3.685-1.228-8.016-1.875-11.766-3.103L139.119,380.218z"/>
	<path style="fill:#193651;" d="M60.574,318.416l-9.244,8.663l9.244,9.244l8.663-9.244C66.133,323.976,63.03,321.519,60.574,318.416
		z"/>
	<path style="fill:#193651;" d="M201.503,9.277l-0.646,12.347c3.685,0,8.016,0.646,11.766,1.228l1.875-12.347
		C210.166,9.923,205.834,9.277,201.503,9.277z"/>
	<path style="fill:#193651;" d="M176.808,21.689c3.685,0,8.016-0.646,12.347-0.646V8.695c-4.331,0-8.663,0.646-12.994,0.646
		L176.808,21.689z"/>
	<path style="fill:#193651;" d="M213.269,372.784l1.875,12.347c4.331-0.646,8.663-1.228,12.347-1.875l-2.457-12.347
		C221.285,371.556,216.954,372.202,213.269,372.784z"/>
	<path style="fill:#193651;" d="M226.844,12.38l-2.457,12.347c4.331,0.646,8.016,1.875,11.766,3.103l3.103-12.347
		C235.507,14.255,231.176,13.026,226.844,12.38z"/>
	<path style="fill:#193651;" d="M189.802,374.659v12.347c4.331,0,8.663-0.646,12.994-0.646l-0.646-12.347
		C197.818,374.659,194.133,374.659,189.802,374.659z"/>
</g>
<circle style="fill:#FFFFFF;" cx="371.523" cy="197.851" r="17.907"/>
<g>
	<path style="fill:#193651;" d="M373.398,158.933c-0.646-4.331-1.875-8.016-3.103-12.347l-11.766,3.103
		c1.228,3.685,2.457,8.016,3.103,11.766L373.398,158.933z"/>
	<path style="fill:#193651;" d="M376.824,174.319c-0.129-0.84-0.259-1.616-0.323-2.457l-12.347,1.875
		c0.065,0.323,0.129,0.711,0.194,1.034c-9.891,2.974-16.873,12.024-16.873,23.079c0,13.576,11.119,24.113,24.113,24.113
		c13.576,0,24.113-10.537,24.113-24.113C395.636,186.15,387.362,176.711,376.824,174.319z M371.523,209.616
		c-6.788,0-11.766-5.56-11.766-11.766c0-6.788,5.56-11.766,11.766-11.766c6.788,0,11.766,5.56,11.766,11.766
		C383.289,204.638,377.729,209.616,371.523,209.616z"/>
</g>
<g>
	<circle style="fill:#FFFFFF;" cx="95.224" cy="43.927" r="17.907"/>
	<circle style="fill:#FFFFFF;" cx="100.137" cy="360.436" r="17.907"/>
</g>
<g>
	<path style="fill:#193651;" d="M123.798,361.794c0.129-8.404-4.331-16.485-11.895-21.139c-3.685-1.875-7.434-3.103-11.766-3.103
		c-4.525,0-9.051,1.358-12.929,3.943c-3.426-2.327-6.4-4.655-9.309-6.982l-8.016,9.891c3.168,2.65,5.883,4.784,8.857,6.917
		c-2.327,5.042-3.103,10.473-1.487,15.968c1.875,6.206,5.56,11.119,11.119,14.222c3.685,1.875,7.434,3.103,11.766,3.103
		c8.469,0,16.42-4.202,20.17-10.731c1.81,0.776,3.749,1.552,5.818,2.133l4.331-11.766
		C128.194,363.41,125.996,362.634,123.798,361.794z M100.137,371.556c-6.141,0-11.119-4.978-11.119-11.119
		c0-6.141,4.978-11.119,11.119-11.119c6.141,0,11.119,4.978,11.119,11.119C111.321,366.578,106.279,371.556,100.137,371.556z"/>
	<path style="fill:#193651;" d="M117.398,36.105c0.453-0.259,0.84-0.517,1.293-0.776l-4.913-11.119
		c-1.164,0.517-2.327,1.034-3.426,1.487c-4.073-3.362-9.503-5.236-15.127-5.236c-3.685,0-8.016,1.228-11.766,3.103
		c-11.119,6.788-15.451,21.657-8.663,32.776c3.685,7.434,11.766,11.766,20.364,11.766c4.719,0,18.489-3.103,22.885-17.907
		C119.467,45.35,119.079,40.566,117.398,36.105z M95.224,55.499c-6.4,0-11.572-5.172-11.572-11.572s5.172-11.572,11.572-11.572
		s11.572,5.172,11.572,11.572S101.624,55.499,95.224,55.499z"/>
</g>
<g>
</g>
<g>
</g>
<g>
</g>
<g>
</g>
<g>
</g>
<g>
</g>
<g>
</g>
<g>
</g>
<g>
</g>
<g>
</g>
<g>
</g>
<g>
</g>
<g>
</g>
<g>
</g>
<g>
</g>
</svg>
