<svg xmlns="http://www.w3.org/2000/svg" viewBox="0 0 395.7 378.31"><defs><style>.cls-1{fill:#ef4438;}.cls-2{fill:#fff;}.cls-3{fill:#193651;}.cls-4{fill:#e02828;}</style></defs><title>link-domain-icon-bskp</title><g id="Layer_2" data-name="Layer 2"><g id="Layer_1-2" data-name="Layer 1"><path class="cls-1" d="M189.16,331.31A142.16,142.16,0,1,1,331.31,189.16,142.2,142.2,0,0,1,189.16,331.31Z"/><path class="cls-2" d="M189.16,74.15h0a114.8,114.8,0,0,0-115,115h0a114.8,114.8,0,0,0,115,115h0a114.8,114.8,0,0,0,115-115h0A114.8,114.8,0,0,0,189.16,74.15Z"/><path class="cls-3" d="M189.16,68C122.38,68,68,122.44,68,189.16S122.38,310.3,189.16,310.3a121.15,121.15,0,0,0,0-242.29Zm-61.8,121.15A169.17,169.17,0,0,1,131,153.28h51.91V225H131A168.11,168.11,0,0,1,127.35,189.16ZM195.36,81c21.66,3.68,40.21,27.22,48.81,60H195.36ZM183,81v60H134.21C142.8,108.15,161.36,84.69,183,81Zm0,156.38v60c-21.66-3.68-40.21-27.22-48.81-60Zm12.35,59.93v-60h48.81C234.93,270.16,217,293.62,195.36,297.31Zm0-72.27V153.28h51.91a176.51,176.51,0,0,1,0,71.76Zm64.26-71.76h31.55a115.45,115.45,0,0,1,6.21,35.88A113.61,113.61,0,0,1,291.17,225H259.62a218.65,218.65,0,0,0,3.1-35.88A133.32,133.32,0,0,0,259.62,153.28Zm26.57-12.35h-29c-5.56-21.66-14.87-39.56-26-52.56C255.29,98.91,275.07,117.46,286.19,140.93ZM147.13,89c-11.77,13-20.43,30.9-26,52.56h-29A103.8,103.8,0,0,1,147.13,89ZM86.56,153.28h31.55a209,209,0,0,0,0,71.76H86.56c-4.33-11.12-6.21-23.47-6.21-35.88A99.52,99.52,0,0,1,86.56,153.28Zm4.91,84.1h29c5.56,21.66,14.8,39.56,26,52.56A114,114,0,0,1,91.47,237.38Zm139.7,51.91c11.77-13,20.43-30.9,26-52.56h29A103.8,103.8,0,0,1,231.18,289.29Z"/><path class="cls-3" d="M32.78,107.57,21.66,102c-1.87,3.68-3.68,8-5.56,11.77l11.12,4.91A47,47,0,0,1,32.78,107.57Z"/><path class="cls-3" d="M77.9,52.56l-8-9.89c-3.68,3.1-6.79,5.56-9.89,8.66L68.66,60A57.05,57.05,0,0,1,77.9,52.56Z"/><path class="cls-3" d="M44.48,88.37l-9.89-7.43c-2.46,3.1-4.33,6.79-6.79,10.54l10.54,6.21A66.37,66.37,0,0,1,44.48,88.37Z"/><path class="cls-3" d="M16.68,152.69,4.33,150.24a92,92,0,0,0-2.46,13l12.35,1.88C14.22,161.36,15.45,157,16.68,152.69Z"/><path class="cls-3" d="M60,68.59l-9.24-8.66a118.6,118.6,0,0,0-8.66,9.89l9.89,8A111.82,111.82,0,0,1,60,68.59Z"/><path class="cls-3" d="M22.89,130.46l-11.77-4.33c-1.23,4.33-2.46,8-3.68,12.35l11.77,3.1A36.86,36.86,0,0,1,22.89,130.46Z"/><path class="cls-3" d="M32.78,271.39l-11.12,5.56a95.89,95.89,0,0,0,6.21,11.12L39,281.86A80.83,80.83,0,0,1,32.78,271.39Z"/><path class="cls-3" d="M12.35,189.16A83.32,83.32,0,0,1,13,176.81L.65,176.16a87.54,87.54,0,0,0-.65,13v.65H12.35Z"/><path class="cls-3" d="M22.89,249.15l-11.77,4.33A105.91,105.91,0,0,0,16,265.24l11.12-4.91C26,256.52,24.11,252.83,22.89,249.15Z"/><path class="cls-3" d="M13,202.15l-12.35.58a98.11,98.11,0,0,0,1.23,13l12.35-1.87A71.92,71.92,0,0,1,13,202.15Z"/><path class="cls-3" d="M16.68,226.26,4.33,228.72a95.81,95.81,0,0,0,3.1,12.35L19.78,238A87,87,0,0,1,16.68,226.26Z"/><path class="cls-3" d="M355.43,129.81l11.77-4.33c-1.87-3.68-3.1-8-4.91-11.77l-11.12,4.91C352.39,122.38,354.2,126.13,355.43,129.81Z"/><path class="cls-3" d="M44.48,291.17l-9.89,7.43c2.46,3.68,5.56,7.43,8,10.54l9.24-8.66Z"/><path class="cls-3" d="M345.54,107.57,356.07,102a95.89,95.89,0,0,0-6.21-11.12L339.33,97.1A76.7,76.7,0,0,1,345.54,107.57Z"/><path class="cls-3" d="M333.19,87.14l9.89-7.43c-2.46-3.68-5.56-7.43-8-10.54l-9.24,8A120.58,120.58,0,0,0,333.19,87.14Z"/><path class="cls-3" d="M140.93,19.14l-3.1-11.77c-4.33,1.23-8,2.46-12.35,3.68l4.33,11.77C133.49,21.66,137.24,20.36,140.93,19.14Z"/><path class="cls-3" d="M317.74,68.59,327,59.93l-9.24-9.24-8.66,9.24A60.83,60.83,0,0,1,317.74,68.59Z"/><path class="cls-3" d="M165,13.58,163.17,1.23c-4.33.65-8.66,1.88-13,2.46L152.63,16A82.81,82.81,0,0,0,165,13.58Z"/><path class="cls-3" d="M281.28,340l6.21,10.54,11.12-7.43-7.43-9.89A55.81,55.81,0,0,1,281.28,340Z"/><path class="cls-3" d="M300.41,326.4l8,9.24c3.68-3.1,6.79-5.56,9.89-8l-8.66-9.24A103.67,103.67,0,0,1,300.41,326.4Z"/><path class="cls-3" d="M275.72,21l-5.56,11.12c3.68,1.88,6.79,4.33,10.54,6.21l6.21-11.12C283.15,25.34,279.4,22.89,275.72,21Z"/><path class="cls-3" d="M298,34.59l-7.43,9.89c3.68,2.46,6.79,5,9.89,7.43l8-9.24A127,127,0,0,0,298,34.59Z"/><path class="cls-3" d="M252.25,11.12l-4.33,11.77A78.94,78.94,0,0,1,259,27.22l5-11.12A68.41,68.41,0,0,0,252.25,11.12Z"/><path class="cls-3" d="M259.62,351.1l4.91,11.12c4.33-1.87,8-3.68,11.77-4.91l-5.56-11.12C267.05,348.06,263.37,349.29,259.62,351.1Z"/><path class="cls-3" d="M361.63,224.39,374,226.84a39.87,39.87,0,0,0,1.88-12.35l-12.35-1.87C362.86,216.37,362.28,220.7,361.63,224.39Z"/><path class="cls-3" d="M237.38,359.18l3.1,11.77c4.33-1.23,8-2.46,13-3.68l-4.33-11.77C244.82,356.65,241.07,357.95,237.38,359.18Z"/><path class="cls-3" d="M355.43,247.85l11.77,4.33,3.68-13-11.77-3.1C357.95,240.48,356.72,244.17,355.43,247.85Z"/><path class="cls-3" d="M346.18,270.16l11.12,5.56a69.15,69.15,0,0,0,5-11.77l-11.12-5A94.1,94.1,0,0,1,346.18,270.16Z"/><path class="cls-3" d="M333.83,290.52l9.89,7.43c2.46-3.68,5-7.43,7.43-11.12l-10.54-6.21C338.17,283.73,336.29,287.42,333.83,290.52Z"/><path class="cls-3" d="M318.38,309.07l9.24,8.66c2.46-3.1,5.56-6.21,8.66-9.89l-9.89-8C323.94,302.87,320.84,306,318.38,309.07Z"/><path class="cls-3" d="M163.81,376.44a88.41,88.41,0,0,0,13,1.23l.65-12.35c-3.68-.65-8-.65-11.77-1.23Z"/><path class="cls-3" d="M139.12,371.52a74.91,74.91,0,0,0,12.35,3.1l2.46-11.77c-3.68-1.23-8-1.87-11.77-3.1Z"/><path class="cls-3" d="M60.57,309.72l-9.24,8.66,9.24,9.24,8.66-9.24C66.13,315.28,63,312.82,60.57,309.72Z"/><path class="cls-3" d="M201.5.58l-.65,12.35a81.64,81.64,0,0,1,11.77,1.23L214.5,1.81A98.14,98.14,0,0,0,201.5.58Z"/><path class="cls-3" d="M176.81,13c3.68,0,8-.65,12.35-.65V0c-4.33,0-8.66.65-13,.65Z"/><path class="cls-3" d="M213.27,364.09l1.88,12.35c4.33-.65,8.66-1.23,12.35-1.87L225,362.21C221.29,362.86,217,363.51,213.27,364.09Z"/><path class="cls-3" d="M226.84,3.69,224.39,16a69.51,69.51,0,0,1,11.77,3.1l3.1-12.35A77.37,77.37,0,0,0,226.84,3.69Z"/><path class="cls-3" d="M189.8,366v12.35c4.33,0,8.66-.65,13-.65l-.65-12.35A79.13,79.13,0,0,1,189.8,366Z"/><circle class="cls-2" cx="371.52" cy="189.16" r="17.91"/><path class="cls-3" d="M373.4,150.24a95.81,95.81,0,0,0-3.1-12.35L358.53,141a85.3,85.3,0,0,1,3.1,11.77Z"/><path class="cls-4" d="M376.82,165.62c-.13-.84-.26-1.62-.32-2.46L364.15,165c.07.32.13.71.19,1a23.75,23.75,0,0,0-16.87,23.08,24.15,24.15,0,0,0,24.11,24.11,23.79,23.79,0,0,0,24.11-24.11A24.3,24.3,0,0,0,376.82,165.62Zm-5.3,35.3a11.77,11.77,0,1,1,11.77-11.77A11.77,11.77,0,0,1,371.52,200.92Z"/><circle class="cls-2" cx="95.22" cy="35.23" r="17.91"/><circle class="cls-2" cx="100.14" cy="351.74" r="17.91"/><path class="cls-4" d="M123.8,353.1A24.55,24.55,0,0,0,111.9,332a25.32,25.32,0,0,0-11.77-3.1,23.38,23.38,0,0,0-12.93,3.94c-3.43-2.33-6.4-4.65-9.31-7l-8,9.89c3.17,2.65,5.88,4.78,8.86,6.92a22.35,22.35,0,0,0-1.49,16,23.47,23.47,0,0,0,11.12,14.22,25.32,25.32,0,0,0,11.77,3.1c8.47,0,16.42-4.2,20.17-10.73a47,47,0,0,0,5.82,2.13l4.33-11.77C128.19,354.72,126,353.94,123.8,353.1Zm-23.66,9.76a11.12,11.12,0,1,1,11.12-11.12A11.12,11.12,0,0,1,100.14,362.86Z"/><path class="cls-4" d="M117.4,27.41c.45-.26.84-.52,1.29-.78l-4.91-11.12c-1.16.52-2.33,1-3.43,1.49a23.87,23.87,0,0,0-15.13-5.24,27.78,27.78,0,0,0-11.77,3.1C72.34,21.66,68,36.53,74.8,47.65c3.68,7.43,11.77,11.77,20.36,11.77,4.72,0,18.49-3.1,22.89-17.91A21.86,21.86,0,0,0,117.4,27.41ZM95.22,46.8A11.57,11.57,0,1,1,106.8,35.23,11.56,11.56,0,0,1,95.22,46.8Z"/><path class="cls-3" d="M77.57,323.72l-10.35,10,11.25,8.58,8.42-9.75A33.32,33.32,0,0,1,77.57,323.72Z"/><path class="cls-3" d="M120.24,365.4c3.68,1.23,8.28,3.11,12.61,3.75l2.2-12.42c-3.68-1.23-7.5-2.41-11.25-3.64Z"/></g></g></svg>