<svg xmlns="http://www.w3.org/2000/svg" viewBox="0 0 358.5 393.46"><defs><style>.cls-1{fill:#ecf0f1;}.cls-2{fill:#dadfe1;}.cls-3{fill:#fff;}.cls-4{fill:#478fcc;}.cls-5{fill:#328aba;}.cls-6{fill:#ef4438;}.cls-7{fill:#e02828;}.cls-8{fill:#fec111;}.cls-9{fill:#f4ac0c;}</style></defs><title>widget-icon-bskp</title><g id="Layer_2" data-name="Layer 2"><g id="Layer_1-2" data-name="Layer 1"><rect class="cls-1" x="38.54" y="73.17" width="150.14" height="150" transform="translate(-43.65 47.52) rotate(-19.9)"/><path class="cls-2" d="M1.87,188.57a31.25,31.25,0,0,0,40,18.74,53.23,53.23,0,0,0,11.18-5.93l15.5,42.83,90-192.09-141,51.05L33,146a53.15,53.15,0,0,0-12.39,2.6A31.25,31.25,0,0,0,1.87,188.57Z"/><path class="cls-3" d="M264,333.11,212.76,190.32,169.22,206a53.52,53.52,0,0,0-2.59-12.54,31.77,31.77,0,0,0-59.8,21.48,53.6,53.6,0,0,0,6,11.32L69.23,241.88Z"/><g id="_Group_" data-name="&lt;Group&gt;"><polygon class="cls-4" points="342.14 179.39 192.14 179.39 192.14 309.39 342.14 329.39 342.14 179.39"/><path class="cls-5" d="M342.14,329.36l-150-150v150h45.5a53.15,53.15,0,0,0-1.77,12.53,31.25,31.25,0,0,0,62.5,0,53.23,53.23,0,0,0-1.77-12.53Z"/></g><path class="cls-3" d="M351.84,320l.89-.89c.22-13.47-1.65-27.77,2.41-40.74,7-24-8-50,2-75,2.41-6.64.82-15.1,1.16-22.74l-17.44,0,.12,45.5a53.15,53.15,0,0,0-12.54-1.74,31.25,31.25,0,0,0,.16,62.5,53.23,53.23,0,0,0,12.53-1.8l.11,45.55,3.91-3.93a14.2,14.2,0,0,1,3-6.37A6.93,6.93,0,0,1,351.84,320Z"/><path class="cls-3" d="M348.14,320.35a14.2,14.2,0,0,0-3,6.37l6.7-6.74A6.93,6.93,0,0,0,348.14,320.35Z"/><rect class="cls-6" x="148.24" y="29.25" width="150.67" height="149" transform="translate(75.52 300.81) rotate(-77.98)"/><path class="cls-7" d="M316.09,91.88A53.22,53.22,0,0,0,303.46,91L313,46.45,135,161.91,281.7,193.16l9.48-44.5A53.19,53.19,0,0,0,303.07,153a31.25,31.25,0,0,0,13-61.12Z"/><path class="cls-3" d="M296.14,27.35c-18,0-35-3-52-8C222.49,11.85,195.31,3.69,169.51,0l-3.23,15.18,44.5,9.48a53.15,53.15,0,0,0-4.34,11.89,31.25,31.25,0,0,0,61.12,13,53.23,53.23,0,0,0,.88-12.62L313,46.43l-10.39-16-.45-.07C300.14,29.35,298.14,27.35,296.14,27.35Z"/><rect class="cls-8" x="37.78" y="210.22" width="148" height="150" transform="translate(-119.4 84.22) rotate(-27.59)"/><path class="cls-3" d="M235.14,367.35c1.6,1.2,3.21,2.32,4.83,3.38L228.09,348C228,355.4,228,362.83,235.14,367.35Z"/><path class="cls-3" d="M154.14,368.35c1-1,4,1,6,0,9-6,15-12,26-13,10-2,17-13,27-18a26.79,26.79,0,0,1,7.53-3.54l-8.56-16.37-40.32,21.08a53.19,53.19,0,0,0-4.23-11.93,31.25,31.25,0,0,0-55.39,28.95,53.22,53.22,0,0,0,7.37,10.28l-40.37,21.1L100,393.46c12.44-4.49,27.94-5.15,39.09-12.11C144.14,378.35,150.14,374.35,154.14,368.35Z"/><path class="cls-9" d="M58.24,348.4l21.45,41L143.51,184,9,254.29l21.43,41a53.52,53.52,0,0,0-12.07,4.28,31.77,31.77,0,0,0,29.43,56.31A53.6,53.6,0,0,0,58.24,348.4Z"/></g></g></svg>