<svg xmlns="http://www.w3.org/2000/svg" viewBox="0 0 381.61 401.29"><defs><style>.cls-1{fill:#ef4438;}.cls-2{fill:#fec111;}.cls-3{fill:#e02828;}.cls-4{fill:#eb974e;}.cls-5{fill:#f2784b;}.cls-6{fill:#fff;}.cls-7{fill:#f4ac0c;}.cls-8{fill:#ecf0f1;}.cls-9{fill:#dadfe1;}</style></defs><title>widget-icon-2-bskp</title><g id="Layer_2" data-name="Layer 2"><g id="Layer_1-2" data-name="Layer 1"><g id="_Group_" data-name="&lt;Group&gt;"><rect id="_Path_" data-name="&lt;Path&gt;" class="cls-1" y="249.63" width="160" height="150.67"/><rect id="_Path_2" data-name="&lt;Path&gt;" class="cls-2" x="150" y="252.29" width="150" height="148"/><path id="_Path_3" data-name="&lt;Path&gt;" class="cls-3" d="M162.5,294.07A53.22,53.22,0,0,0,150,295.84V250.29L0,400.29H150v-45.5a53.19,53.19,0,0,0,12.53,1.77,31.25,31.25,0,0,0,0-62.5Z"/><polygon id="_Path_4" data-name="&lt;Path&gt;" class="cls-4" points="150 100.29 150 250.29 0 230.29 0 100.29 150 100.29"/><path id="_Path_5" data-name="&lt;Path&gt;" class="cls-5" d="M106.22,262.8a53.23,53.23,0,0,0-1.77-12.53H150L0,100.29v150H45.5a53.15,53.15,0,0,0-1.77,12.53,31.25,31.25,0,0,0,62.5,0Z"/></g><path id="_Path_6" data-name="&lt;Path&gt;" class="cls-6" d="M136.45,207.81A53.23,53.23,0,0,0,149,206l.11,45.55,149.6-150.37-150,.38.12,45.5a53.15,53.15,0,0,0-12.54-1.74,31.25,31.25,0,0,0,.16,62.5Z"/><path id="_Path_7" data-name="&lt;Path&gt;" class="cls-7" d="M192,236.9a53.6,53.6,0,0,0,1.8,12.68H147.5L300,401.29V249.58H253.74a53.52,53.52,0,0,0,1.8-12.68,31.77,31.77,0,0,0-63.54,0Z"/><rect class="cls-8" x="199.4" y="21.07" width="150.14" height="150" transform="translate(-16.31 99.17) rotate(-19.9)"/><path id="_Path_8" data-name="&lt;Path&gt;" class="cls-9" d="M202.75,155.22a53.23,53.23,0,0,0,11.18-5.93l15.5,42.83L319.39,0l-141,51.05,15.49,42.78a53.15,53.15,0,0,0-12.39,2.6,31.25,31.25,0,0,0,21.27,58.76Z"/><path class="cls-6" d="M330.08,153.87a53.52,53.52,0,0,0-2.59-12.54,31.77,31.77,0,0,0-59.8,21.48,53.59,53.59,0,0,0,6,11.32l-43.58,15.65,95.83,44.88c3.79-11.29,9.23-22.33,14.08-33.36,1-2-1-6,0-8,10.3-15.93,25-26.58,41.61-32.8l-8-22.26Z"/></g></g></svg>