<svg xmlns="http://www.w3.org/2000/svg" viewBox="0 0 119.96 119.22"><defs><style>.cls-1{fill:#f39c12;}.cls-2{fill:#fff;}.cls-3{fill:#7d9091;}</style></defs><title>blockchain-fanta-bskp</title><g id="Layer_2" data-name="Layer 2"><g id="blockchain"><ellipse class="cls-1" cx="59.97" cy="59.61" rx="12.43" ry="12.35" transform="translate(-0.2 0.2) rotate(-0.19)"/><ellipse class="cls-2" cx="36.53" cy="36.46" rx="8.71" ry="8.65" transform="translate(-0.12 0.12) rotate(-0.19)"/><ellipse class="cls-2" cx="11.24" cy="11.49" rx="5.56" ry="5.53" transform="translate(-0.04 0.04) rotate(-0.19)"/><ellipse class="cls-2" cx="11.24" cy="11.49" rx="5.56" ry="5.53" transform="translate(-0.04 0.04) rotate(-0.19)"/><ellipse class="cls-2" cx="7.23" cy="36.75" rx="5.56" ry="5.53" transform="translate(-0.12 0.02) rotate(-0.19)"/><ellipse class="cls-2" cx="36.63" cy="7.34" rx="5.56" ry="5.53" transform="translate(-0.02 0.12) rotate(-0.19)"/><ellipse class="cls-2" cx="83.41" cy="82.75" rx="8.71" ry="8.65" transform="translate(-0.28 0.28) rotate(-0.19)"/><ellipse class="cls-2" cx="83.26" cy="36.31" rx="8.71" ry="8.65" transform="translate(-0.12 0.28) rotate(-0.19)"/><ellipse class="cls-2" cx="108.38" cy="11.17" rx="5.56" ry="5.53" transform="translate(-0.04 0.36) rotate(-0.19)"/><path class="cls-2" d="M115.54,41a5.49,5.49,0,0,0,0-9.21,5.33,5.33,0,0,0-6.13,0,5.49,5.49,0,0,0,0,9.21A5.33,5.33,0,0,0,115.54,41Z"/><ellipse class="cls-2" cx="36.68" cy="82.91" rx="8.71" ry="8.65" transform="translate(-0.28 0.12) rotate(-0.19)"/><ellipse class="cls-2" cx="36.98" cy="112.03" rx="5.56" ry="5.53" transform="translate(-0.37 0.12) rotate(-0.19)"/><polygon class="cls-1" points="96.69 20.2 99.32 22.8 96.71 25.41 94.08 22.82 96.69 20.2"/><polygon class="cls-1" points="25.59 23.14 22.98 25.75 20.36 23.16 22.97 20.55 25.59 23.14"/><path class="cls-1" d="M101,11.19a7.42,7.42,0,0,0,1.45,4.35l-.51-.5-2.61,2.61,2.63,2.59,2.63-2.61-.53-.52a7.31,7.31,0,0,0,4.39,1.41,7.38,7.38,0,1,0,0-14.76A7.45,7.45,0,0,0,101,11.19Zm11.13,0a3.7,3.7,0,1,1-3.72-3.67A3.7,3.7,0,0,1,112.1,11.16Z"/><path class="cls-1" d="M17.73,20.49l2.61-2.61-2.63-2.59-.64.64a7.27,7.27,0,0,0,1.57-4.63,7.43,7.43,0,1,0-7.4,7.41,7.56,7.56,0,0,0,4.67-1.62l-.83.83ZM7.52,11.31A3.7,3.7,0,1,1,11.23,15,3.59,3.59,0,0,1,7.52,11.31Z"/><path class="cls-3" d="M44.38,112a7.52,7.52,0,0,0-5.59-7.17l0-11.62A10.43,10.43,0,0,0,45.37,77l6.11-6.11a14.33,14.33,0,0,0,17.41-.06L75,76.88a10.65,10.65,0,0,0-1.84,5.9A10.57,10.57,0,1,0,83.73,72.25a10.66,10.66,0,0,0-5.93,1.87L71.67,68a14.1,14.1,0,0,0-.06-17.31l5.72-5.92a10.81,10.81,0,0,0,5.94,1.83A10.53,10.53,0,0,0,93.64,38l11.67,0a7.34,7.34,0,0,0,7.25,5.68,7.38,7.38,0,1,0,0-14.76,7.32,7.32,0,0,0-7,5.36l-11.87,0a10.62,10.62,0,0,0-1.72-4.1L94.09,28l-2.63-2.59L89.3,27.54a10.43,10.43,0,0,0-6.09-1.89,10.45,10.45,0,0,0-8.65,16.43l-6.11,6.11A14.33,14.33,0,0,0,51,48.25l-6-5.88a10.65,10.65,0,0,0,1.84-5.9,10.52,10.52,0,0,0-8.57-10.3l.16-11.6a7.35,7.35,0,0,0,5.54-7.21,7.43,7.43,0,0,0-14.85,0,7.29,7.29,0,0,0,5.59,7L34.63,26a12.43,12.43,0,0,0-4.26,1.67l-2.24-2.21L25.55,28l2.24,2.21a8.42,8.42,0,0,0-1.65,4.25l-11.67.23A7.49,7.49,0,0,0,7.4,29.22,7.38,7.38,0,1,0,7.45,44a7.55,7.55,0,0,0,7.21-5.56l11.67-.23a10.54,10.54,0,0,0,10.4,8.44,10.66,10.66,0,0,0,5.93-1.87l6.15,6.07a14.1,14.1,0,0,0,.06,17.31l-6.11,6.11a10.81,10.81,0,0,0-5.94-1.83A10.48,10.48,0,0,0,35,93.24l.23,11.6a7.29,7.29,0,0,0,1.91,14.37A7.11,7.11,0,0,0,44.38,112ZM90.28,82.73a6.83,6.83,0,0,1-6.84,6.84,6.73,6.73,0,0,1,0-13.45A6.79,6.79,0,0,1,90.28,82.73Zm22.27-50a3.68,3.68,0,1,1-3.69,3.69A3.7,3.7,0,0,1,112.54,32.7ZM76.39,36.33a6.83,6.83,0,0,1,6.84-6.84,6.82,6.82,0,1,1,0,13.64A6.83,6.83,0,0,1,76.39,36.33ZM32.9,7.36A3.7,3.7,0,1,1,36.62,11,3.7,3.7,0,0,1,32.9,7.36ZM7.24,40.43a3.68,3.68,0,1,1,3.69-3.69A3.7,3.7,0,0,1,7.24,40.43Zm22.42-3.95a6.83,6.83,0,0,1,6.84-6.84,6.71,6.71,0,0,1,6.89,6.8,6.86,6.86,0,0,1-13.73,0ZM49.4,59.64A10.57,10.57,0,1,1,60,70.11,10.66,10.66,0,0,1,49.4,59.64ZM29.82,82.93a6.86,6.86,0,0,1,13.73,0,6.71,6.71,0,0,1-6.84,6.84A7,7,0,0,1,29.82,82.93ZM33.25,112A3.7,3.7,0,1,1,37,115.71,3.7,3.7,0,0,1,33.25,112Z"/><ellipse class="cls-2" cx="108.59" cy="104.76" rx="5.53" ry="5.56" transform="translate(-7.55 8.44) rotate(-4.3)"/><polygon class="cls-1" points="98.75 93.75 96.35 96.56 93.56 94.14 95.95 91.33 98.75 93.75"/><path class="cls-1" d="M108,97.38a7.42,7.42,0,0,0-4.24,1.76l.46-.54-2.79-2.42L99.08,99l2.79,2.43.48-.56c-1.6,2.54-1.62,6.1.9,9.41,6.43,4.79,13.18-.09,12.73-6A7.45,7.45,0,0,0,108,97.38Zm.83,11.1a3.7,3.7,0,1,1,3.39-4A3.7,3.7,0,0,1,108.87,108.48Z"/><ellipse class="cls-2" cx="9.78" cy="99.3" rx="5.53" ry="5.56" transform="translate(-90 100.36) rotate(-84.99)"/><polygon class="cls-1" points="22.24 91.37 19.86 88.54 22.69 86.18 25.07 89 22.24 91.37"/><path class="cls-1" d="M17.16,99.95a7.42,7.42,0,0,0-1-4.46l.46.54,2.83-2.36L17,90.84l-2.85,2.36.48.56c-2.25-2-5.76-2.59-9.43-.64-5.76,5.57-2,13,3.9,13.54A7.45,7.45,0,0,0,17.16,99.95ZM6.07,99a3.7,3.7,0,1,1,3.37,4A3.7,3.7,0,0,1,6.07,99Z"/></g></g></svg>