<svg xmlns="http://www.w3.org/2000/svg" viewBox="0 0 94 128"><defs><style>.cls-1{fill:#7d9091;}.cls-2{fill:#f39c12;}</style></defs><title>firmware-management-fanta-bskp</title><g id="Layer_2" data-name="Layer 2"><g id="geofence"><ellipse class="cls-1" cx="81.06" cy="107.43" rx="3.92" ry="3.87"/><ellipse class="cls-1" cx="69.06" cy="107.43" rx="3.92" ry="3.87"/></g><g id="firmware-management"><path class="cls-1" d="M10.06,102.91h-6V4.47H51.69V7.91a23.5,23.5,0,0,1,9.16-.24L55.29.76l0,0a2.11,2.11,0,0,0-.41-.37L54.73.29A2.1,2.1,0,0,0,54.33.1l-.11,0A1.91,1.91,0,0,0,53.75,0H4.11A4.31,4.31,0,0,0,0,4.47V109.53A4.31,4.31,0,0,0,4.11,114H9.83C9.74,103.64,10.46,113.27,10.06,102.91Z"/><path class="cls-2" d="M19.06,109.91h-6V11.47H60.69v3.44a23.5,23.5,0,0,1,9.16-.24L64.29,7.76l0,0a2.11,2.11,0,0,0-.41-.37l-.13-.09a2.1,2.1,0,0,0-.41-.18l-.11,0A1.91,1.91,0,0,0,62.75,7H13.11A4.31,4.31,0,0,0,9,11.47V116.53A4.31,4.31,0,0,0,13.11,121h5.72C18.74,110.64,19.46,120.27,19.06,109.91Z"/><path class="cls-1" d="M94,41.32a2.33,2.33,0,0,0-.49-1.45L73.29,14.76l0,0a2.11,2.11,0,0,0-.41-.37l-.13-.09a2.1,2.1,0,0,0-.41-.18l-.11,0a1.91,1.91,0,0,0-.47-.06H22.11A4.31,4.31,0,0,0,18,18.47V123.53A4.31,4.31,0,0,0,22.11,128H89.89A4.3,4.3,0,0,0,94,123.53v-82C94,41.49,94,41.4,94,41.32Zm-4.09,75.59H22.11V18.47H69.69V41.35a2.15,2.15,0,0,0,2.05,2.24H89.89"/><path class="cls-2" d="M68,50H40.57v4.62H35v1.48H32v1.3h3v1.66h5.61v8.12H35v1.66H32v1.29h3v1.48h5.61v8.68H35v1.57H32v1.29h3v1.57h5.61V91H68V84.72H73V83.15h3V81.86H73V80.29H68V71.61H73V70.13h3V68.84H73V67.17H68V59.05H73V57.39h3v-1.3H73V54.62H68V50ZM62.5,61.08A2.59,2.59,0,1,1,65,58.5,2.54,2.54,0,0,1,62.5,61.08Z"/></g></g></svg>