<svg xmlns="http://www.w3.org/2000/svg" viewBox="0 0 141.55 149"><defs><style>.cls-1{fill:#f39c12;}.cls-2{fill:#7d9091;}</style></defs><title>geofence-fanta-bskp</title><g id="Layer_2" data-name="Layer 2"><g id="geofence"><path class="cls-1" d="M71.59,0A36.91,36.91,0,0,1,98.18,11.38a39.28,39.28,0,0,1,11,27.44c0,10.85-6.78,23.92-12.69,35.36C94.73,77.65,93,81,91.62,84L74.31,121.1a3.19,3.19,0,0,1-2.77,1.59,3,3,0,0,1-2.7-1.57v0h0L51.52,84c-1.38-3-3.11-6.32-4.88-9.78-6-11.43-12.73-24.5-12.73-35.36A39.27,39.27,0,0,1,45,11.38,37,37,0,0,1,71.59,0Zm0,19.79a18.13,18.13,0,0,1,13,5.56,19.47,19.47,0,0,1,0,26.91,18.11,18.11,0,0,1-26.11,0,19.47,19.47,0,0,1,0-26.91,18.31,18.31,0,0,1,13.08-5.56Zm8.72,10a12.1,12.1,0,0,0-17.48,0,13,13,0,0,0,0,18,12.1,12.1,0,0,0,17.48,0,13,13,0,0,0,0-18Zm13.6-14a30.82,30.82,0,0,0-44.63,0,32.78,32.78,0,0,0-9.28,23c0,9.34,6.39,21.61,12,32.42,1.81,3.51,3.54,6.89,5,10L67.76,104.3a4.23,4.23,0,0,0,7.65,0l10.72-23c1.47-3.11,3.2-6.49,5-10,5.61-10.81,12-23.08,12-32.42a32.91,32.91,0,0,0-9.23-23Z"/><path class="cls-2" d="M97.48,107.29h0a4.35,4.35,0,0,0,3.95,4.31c25.47,2.5,33.26,10,33.26,13.21,0,3.89-25,16.45-63.65,16.45S8.37,128.7,8.37,124.81c0-3.18,16.08-10.69,42.49-13.18a4.4,4.4,0,0,0,4-4.84h0a4.42,4.42,0,0,0-4.81-3.88C23.4,105.3,0,111.45,0,124.71,0,141.4,36.69,149,70.79,149s70.76-7.61,70.76-24.29c0-13.07-14.09-19.24-39.22-21.73A4.37,4.37,0,0,0,97.48,107.29Z"/><ellipse class="cls-2" cx="91.61" cy="106.43" rx="3.92" ry="3.87"/></g></g></svg>