<svg xmlns="http://www.w3.org/2000/svg" viewBox="0 0 174.87 170.96"><defs><style>.cls-1{fill:#7d9091;stroke:#7d9091;stroke-miterlimit:10;stroke-width:3.12px;}.cls-2{fill:#f39c12;}.cls-3{fill:#fff;}.cls-4{font-size:19.36px;font-family:Roboto-Regular, Roboto;}.cls-5{letter-spacing:-0.01em;}</style></defs><title>hardware-fanta-bskp</title><g id="Layer_2" data-name="Layer 2"><g id="device-management"><path class="cls-1" d="M112.3,16.44a1.92,1.92,0,0,0,2-1.86V3.43a2,2,0,0,0-3.94,0V14.58A1.92,1.92,0,0,0,112.3,16.44Z"/><path class="cls-1" d="M101.58,16.44a1.92,1.92,0,0,0,2-1.86V3.43a2,2,0,0,0-3.94,0V14.58A1.92,1.92,0,0,0,101.58,16.44Z"/><path class="cls-1" d="M90.65,16.44a1.91,1.91,0,0,0,2-1.86V3.43a2,2,0,0,0-3.93,0V14.58A1.92,1.92,0,0,0,90.65,16.44Z"/><path class="cls-1" d="M79.93,16.44a1.92,1.92,0,0,0,2-1.86V3.43a2,2,0,0,0-3.94,0V14.58A1.92,1.92,0,0,0,79.93,16.44Z"/><path class="cls-1" d="M70,16.44a1.92,1.92,0,0,0,2-1.86V3.43a2,2,0,0,0-3.94,0V14.58A1.92,1.92,0,0,0,70,16.44Z"/><path class="cls-1" d="M59.31,16.44a1.92,1.92,0,0,0,2-1.86V3.43a2,2,0,0,0-3.93,0V14.58A1.92,1.92,0,0,0,59.31,16.44Z"/><path class="cls-1" d="M32.24,35.68H20.47a1.87,1.87,0,1,0,0,3.73H32.24a1.87,1.87,0,1,0,0-3.73Z"/><path class="cls-1" d="M32.24,45.84H20.47a1.86,1.86,0,1,0,0,3.72H32.24a1.86,1.86,0,1,0,0-3.72Z"/><path class="cls-1" d="M32.24,56.19H20.47a1.87,1.87,0,1,0,0,3.73H32.24a1.87,1.87,0,1,0,0-3.73Z"/><path class="cls-1" d="M32.24,66.34H20.47a1.87,1.87,0,1,0,0,3.73H32.24a1.87,1.87,0,1,0,0-3.73Z"/><path class="cls-1" d="M32.24,75.71H20.47a1.87,1.87,0,1,0,0,3.73H32.24a1.87,1.87,0,1,0,0-3.73Z"/><path class="cls-1" d="M32.24,85.87H20.47a1.87,1.87,0,1,0,0,3.73H32.24a1.87,1.87,0,1,0,0-3.73Z"/><path class="cls-1" d="M112.3,111.68a1.92,1.92,0,0,0-2,1.86V124.7a2,2,0,0,0,3.94,0V113.54A1.92,1.92,0,0,0,112.3,111.68Z"/><path class="cls-1" d="M101.58,111.68a1.92,1.92,0,0,0-2,1.86V124.7a2,2,0,0,0,3.94,0V113.54A1.92,1.92,0,0,0,101.58,111.68Z"/><path class="cls-1" d="M90.65,111.68a1.92,1.92,0,0,0-2,1.86V124.7a2,2,0,0,0,3.93,0V113.54A1.92,1.92,0,0,0,90.65,111.68Z"/><path class="cls-1" d="M79.93,111.68a1.92,1.92,0,0,0-2,1.86V124.7a2,2,0,0,0,3.94,0V113.54A1.92,1.92,0,0,0,79.93,111.68Z"/><path class="cls-1" d="M70,111.68a1.92,1.92,0,0,0-2,1.86V124.7a2,2,0,0,0,3.94,0V113.54A1.92,1.92,0,0,0,70,111.68Z"/><path class="cls-1" d="M59.31,111.68a1.92,1.92,0,0,0-2,1.86V124.7a2,2,0,0,0,3.94,0V113.54A1.92,1.92,0,0,0,59.31,111.68Z"/><path class="cls-2" d="M117.77,21.32H53.83c-6.71,0-12.17,5.18-12.17,11.53V93.4c0,6.36,5.46,11.54,12.17,11.54h63.94c6.71,0,12.18-5.18,12.18-11.54V32.85C130,26.5,124.48,21.32,117.77,21.32ZM116.5,92.56h-60v-56h60Z"/><path class="cls-1" d="M136.75,39.41h11.78a1.87,1.87,0,1,0,0-3.73H136.75a1.87,1.87,0,1,0,0,3.73Z"/><path class="cls-1" d="M148.53,45.84H136.75a1.86,1.86,0,1,0,0,3.72h11.78a1.86,1.86,0,1,0,0-3.72Z"/><path class="cls-1" d="M148.53,56.19H136.75a1.87,1.87,0,1,0,0,3.73h11.78a1.87,1.87,0,1,0,0-3.73Z"/><path class="cls-1" d="M148.53,66.34H136.75a1.87,1.87,0,1,0,0,3.73h11.78a1.87,1.87,0,1,0,0-3.73Z"/><path class="cls-1" d="M148.53,75.71H136.75a1.87,1.87,0,1,0,0,3.73h11.78a1.87,1.87,0,1,0,0-3.73Z"/><path class="cls-1" d="M148.53,85.87H136.75a1.87,1.87,0,1,0,0,3.73h11.78a1.87,1.87,0,1,0,0-3.73Z"/><path class="cls-3" d="M60,33.72A3.68,3.68,0,1,1,63.89,30,3.78,3.78,0,0,1,60,33.72Z"/><path class="cls-2" d="M106.66,61.75a1.9,1.9,0,0,0-1.76,1.17H90.76V61.28H97a.72.72,0,0,0,.5-.21l1.44-1.42a1.87,1.87,0,1,0-1-1.67,1.84,1.84,0,0,0,.11.61l-1.3,1.28h-6V57.93l1.31-1.3a1.87,1.87,0,1,0-1.12-1.71,1.84,1.84,0,0,0,.14.7l-1.54,1.52a.7.7,0,0,0-.21.5v2.23H87.68V46.09a1.9,1.9,0,1,0-1.42,0V59.88H84.59v-6a.7.7,0,0,0-.21-.5L82.95,52a1.84,1.84,0,0,0,.2-.84A1.9,1.9,0,1,0,81.26,53a1.91,1.91,0,0,0,.62-.11l1.3,1.28v5.7H77.39L76.1,58.6A1.84,1.84,0,0,0,76.2,58a1.9,1.9,0,1,0-1,1.67l1.44,1.42a.72.72,0,0,0,.5.21h6.08v1.64h-14a1.87,1.87,0,1,0,0,1.4h14V66H80.91a.72.72,0,0,0-.5.21l-1.54,1.52a1.91,1.91,0,0,0-.71-.14,1.87,1.87,0,1,0,1.9,1.87,1.84,1.84,0,0,0-.17-.76l1.31-1.3h2v5.87l-1.3,1.28a1.91,1.91,0,0,0-.62-.11,1.87,1.87,0,1,0,1.9,1.87,1.84,1.84,0,0,0-.2-.84L84.39,74a.7.7,0,0,0,.21-.5V67.36h1.66v14a1.9,1.9,0,1,0,1.42,0v-14h1.66v2.4a.7.7,0,0,0,.21.5l1.54,1.52a1.84,1.84,0,0,0-.14.7,1.9,1.9,0,1,0,1.9-1.87,1.91,1.91,0,0,0-.77.16l-1.31-1.3V67.36H92.9l1.31,1.3a1.84,1.84,0,0,0-.17.76,1.9,1.9,0,1,0,1.9-1.87,1.91,1.91,0,0,0-.71.14l-1.54-1.52a.72.72,0,0,0-.5-.21H90.76V64.32H104.9a1.89,1.89,0,1,0,1.76-2.57Zm-6.86-4.23a.47.47,0,1,1-.47.47A.47.47,0,0,1,99.79,57.52Zm-6.95-3.05a.47.47,0,1,1-.47.47A.47.47,0,0,1,92.85,54.46ZM87,43.89a.47.47,0,1,1-.47.47A.47.47,0,0,1,87,43.89Zm-6.18,7.24a.47.47,0,1,1,.47.47A.47.47,0,0,1,80.78,51.13Zm-6.48,7.33a.47.47,0,1,1,.47-.47A.47.47,0,0,1,74.31,58.45Zm-6.86,5.63a.47.47,0,1,1,.47-.47A.47.47,0,0,1,67.44,64.09Zm10.72,5.8a.47.47,0,1,1,.47-.47A.47.47,0,0,1,78.16,69.89Zm3.1,6.86a.47.47,0,1,1,.47-.47A.47.47,0,0,1,81.26,76.75ZM87,83.52a.47.47,0,1,1,.47-.47A.47.47,0,0,1,87,83.52Zm6.35-11a.47.47,0,1,1-.47-.47A.47.47,0,0,1,93.32,72.48Zm3.1-3.05a.47.47,0,1,1-.47-.47A.47.47,0,0,1,96.42,69.42Zm-7.08-8.14v1.64H87.68V61.28Zm-4.74,0h1.66v1.64H84.59Zm0,4.68V64.32h1.66V66Zm4.74,0H87.68V64.32h1.66Zm17.32-1.87a.47.47,0,1,1,.47-.47A.47.47,0,0,1,106.66,64.09Z"/></g><g id="blockchain"><text class="cls-4" transform="translate(0 165.72) scale(0.99 1)">D<tspan class="cls-5" x="12.7" y="0">e</tspan><tspan x="22.83" y="0">vice Management</tspan></text></g></g></svg>