<svg xmlns="http://www.w3.org/2000/svg" viewBox="0 0 93.95 99.82"><defs><style>.cls-1{fill:none;stroke-width:3px;}.cls-1,.cls-2{stroke:#7d9091;stroke-miterlimit:10;}.cls-2,.cls-5{fill:#7d9091;}.cls-2{stroke-width:3.12px;}.cls-3{fill:#f39c12;}.cls-4{font-size:10px;fill:#fff;font-family:Roboto-Regular, Roboto;}</style></defs><title>message-definition-fanta-bskp</title><g id="Layer_2" data-name="Layer 2"><g id="message-definition"><line class="cls-1" x1="16.47" y1="30.91" x2="16.47" y2="69.91"/><rect class="cls-2" x="26.47" y="24.91" width="55" height="11" rx="5.5" ry="5.5"/><rect class="cls-3" x="25.97" y="44.41" width="55" height="11" rx="5.5" ry="5.5"/><rect class="cls-2" x="26.97" y="63.41" width="55" height="11" rx="5.5" ry="5.5"/><text class="cls-4" transform="translate(34.72 33.66)">id<tspan x="0" y="19">state</tspan><tspan x="0" y="38">time</tspan></text><ellipse class="cls-3" cx="16.8" cy="30.33" rx="3.92" ry="3.87"/><ellipse class="cls-3" cx="16.8" cy="70.33" rx="3.92" ry="3.87"/><ellipse class="cls-3" cx="16.8" cy="49.33" rx="3.92" ry="3.87"/><polygon class="cls-5" points="6.26 30.5 0 30.5 0 0 34.45 0 34.45 5.54 6.26 5.54 6.26 30.5"/><polygon class="cls-5" points="34.45 99.82 0 99.82 0 69.32 6.26 69.32 6.26 94.27 34.45 94.27 34.45 99.82"/><polygon class="cls-5" points="93.95 99.82 59.5 99.82 59.5 94.27 87.68 94.27 87.68 80.41 93.95 80.41 93.95 99.82"/><polygon class="cls-5" points="93.95 30.5 87.68 30.5 87.68 5.54 59.5 5.54 59.5 0 93.95 0 93.95 30.5"/></g></g></svg>