<svg xmlns="http://www.w3.org/2000/svg" viewBox="0 0 153.27 132.93"><defs><style>.cls-1,.cls-5,.cls-6{fill:#f39c12;}.cls-2,.cls-3{fill:#7d9091;stroke:#7d9091;}.cls-2,.cls-3,.cls-5,.cls-6{stroke-miterlimit:10;}.cls-2{stroke-width:4.28px;}.cls-3{stroke-width:3.33px;}.cls-4{fill:#fff;}.cls-5,.cls-6{stroke:#f39c12;}.cls-5{stroke-width:3.21px;}.cls-6{stroke-width:1.01px;}</style></defs><title>rules-engine-fanta-bskp</title><g id="Layer_2" data-name="Layer 2"><g id="rules-engine"><path class="cls-1" d="M113,71,78.67,91.4a5.18,5.18,0,0,1-5,0L37.09,71.4c-3.54-2-3.78-6.1-.44-8.44L72.18,38.06A5.19,5.19,0,0,1,78.06,38l35.36,24.51C116.9,64.79,116.68,69.06,113,71Z"/><line class="cls-2" x1="117.05" y1="66.58" x2="140.13" y2="66.58"/><line class="cls-2" x1="138.03" y1="66.58" x2="138.03" y2="91.68"/><line class="cls-2" x1="33.14" y1="67.67" x2="12.16" y2="67.67"/><line class="cls-2" x1="14.25" y1="67.67" x2="14.25" y2="91.68"/><path class="cls-3" d="M14.48,95a2.48,2.48,0,0,0,0,4.95,2.48,2.48,0,0,0,0-4.95Z"/><path class="cls-3" d="M138.26,95a2.48,2.48,0,1,0,2.29,2.47A2.38,2.38,0,0,0,138.26,95Z"/><line class="cls-2" x1="75.09" x2="75.09" y2="25.1"/><path class="cls-3" d="M75.32,28.45a2.48,2.48,0,1,0,2.29,2.47A2.38,2.38,0,0,0,75.32,28.45Z"/><path class="cls-4" d="M76.36,55.7A6.13,6.13,0,0,0,71,52.27a5.75,5.75,0,0,0-2,.34.53.53,0,0,0-.3.66.47.47,0,0,0,.61.33A4.85,4.85,0,0,1,71,53.31a5.17,5.17,0,0,1,4.55,2.89.48.48,0,0,0,.42.27.45.45,0,0,0,.23-.07A.54.54,0,0,0,76.36,55.7Z"/><path class="cls-4" d="M68.58,64a5.88,5.88,0,0,1-.36-9.82.55.55,0,0,0,.16-.72.46.46,0,0,0-.66-.17,7,7,0,0,0,.42,11.63.45.45,0,0,0,.22.06.48.48,0,0,0,.43-.28A.54.54,0,0,0,68.58,64Z"/><path class="cls-4" d="M71,56.83a2.13,2.13,0,1,0,2,2.12A2,2,0,0,0,71,56.83ZM71,60A1.08,1.08,0,1,1,72,59,1,1,0,0,1,71,60Z"/><path class="cls-4" d="M81.16,56.82l-1.44-.22a10.1,10.1,0,0,0-1-2.68l1.48-2.14a.55.55,0,0,0,0-.68L78.23,49a.45.45,0,0,0-.63,0l-2,1.61a8.57,8.57,0,0,0-2.47-1.11l-.35-2.65a.5.5,0,0,0-.48-.45H69.63a.5.5,0,0,0-.48.45l-.35,2.65a8.63,8.63,0,0,0-2.47,1.11l-2-1.61a.45.45,0,0,0-.63,0l-1.9,2.06a.55.55,0,0,0,0,.68l1.48,2.14a10.24,10.24,0,0,0-1,2.68L59.77,57a.51.51,0,0,0-.41.52V60.4a.51.51,0,0,0,.41.52l2.44.38a10.16,10.16,0,0,0,1,2.69l-1.47,2.13a.55.55,0,0,0,0,.68l1.9,2.06a.46.46,0,0,0,.34.15.46.46,0,0,0,.29-.1l2-1.59a8.6,8.6,0,0,0,2.49,1.12l.28,2.12a.5.5,0,0,0,.48.45h.07A.52.52,0,0,0,70,70.4l-.24-1.77c.24,0,.49.06.74.07h0a.5.5,0,0,0,.48-.5.51.51,0,0,0-.46-.54c-4.3-.22-7.67-4-7.67-8.71a9.18,9.18,0,0,1,1.83-5.53,8,8,0,0,1,4.58-3,7.58,7.58,0,0,1,3.29,0,7.66,7.66,0,0,1,2.76,1.24,8.41,8.41,0,0,1,2.33,2.52,9,9,0,0,1,1.15,3c0,.24.08.48.11.72a.49.49,0,0,0,.54.45.51.51,0,0,0,.42-.58v-.09l1.11.17h.07a.5.5,0,0,0,.48-.45A.52.52,0,0,0,81.16,56.82ZM62,60.21l-1.7-.27v-2L62,57.68A10.5,10.5,0,0,0,62,59,10.68,10.68,0,0,0,62,60.21Zm3.44,6.48L64.1,67.8l-1.31-1.42,1-1.48A9.44,9.44,0,0,0,65.47,66.69ZM64,52.76l-.18.25-1-1.5,1.31-1.42,1.39,1.12A9.41,9.41,0,0,0,64,52.76Zm5.79-3.48L70,47.43H71.9l.25,1.86A8.49,8.49,0,0,0,69.8,49.28Zm6.66,1.93,1.39-1.12,1.31,1.42-1,1.5A9.38,9.38,0,0,0,76.46,51.21Z"/><path class="cls-4" d="M85.6,64.88a.46.46,0,0,0-.66-.16.55.55,0,0,0-.15.72,6,6,0,0,1,.49,5,5.12,5.12,0,0,1-6.69,3.36,5.79,5.79,0,0,1-3.1-7.24,5,5,0,0,1,8.46-2.19.46.46,0,0,0,.68,0,.55.55,0,0,0,0-.74,6,6,0,0,0-10,2.59,6.86,6.86,0,0,0,3.68,8.58,5.74,5.74,0,0,0,2.12.41,6.23,6.23,0,0,0,5.81-4.39A7.12,7.12,0,0,0,85.6,64.88Z"/><path class="cls-4" d="M81,66.45a1.81,1.81,0,0,0-1.5.07,2.05,2.05,0,0,0-1,1.2,2.27,2.27,0,0,0,.06,1.62,2,2,0,0,0,1.1,1.1,1.82,1.82,0,0,0,.67.13,2,2,0,0,0,1.84-1.39A2.18,2.18,0,0,0,81,66.45Zm.26,2.36a1,1,0,0,1-1.28.64,1,1,0,0,1-.56-.56,1.15,1.15,0,0,1,0-.83,1,1,0,0,1,.52-.61.92.92,0,0,1,.76,0A1.11,1.11,0,0,1,81.31,68.82Z"/><path class="cls-4" d="M91.51,70.76l-2.18-1.27a10.48,10.48,0,0,0-.12-2.9l2.08-1.46a.55.55,0,0,0,.17-.66l-1.13-2.64a.47.47,0,0,0-.57-.28l-2.38.77a9.28,9.28,0,0,0-2-2l.51-2.63a.53.53,0,0,0-.31-.6l-2.52-1a.47.47,0,0,0-.59.24l-1.18,2.36a8.24,8.24,0,0,0-2.68.12l-1.35-2.24a.46.46,0,0,0-.61-.19l-2.44,1.22a.54.54,0,0,0-.26.62l.71,2.56A9.39,9.39,0,0,0,72.9,63l-2.42-.55a.48.48,0,0,0-.55.33L69,65.48a.54.54,0,0,0,.22.64l2.17,1.27a10.49,10.49,0,0,0,.11,2.91l-2.06,1.45a.55.55,0,0,0-.17.66L70.41,75a.48.48,0,0,0,.44.3l.14,0,2.36-.76q.19.25.39.49a.46.46,0,0,0,.68,0,.55.55,0,0,0,0-.74,9.23,9.23,0,0,1-1.63-8.89A8.44,8.44,0,0,1,77,60.54a7.45,7.45,0,0,1,6.16-.28c4.17,1.65,6.32,6.67,4.79,11.18s-6.16,6.84-10.33,5.18a7.9,7.9,0,0,1-2.25-1.36.46.46,0,0,0-.68.08.55.55,0,0,0,.08.73q.28.24.57.45l-.51,2.6a.53.53,0,0,0,.31.6l2.52,1a.45.45,0,0,0,.17,0,.48.48,0,0,0,.42-.27l1.17-2.34A8.28,8.28,0,0,0,82.09,78l1.34,2.23a.47.47,0,0,0,.4.24.45.45,0,0,0,.2,0l2.44-1.22a.54.54,0,0,0,.26-.62L86,76a9.46,9.46,0,0,0,1.82-2.14l2.41.55h.1a.48.48,0,0,0,.45-.34l.92-2.73A.54.54,0,0,0,91.51,70.76Zm-18.77,2.9-1.64.53-.78-1.82,1.44-1A10.12,10.12,0,0,0,72.75,73.66Zm-.84-8.57a10.49,10.49,0,0,0-.33,1.21l-1.52-.88.64-1.88,1.69.39A10.31,10.31,0,0,0,71.9,65.09Zm4.67-5.49a9,9,0,0,0-1,.6l-.5-1.79,1.68-.84.94,1.57A8.73,8.73,0,0,0,76.58,59.6Zm8,.21a8.67,8.67,0,0,0-2.2-.87l.82-1.65,1.74.69Zm-7,19.8-1.74-.69.35-1.82a8.77,8.77,0,0,0,1.07.51,8.54,8.54,0,0,0,1.13.36ZM84,79.31l-.94-1.56a8.79,8.79,0,0,0,2.13-1.07l.49,1.78Zm4-16.09,1.66-.54.78,1.82-1.45,1A10.23,10.23,0,0,0,88,63.22Zm2.07,10.12L88.37,73a10.24,10.24,0,0,0,.47-1.15,10.41,10.41,0,0,0,.33-1.23l1.52.89Z"/><path class="cls-5" d="M148,109a12.24,12.24,0,0,0-17.81,0,13.47,13.47,0,0,0,0,18.51,12.24,12.24,0,0,0,17.81,0A13.47,13.47,0,0,0,148,109Zm-.86,17.62a11.08,11.08,0,0,1-16.09,0,12.17,12.17,0,0,1,0-16.73,11.08,11.08,0,0,1,16.09,0,12.17,12.17,0,0,1,0,16.73Z"/><path class="cls-3" d="M23.16,108.62a12.24,12.24,0,0,0-17.81,0,13.47,13.47,0,0,0,0,18.51,12.24,12.24,0,0,0,17.81,0A13.47,13.47,0,0,0,23.16,108.62Zm-.86,17.62a11.08,11.08,0,0,1-16.09,0,12.17,12.17,0,0,1,0-16.73,11.08,11.08,0,0,1,16.09,0,12.17,12.17,0,0,1,0,16.73Zm-4.22-11.41L15,118l3.07,3.19a.66.66,0,0,1,0,.89.53.53,0,0,1-.43.17.68.68,0,0,1-.43-.17l-3.07-3.19-3.07,3.19a.53.53,0,0,1-.43.17.68.68,0,0,1-.43-.17.66.66,0,0,1,0-.89L13.3,118l-3.07-3.19a.66.66,0,0,1,0-.89.6.6,0,0,1,.86,0l3.07,3.19,3.07-3.19a.6.6,0,0,1,.86,0A.66.66,0,0,1,18.08,114.82Z"/><path class="cls-6" d="M130.87,119.29a.56.56,0,0,1,0-.83l.85-.83a.59.59,0,0,1,.85,0l.06.06,3.33,3.49a.3.3,0,0,0,.42,0l8.11-8.22h.06a.59.59,0,0,1,.85,0l.85.83a.56.56,0,0,1,0,.83h0l-9.68,9.82a.59.59,0,0,1-.85,0l-4.72-5Z"/></g></g></svg>