<svg xmlns="http://www.w3.org/2000/svg" viewBox="0 0 134.12 139.12"><defs><style>.cls-1{fill:#fff;}.cls-2{fill:#7d9091;stroke:#7d9091;stroke-miterlimit:10;stroke-width:3.12px;}.cls-3{fill:#f39c12;}</style></defs><title>script-console-fanta-bskp</title><g id="Layer_2" data-name="Layer 2"><g id="script-console"><rect class="cls-1" x="7.56" y="7.56" width="120" height="11"/><path class="cls-2" d="M126,1.56H8.11a6.69,6.69,0,0,0-6.55,6.8v122.4a6.69,6.69,0,0,0,6.55,6.8H126a6.69,6.69,0,0,0,6.55-6.8V8.36A6.69,6.69,0,0,0,126,1.56ZM5.92,8.36A2.23,2.23,0,0,1,8.11,6.09H126a2.23,2.23,0,0,1,2.18,2.27V19.69H5.92Zm122.27,122.4A2.23,2.23,0,0,1,126,133H8.11a2.23,2.23,0,0,1-2.18-2.27V24.22H128.19V130.76Z"/><path class="cls-3" d="M105.31,10.62a2.27,2.27,0,1,0,2.18,2.27A2.22,2.22,0,0,0,105.31,10.62Z"/><path class="cls-3" d="M114,10.62a2.27,2.27,0,1,0,2.18,2.27A2.22,2.22,0,0,0,114,10.62Z"/><path class="cls-3" d="M122.78,10.62A2.27,2.27,0,1,0,125,12.89,2.22,2.22,0,0,0,122.78,10.62Z"/><path class="cls-3" d="M14.66,35.56H29.94a2.27,2.27,0,0,0,0-4.53H14.66a2.27,2.27,0,0,0,0,4.53Z"/><path class="cls-3" d="M43,35.56H71.42a2.27,2.27,0,0,0,0-4.53H43a2.27,2.27,0,0,0,0,4.53Z"/><path class="cls-3" d="M14.66,49.16H43a2.27,2.27,0,0,0,0-4.53H14.66a2.27,2.27,0,0,0,0,4.53Z"/><path class="cls-3" d="M64.87,44.62H56.14a2.27,2.27,0,0,0,0,4.53h8.73a2.27,2.27,0,0,0,0-4.53Z"/><path class="cls-3" d="M14.66,62.76H29.94a2.27,2.27,0,0,0,0-4.53H14.66a2.27,2.27,0,0,0,0,4.53Z"/><path class="cls-3" d="M64.87,58.22H43a2.27,2.27,0,0,0,0,4.53H64.87a2.27,2.27,0,0,0,0-4.53Z"/><path class="cls-3" d="M14.66,76.36H43a2.27,2.27,0,0,0,0-4.53H14.66a2.27,2.27,0,0,0,0,4.53Z"/><path class="cls-3" d="M64.87,71.82H56.14a2.27,2.27,0,0,0,0,4.53h8.73a2.27,2.27,0,0,0,0-4.53Z"/><path class="cls-3" d="M19,110.36v6.8a4.46,4.46,0,0,1-4.37,4.53,2.27,2.27,0,0,0,0,4.53,8.91,8.91,0,0,0,8.73-9.07V111.3l3.73-3.87a2.33,2.33,0,0,0,0-3.21l-3.72-3.87,0-5.86a8.92,8.92,0,0,0-8.75-9.07,2.27,2.27,0,0,0,0,4.53A4.46,4.46,0,0,1,19,94.48l0,6.8a2.3,2.3,0,0,0,.64,1.61l2.82,2.93-2.82,2.93A2.3,2.3,0,0,0,19,110.36Z"/><path class="cls-3" d="M104.08,115a1.22,1.22,0,0,0-1.68.23l-3.6,4.67a1.14,1.14,0,0,0,0,1.4l3.6,4.67a1.22,1.22,0,0,0,1.68.23,1.15,1.15,0,0,0,.24-1.63l-3.06-4,3.06-4A1.15,1.15,0,0,0,104.08,115Z"/><path class="cls-3" d="M122.32,119.86l-3.6-4.67A1.22,1.22,0,0,0,117,115a1.14,1.14,0,0,0-.24,1.63l3.06,4-3.06,4a1.14,1.14,0,0,0,.24,1.63,1.22,1.22,0,0,0,1.68-.23l3.6-4.67A1.14,1.14,0,0,0,122.32,119.86Z"/><path class="cls-3" d="M112.35,113.58a1.53,1.53,0,0,0-1.76.91l-3,11.67c-.16.63.36,1.25,1.18,1.37l.3,0a1.46,1.46,0,0,0,1.47-.94l3-11.67C113.69,114.32,113.16,113.71,112.35,113.58Z"/></g></g></svg>