<svg xmlns="http://www.w3.org/2000/svg" viewBox="0 0 142 141"><defs><style>.cls-1{fill:#f39c12;}.cls-2{fill:#fff;}.cls-3{fill:#7d9091;}</style></defs><title>user-management-fanta-bskp</title><g id="Layer_2" data-name="Layer 2"><g id="user-management"><path class="cls-1" d="M71,53.75A27.09,27.09,0,0,1,43.92,26.86a27.08,27.08,0,0,1,54.15,0A27.07,27.07,0,0,1,71,53.75Z"/><ellipse class="cls-2" cx="71" cy="23.57" rx="11.53" ry="11.45"/><path class="cls-2" d="M84.32,35.25H57.68a8.39,8.39,0,0,0-8.42,8.36V55.73a36.1,36.1,0,0,0,43.48,0V43.61A8.39,8.39,0,0,0,84.32,35.25Z"/><path class="cls-3" d="M93.18,102.89a.81.81,0,0,1,.67-.23L73.23,82.18V65a38.37,38.37,0,0,0,20.86-7.72l.88-.67v-13A10.48,10.48,0,0,0,84.32,33H81.21A13.91,13.91,0,0,0,85,23.78a13.76,13.76,0,0,0-27.52,0A12.92,12.92,0,0,0,61.25,33H57.7A10.75,10.75,0,0,0,47.05,43.61v13l.88.67A38.37,38.37,0,0,0,68.8,65V82.18L38.17,112.59l3.11,3.09L71,86.14l19.75,19.61A6,6,0,0,1,93.18,102.89ZM71,14.33a9.36,9.36,0,0,1,9.33,9.26A9.54,9.54,0,0,1,71,33.06a9.36,9.36,0,0,1-9.33-9.26A9.54,9.54,0,0,1,71,14.33ZM51.49,54.42V43.61a6.34,6.34,0,0,1,6.22-6.17H84.34a6.34,6.34,0,0,1,6.22,6.17V54.42a34,34,0,0,1-39.07,0Z"/><path class="cls-1" d="M114.92,139.25A26.89,26.89,0,1,1,142,112.36,27.09,27.09,0,0,1,114.92,139.25Z"/><ellipse class="cls-2" cx="114.92" cy="109.04" rx="11.53" ry="11.45"/><path class="cls-2" d="M128.24,120.52H101.63a8.39,8.39,0,0,0-8.42,8.36V141h43.46V128.88A8.38,8.38,0,0,0,128.24,120.52Z"/><path class="cls-3" d="M128.24,118.31h-3.11A13.67,13.67,0,1,0,101.4,109a12.92,12.92,0,0,0,3.78,9.26h-3.11a10.75,10.75,0,0,0-10.65,10.58V141h4.43V128.88a6.34,6.34,0,0,1,6.22-6.17h26.61a6.34,6.34,0,0,1,6.22,6.17V141h4.43V128.88A11.3,11.3,0,0,0,128.24,118.31ZM105.62,109a9.33,9.33,0,1,1,9.33,9.26A9.36,9.36,0,0,1,105.62,109Z"/><rect class="cls-3" x="102.28" y="132.2" width="4.43" height="4.63"/><rect class="cls-3" x="112.72" y="132.2" width="4.43" height="4.63"/><rect class="cls-3" x="123.37" y="132.2" width="4.43" height="4.63"/><rect class="cls-3" x="58.12" y="46.7" width="4.43" height="4.63"/><rect class="cls-3" x="68.77" y="46.7" width="4.43" height="4.63"/><rect class="cls-3" x="79.42" y="46.7" width="4.43" height="4.63"/><path class="cls-1" d="M27.08,139.25a26.89,26.89,0,1,1,27.08-26.89A27.09,27.09,0,0,1,27.08,139.25Z"/><ellipse class="cls-2" cx="27.08" cy="109.04" rx="11.53" ry="11.45"/><path id="SVGCleanerId_0" data-name="SVGCleanerId 0" class="cls-2" d="M40.37,120.52H13.76a8.39,8.39,0,0,0-8.42,8.36V141H48.82V128.88A8.4,8.4,0,0,0,40.37,120.52Z"/><ellipse class="cls-2" cx="27.08" cy="109.04" rx="11.53" ry="11.45"/><path id="SVGCleanerId_0-2" data-name="SVGCleanerId 0" class="cls-2" d="M40.37,120.52H13.76a8.39,8.39,0,0,0-8.42,8.36V141H48.82V128.88A8.4,8.4,0,0,0,40.37,120.52Z"/><path class="cls-3" d="M40.37,118.31H37.26A13.67,13.67,0,1,0,13.53,109a12.92,12.92,0,0,0,3.78,9.26H13.76A10.75,10.75,0,0,0,3.11,128.88V141H7.54V128.88a6.34,6.34,0,0,1,6.22-6.17H40.37a6.34,6.34,0,0,1,6.22,6.17V141H51V128.88A10.75,10.75,0,0,0,40.37,118.31ZM17.75,109a9.33,9.33,0,1,1,9.33,9.26A9.36,9.36,0,0,1,17.75,109Z"/><rect class="cls-3" x="14.2" y="132.2" width="4.43" height="4.63"/><rect class="cls-3" x="24.85" y="132.2" width="4.43" height="4.63"/><rect class="cls-3" x="35.27" y="132.2" width="4.43" height="4.63"/></g></g></svg>